<svg width="336" height="359" viewBox="0 0 336 359" fill="none" xmlns="http://www.w3.org/2000/svg">
<rect x="0.857178" y="0.048584" width="334.309" height="358.27" rx="27.3608" fill="white"/>
<path d="M66.2654 312.963C69.6495 312.641 72.7199 311.285 73.7957 309.169C74.8939 311.285 77.9419 312.618 81.3261 312.963L81.9088 311.514C78.4125 311.239 75.2301 309.744 75.0059 307.698L81.214 307.698V306.227L66.3774 306.227L66.3774 307.698L72.5855 307.698C72.3614 309.744 69.1565 311.239 65.6602 311.514L66.2654 312.963ZM73.7733 325.033C71.1063 325.033 69.6271 324.55 69.6271 323.631C69.6271 322.665 71.1063 322.205 73.7733 322.205C76.4403 322.205 77.9419 322.665 77.9419 323.631C77.9419 324.55 76.4403 325.033 73.7733 325.033ZM73.7733 320.872C69.8961 320.872 67.7445 321.814 67.7445 323.631C67.7445 325.401 69.8961 326.321 73.7733 326.321C77.6505 326.321 79.8245 325.401 79.8245 323.631C79.8245 321.814 77.6505 320.872 73.7733 320.872ZM74.7146 316.48H72.8768L72.8768 318.412H66.3774L66.3774 319.86L81.1916 319.86V318.412H74.7146V316.48ZM74.6922 314.135L74.6922 311.675H72.8544V314.135H64.6965L64.6965 315.653L82.8949 315.653L82.8949 314.135L74.6922 314.135Z" fill="black"/>
<path d="M91.813 309.261L96.5419 309.261V307.698L85.3136 307.698V309.261L89.9752 309.261V311.882C89.9752 315.446 87.5324 319.331 84.6412 320.734L85.717 322.251C88.003 321.056 89.9752 318.458 90.8941 315.446C91.8578 318.274 93.8301 320.642 96.1609 321.745L97.1918 320.228C94.2335 318.94 91.813 315.377 91.813 311.882V309.261ZM99.2537 305.606L99.2537 326.206H101.091L101.091 305.606L99.2537 305.606Z" fill="black"/>
<path d="M105.908 326.275L108.06 322.481H105.998L104.877 326.275H105.908Z" fill="black"/>
<path d="M124.202 307.928C127.272 307.928 129.357 309.1 129.357 310.917C129.357 312.756 127.272 313.928 124.202 313.928C121.154 313.928 119.07 312.756 119.07 310.917C119.07 309.1 121.154 307.928 124.202 307.928ZM124.202 315.446C128.393 315.446 131.239 313.699 131.239 310.917C131.239 308.158 128.393 306.41 124.202 306.41C120.033 306.41 117.187 308.158 117.187 310.917C117.187 313.699 120.033 315.446 124.202 315.446ZM133.346 317.4L115.148 317.4V318.963L123.283 318.963V326.229H125.121V318.963H133.346V317.4Z" fill="black"/>
<path d="M138.095 314.848L145.514 314.848V307.491L136.19 307.491V309.031L143.654 309.031V313.331H136.258V321.24H137.916C141.368 321.24 144.416 321.102 148.046 320.481L147.867 318.94C144.348 319.515 141.39 319.676 138.095 319.676L138.095 314.848ZM149.75 305.56V326.229H151.587V305.56L149.75 305.56Z" fill="black"/>
<path d="M164.987 319.86C163.418 319.86 162.32 318.55 162.32 316.71C162.32 314.917 163.418 313.607 164.987 313.607C166.533 313.607 167.654 314.917 167.654 316.71C167.654 318.55 166.533 319.86 164.987 319.86ZM164.987 312.02C162.499 312.02 160.684 313.951 160.684 316.71C160.684 319.515 162.499 321.424 164.987 321.424C167.474 321.424 169.29 319.515 169.29 316.71C169.29 313.951 167.474 312.02 164.987 312.02ZM165.883 306.181L164.068 306.181V309.1H159.989V310.641H169.962V309.1L165.883 309.1V306.181ZM175.274 305.56V314.273H172.696V306.043L170.971 306.043V325.194H172.696V315.814H175.274V326.183H177.044L177.044 305.56L175.274 305.56Z" fill="black"/>
<path d="M194.658 310.894V313.814L190.019 313.814V310.894H194.658ZM188.204 315.814L182.78 315.814V312.089L188.204 312.089L188.204 315.814ZM190.019 315.354H194.658V320.849H196.518V305.606L194.658 305.606V309.376H190.019V306.962H188.204V310.595H182.78V306.962H180.965V317.331H190.019V315.354ZM185.424 324.205V319.354H183.587V325.746H196.989V324.205L185.424 324.205Z" fill="black"/>
<path d="M204.45 319.929C202.837 319.929 201.828 317.837 201.828 314.457C201.828 311.147 202.837 309.054 204.45 309.054C206.019 309.054 207.05 311.147 207.05 314.457C207.05 317.837 206.019 319.929 204.45 319.929ZM211.241 313.607H208.709C208.484 309.721 206.871 307.307 204.45 307.307C201.828 307.307 200.147 310.066 200.147 314.457C200.147 318.917 201.828 321.676 204.45 321.676C206.916 321.676 208.552 319.193 208.709 315.147H211.241V325.194H212.989V306.043L211.241 306.043V313.607ZM215.23 305.583L215.23 326.206H216.978V305.583L215.23 305.583Z" fill="black"/>
<path d="M225.716 306.594V308.135L233 308.135C232.709 311.331 229.795 313.883 224.842 315.009L225.537 316.572C231.386 315.17 235.017 311.744 235.017 306.594L225.716 306.594ZM229.504 322.113H240.418V317.009H227.644V318.504L238.603 318.504V320.688H227.711V325.999H241.158V324.504H229.504V322.113ZM240.418 310.204V305.583L238.581 305.583V316.09H240.418V311.767H243.399V310.204H240.418Z" fill="black"/>
<path d="M245.347 307.813V309.376H249.045C248.843 313.515 247.678 317.331 244.697 320.504L246.132 321.561C249.785 317.607 250.793 312.779 250.793 307.813L245.347 307.813ZM251.466 307.813V309.376H254.558C254.402 313.745 253.505 318.251 250.412 321.906L251.891 322.941C255.589 318.458 256.284 312.779 256.284 307.813L251.466 307.813ZM263.546 314.089H260.565V305.583L258.727 305.583V326.206H260.565V315.653H263.546V314.089Z" fill="black"/>
<path d="M267.735 324.205C268.205 324.665 269.057 324.665 269.505 324.205C269.976 323.723 269.976 322.849 269.505 322.389C269.057 321.906 268.205 321.906 267.735 322.389C267.287 322.849 267.287 323.723 267.735 324.205ZM270.312 317.124C269.976 318.205 269.438 318.642 268.542 318.642C267.712 318.642 267.197 318.09 267.197 317.239C267.197 316.32 267.6 315.768 268.654 315.193L270.267 314.296C271.567 313.584 272.217 312.618 272.217 311.445C272.217 309.537 270.783 308.227 268.743 308.227C266.435 308.227 265.001 309.514 264.642 311.652L266.054 311.905C266.435 310.342 267.264 309.56 268.586 309.56C269.998 309.56 270.783 310.296 270.783 311.514C270.783 312.227 270.402 312.779 269.617 313.216L267.78 314.25C266.457 314.986 265.807 315.975 265.807 317.193C265.807 319.009 267.04 319.975 268.586 319.975C270.043 319.975 271.007 319.17 271.433 317.561L270.312 317.124Z" fill="black"/>
<path d="M41.4586 174.812C46.5071 174.812 49.6734 172.178 49.6734 167.972V167.957C49.6734 164.694 47.8203 162.868 43.3847 161.91L41.123 161.416C38.4967 160.847 37.4315 159.889 37.4315 158.362V158.348C37.4315 156.506 39.0949 155.384 41.4295 155.384C43.837 155.369 45.3982 156.566 45.6609 158.243L45.69 158.422H49.294L49.2794 158.228C49.0168 154.755 46.1132 152.136 41.4441 152.136C36.8917 152.136 33.6525 154.74 33.6525 158.602V158.617C33.6525 161.835 35.5201 163.901 39.8245 164.829L42.0861 165.308C44.8 165.906 45.8943 166.849 45.8943 168.406V168.421C45.8943 170.277 44.1142 171.564 41.5754 171.564C38.9052 171.564 37.023 170.367 36.8479 168.556L36.8333 168.406H33.1855L33.2001 168.615C33.4628 172.342 36.5707 174.812 41.4586 174.812Z" fill="black"/>
<path d="M58.5085 174.603C60.8139 174.603 62.4335 173.54 63.1776 171.789H63.4257V174.273H67.0588V157.913H63.4257V167.448C63.4257 169.903 62.1709 171.459 59.8217 171.459C57.6331 171.459 56.7138 170.172 56.7138 167.643L56.7138 157.913H53.0807L53.0807 168.496C53.0807 172.387 54.9191 174.603 58.5085 174.603Z" fill="black"/>
<path d="M71.1957 174.273H74.8288V164.769C74.8288 162.434 76.4193 160.952 78.8414 160.952C79.4688 160.952 80.067 161.042 80.6506 161.161V157.824C80.3005 157.719 79.7314 157.644 79.177 157.644C77.0758 157.644 75.6167 158.677 75.0769 160.428H74.8288V157.913H71.1957V174.273Z" fill="black"/>
<path d="M89.7484 174.603C94.0819 174.603 96.2122 172.043 96.7229 169.933L96.7667 169.798H93.3086L93.2649 169.903C92.9147 170.651 91.7912 171.669 89.8214 171.669C87.3555 171.669 85.8089 169.963 85.7651 167.029H96.9126V165.802C96.9126 160.862 94.1111 157.599 89.5733 157.599C85.0355 157.599 82.1319 160.967 82.1319 166.116V166.131C82.1319 171.34 85.0063 174.603 89.7484 174.603ZM89.6171 160.518C91.6452 160.518 93.1189 161.85 93.367 164.529H85.7943C86.0715 161.925 87.589 160.518 89.6171 160.518Z" fill="black"/>
<path d="M99.7654 179.976H102.246L104.785 170.98H101.035L99.7654 179.976Z" fill="black"/>
<path d="M123.476 174.603C127.401 174.603 130.247 172.522 130.247 169.409V169.379C130.247 166.999 128.773 165.637 125.65 164.918L123.068 164.335C121.346 163.931 120.675 163.347 120.675 162.389V162.374C120.675 161.146 121.842 160.338 123.462 160.338C125.169 160.338 126.219 161.176 126.482 162.209L126.497 162.254H129.911V162.224C129.678 159.575 127.358 157.599 123.476 157.599C119.712 157.599 117.086 159.635 117.086 162.583V162.598C117.086 165.008 118.53 166.475 121.565 167.164L124.148 167.762C125.898 168.166 126.599 168.795 126.599 169.753V169.783C126.599 171.01 125.344 171.849 123.535 171.849C121.725 171.849 120.66 171.055 120.281 169.918L120.266 169.888H116.662V169.918C116.969 172.687 119.42 174.603 123.476 174.603Z" fill="black"/>
<path d="M133.756 174.273H137.389V164.739C137.389 162.284 138.732 160.727 140.891 160.727C143.094 160.727 144.101 162.015 144.101 164.559V174.273H147.734V163.691C147.734 159.799 145.794 157.599 142.233 157.599C139.928 157.599 138.396 158.662 137.637 160.413H137.389V151.582H133.756V174.273Z" fill="black"/>
<path d="M158.612 174.603C163.383 174.603 166.287 171.399 166.287 166.101V166.071C166.287 160.802 163.369 157.599 158.612 157.599C153.87 157.599 150.937 160.817 150.937 166.071V166.101C150.937 171.399 153.826 174.603 158.612 174.603ZM158.612 171.579C156.088 171.579 154.643 169.558 154.643 166.116V166.086C154.643 162.643 156.088 160.608 158.612 160.608C161.122 160.608 162.566 162.643 162.566 166.086V166.116C162.566 169.558 161.136 171.579 158.612 171.579Z" fill="black"/>
<path d="M174.918 174.603C177.223 174.603 178.843 173.54 179.587 171.789H179.835V174.273H183.468V157.913H179.835V167.448C179.835 169.903 178.58 171.459 176.231 171.459C174.042 171.459 173.123 170.172 173.123 167.643V157.913H169.49V168.496C169.49 172.387 171.328 174.603 174.918 174.603Z" fill="black"/>
<path d="M187.751 174.273H191.384V151.582H187.751V174.273Z" fill="black"/>
<path d="M201.43 174.543C203.677 174.543 205.399 173.495 206.274 171.714H206.522V174.273H210.17V151.582H206.522V160.518H206.274C205.443 158.752 203.619 157.644 201.43 157.644C197.389 157.644 194.893 160.877 194.893 166.086V166.116C194.893 171.295 197.432 174.543 201.43 174.543ZM202.568 171.399C200.088 171.399 198.585 169.409 198.585 166.116V166.086C198.585 162.793 200.102 160.787 202.568 160.787C205.034 160.787 206.581 162.808 206.581 166.086V166.116C206.581 169.394 205.049 171.399 202.568 171.399Z" fill="black"/>
<path d="M225.141 174.273H228.906L231.999 162.419H232.247L235.355 174.273H239.163L243.482 157.913H239.878L237.237 170.202H236.989L233.896 157.913H230.438L227.374 170.202H227.126L224.47 157.913H220.822L225.141 174.273Z" fill="black"/>
<path d="M252.536 174.603C256.87 174.603 259 172.043 259.511 169.933L259.554 169.798H256.096L256.053 169.903C255.702 170.651 254.579 171.669 252.609 171.669C250.143 171.669 248.597 169.963 248.553 167.029H259.7V165.802C259.7 160.862 256.899 157.599 252.361 157.599C247.823 157.599 244.92 160.967 244.92 166.116V166.131C244.92 171.34 247.794 174.603 252.536 174.603ZM252.405 160.518C254.433 160.518 255.907 161.85 256.155 164.529H248.582C248.859 161.925 250.377 160.518 252.405 160.518Z" fill="black"/>
<path d="M277.56 180.021C282.215 180.021 285.162 177.641 285.162 173.869V157.913H281.529V160.608H281.339C280.435 158.752 278.713 157.644 276.51 157.644C272.395 157.644 269.885 160.907 269.885 165.637V165.667C269.885 170.307 272.395 173.51 276.437 173.51C278.64 173.51 280.376 172.552 281.296 170.801H281.544V173.929C281.544 176.025 280.099 177.207 277.619 177.207C275.59 177.207 274.379 176.474 274.131 175.426L274.117 175.381H270.484L270.469 175.426C270.834 178.18 273.358 180.021 277.56 180.021ZM277.56 170.546C275.036 170.546 273.606 168.556 273.606 165.667V165.637C273.606 162.748 275.036 160.742 277.56 160.742C280.07 160.742 281.602 162.748 281.602 165.637V165.667C281.602 168.556 280.084 170.546 277.56 170.546Z" fill="black"/>
<path d="M296.201 174.603C300.972 174.603 303.875 171.399 303.875 166.101V166.071C303.875 160.802 300.957 157.599 296.201 157.599C291.458 157.599 288.526 160.817 288.526 166.071V166.101C288.526 171.399 291.415 174.603 296.201 174.603ZM296.201 171.579C293.676 171.579 292.232 169.558 292.232 166.116V166.086C292.232 162.643 293.676 160.608 296.201 160.608C298.71 160.608 300.155 162.643 300.155 166.086V166.116C300.155 169.558 298.725 171.579 296.201 171.579Z" fill="black"/>
<path d="M79.0421 222.245C79.7425 222.245 80.4137 222.185 80.9389 222.081V219.207C80.5012 219.252 80.224 219.267 79.7133 219.267C78.1958 219.267 77.5684 218.578 77.5684 216.947V208.699H80.9389V205.811H77.5684L77.5684 201.799H73.8769L73.8769 205.811H71.3964V208.699H73.8769V217.83C73.8769 220.988 75.3798 222.245 79.0421 222.245Z" fill="black"/>
<path d="M90.9997 222.5C95.771 222.5 98.6746 219.297 98.6746 213.998V213.968C98.6746 208.699 95.7564 205.496 90.9997 205.496C86.2577 205.496 83.3249 208.714 83.3249 213.968V213.998C83.3249 219.297 86.2139 222.5 90.9997 222.5ZM90.9997 219.476C88.4755 219.476 87.031 217.456 87.031 214.013V213.983C87.031 210.54 88.4755 208.505 90.9997 208.505C93.5094 208.505 94.9539 210.54 94.9539 213.983V214.013C94.9539 217.456 93.524 219.476 90.9997 219.476Z" fill="black"/>
<path d="M115.966 222.245C116.666 222.245 117.337 222.185 117.862 222.081V219.207C117.425 219.252 117.147 219.267 116.637 219.267C115.119 219.267 114.492 218.578 114.492 216.947V208.699H117.862V205.811H114.492V201.799H110.8V205.811H108.32V208.699H110.8V217.83C110.8 220.988 112.303 222.245 115.966 222.245Z" fill="black"/>
<path d="M121.328 222.17H124.961V212.636C124.961 210.181 126.304 208.625 128.463 208.625C130.666 208.625 131.673 209.912 131.673 212.456V222.17H135.306V211.588C135.306 207.697 133.366 205.496 129.805 205.496C127.5 205.496 125.968 206.559 125.209 208.31H124.961V199.479H121.328V222.17Z" fill="black"/>
<path d="M146.126 222.5C150.459 222.5 152.589 219.94 153.1 217.83L153.144 217.695H149.686L149.642 217.8C149.292 218.548 148.168 219.566 146.199 219.566C143.733 219.566 142.186 217.86 142.142 214.926H153.29L153.29 213.699C153.29 208.759 150.488 205.496 145.951 205.496C141.413 205.496 138.509 208.864 138.509 214.013V214.028C138.509 219.237 141.384 222.5 146.126 222.5ZM145.994 208.415C148.023 208.415 149.496 209.747 149.744 212.426H142.172C142.449 209.822 143.966 208.415 145.994 208.415Z" fill="black"/>
<path d="M173.163 222.44C177.161 222.44 179.715 219.192 179.715 214.013V213.983C179.715 208.774 177.205 205.541 173.163 205.541C170.975 205.541 169.151 206.649 168.319 208.415H168.071V199.479H164.438L164.438 222.17H168.071V219.611H168.319C169.195 221.392 170.931 222.44 173.163 222.44ZM172.025 219.297C169.559 219.297 168.027 217.291 168.027 214.013V213.983C168.027 210.705 169.559 208.684 172.025 208.684C174.506 208.684 176.009 210.69 176.009 213.983V214.013C176.009 217.306 174.506 219.297 172.025 219.297Z" fill="black"/>
<path d="M189.878 222.5C194.211 222.5 196.341 219.94 196.852 217.83L196.896 217.695H193.438L193.394 217.8C193.044 218.548 191.92 219.566 189.951 219.566C187.485 219.566 185.938 217.86 185.894 214.926H197.042L197.042 213.699C197.042 208.759 194.24 205.496 189.703 205.496C185.165 205.496 182.261 208.864 182.261 214.013V214.028C182.261 219.237 185.136 222.5 189.878 222.5ZM189.746 208.415C191.775 208.415 193.248 209.747 193.496 212.426H185.924C186.201 209.822 187.718 208.415 189.746 208.415Z" fill="black"/>
<path d="M204.724 222.44C206.825 222.44 208.518 221.512 209.393 219.925H209.641V222.17H213.231L213.231 210.989C213.231 207.532 210.925 205.496 206.825 205.496C203.032 205.496 200.464 207.322 200.114 210.076L200.099 210.211H203.528L203.542 210.151C203.907 209.074 204.987 208.46 206.65 208.46C208.606 208.46 209.641 209.358 209.641 210.989V212.396L205.541 212.651C201.66 212.89 199.486 214.597 199.486 217.515V217.545C199.486 220.524 201.689 222.44 204.724 222.44ZM203.075 217.366V217.336C203.075 215.989 204.024 215.225 206.052 215.091L209.641 214.851V216.168C209.641 218.114 208.022 219.581 205.833 219.581C204.228 219.581 203.075 218.758 203.075 217.366Z" fill="black"/>
<path d="M224.138 222.5C228.18 222.5 230.529 220.27 231.054 216.917L231.083 216.797L227.654 216.812L227.625 216.872C227.173 218.593 226.02 219.476 224.138 219.476C221.672 219.476 220.198 217.441 220.198 213.968V213.938C220.198 210.511 221.657 208.505 224.138 208.505C226.122 208.505 227.304 209.642 227.64 211.229L227.654 211.274H231.083V211.214C230.675 207.831 228.223 205.496 224.123 205.496C219.323 205.496 216.507 208.654 216.507 213.938V213.968C216.507 219.312 219.337 222.5 224.138 222.5Z" fill="black"/>
<path d="M234.388 222.17H238.022L238.022 212.636C238.022 210.181 239.364 208.625 241.523 208.625C243.727 208.625 244.733 209.912 244.733 212.456L244.733 222.17H248.367L248.367 211.588C248.367 207.697 246.426 205.496 242.866 205.496C240.56 205.496 239.028 206.559 238.27 208.31H238.022V199.479H234.388L234.388 222.17Z" fill="black"/>
<path d="M255.845 215.435H259.23L259.23 214.567C259.23 213.07 259.77 212.292 261.681 211.154C263.666 209.942 264.774 208.34 264.774 206.065V206.035C264.774 202.757 262.104 200.392 258.106 200.392C253.773 200.392 251.394 202.967 251.292 206.469V206.499L254.692 206.484L254.721 206.469C254.823 204.628 256.034 203.446 257.917 203.446C259.755 203.446 260.981 204.598 260.981 206.17V206.2C260.981 207.667 260.368 208.475 258.559 209.597C256.545 210.81 255.699 212.157 255.83 214.372L255.845 215.435ZM257.698 222.545C259.186 222.545 260.12 221.617 260.12 220.195C260.12 218.758 259.186 217.83 257.698 217.83C256.239 217.83 255.276 218.758 255.276 220.195C255.276 221.617 256.239 222.545 257.698 222.545Z" fill="black"/>
<rect x="113.786" y="142.363" width="198.536" height="42.5347" rx="13.6804" fill="#F0F0F0"/>
<rect x="76.0613" y="41.4958" width="184.162" height="67.6038" rx="33.8019" fill="#1C49FF"/>
<path d="M92.4127 71.022C93.8087 71.022 94.9369 72.1824 94.9369 73.6113L94.9369 75.3396C94.9369 76.7716 93.8057 77.9289 92.4127 77.9289C91.0197 77.932 89.8884 76.7716 89.8884 75.3396L89.8884 73.6113C89.8884 72.1824 91.0197 71.022 92.4127 71.022Z" fill="#F3F3F3"/>
<path d="M100.834 69.2979C102.23 69.2979 103.358 70.4583 103.358 71.8874L103.358 77.0694C103.358 78.5015 102.227 79.6589 100.834 79.6589C99.4378 79.6589 98.3096 78.4984 98.3096 77.0694L98.3096 71.8874C98.3066 70.4583 99.4378 69.2979 100.834 69.2979Z" fill="#F3F3F3"/>
<path d="M109.252 65.8398C110.648 65.8398 111.776 67.0003 111.776 68.4293L111.776 80.5216C111.776 81.9537 110.645 83.1111 109.252 83.1111C107.856 83.1111 106.728 81.9506 106.728 80.5216L106.728 68.4324C106.728 67.0003 107.859 65.8398 109.252 65.8398Z" fill="#F3F3F3"/>
<path d="M117.673 68.4338C119.069 68.4338 120.197 69.5943 120.197 71.0233L120.197 77.9337C120.197 79.3658 119.066 80.5232 117.673 80.5232C116.277 80.5232 115.149 79.3627 115.149 77.9337L115.149 71.0233C115.146 69.5943 116.277 68.4338 117.673 68.4338Z" fill="#F3F3F3"/>
<path d="M126.091 55.4763C127.487 55.4763 128.615 56.6368 128.615 58.0658L128.615 90.883C128.615 92.315 127.484 93.4724 126.091 93.4724C124.695 93.4724 123.567 92.3119 123.567 90.883L123.567 58.0689C123.567 56.6368 124.698 55.4763 126.091 55.4763Z" fill="#F3F3F3"/>
<path d="M134.513 64.115C135.909 64.115 137.037 65.2755 137.037 66.7044L137.037 82.2504C137.037 83.6825 135.906 84.8398 134.513 84.8398C133.117 84.8398 131.988 83.6794 131.988 82.2504L131.988 66.7044C131.985 65.2724 133.117 64.115 134.513 64.115Z" fill="#F3F3F3"/>
<path d="M142.931 64.115C144.327 64.115 145.456 65.2755 145.456 66.7044L145.456 82.2504C145.456 83.6825 144.324 84.8398 142.931 84.8398C141.535 84.8398 140.407 83.6794 140.407 82.2504L140.407 66.7044C140.407 65.2724 141.538 64.115 142.931 64.115Z" fill="#F3F3F3"/>
<path d="M151.346 52.0232C152.742 52.0232 153.87 53.1837 153.87 54.6126L153.87 94.3402C153.87 95.7723 152.739 96.9297 151.346 96.9297C149.95 96.9297 148.822 95.7692 148.822 94.3402L148.822 54.6126C148.819 53.1837 149.95 52.0232 151.346 52.0232Z" fill="#F3F3F3"/>
<path d="M159.764 62.3872C161.16 62.3872 162.289 63.5477 162.289 64.9767L162.289 83.9762C162.289 85.4083 161.157 86.5657 159.764 86.5657C158.368 86.5657 157.24 85.4052 157.24 83.9762L157.24 64.9767C157.237 63.5477 158.368 62.3872 159.764 62.3872Z" fill="#F3F3F3"/>
<path d="M168.183 65.8398C169.579 65.8398 170.708 67.0003 170.708 68.4293L170.708 80.5216C170.708 81.9537 169.576 83.1111 168.183 83.1111C166.787 83.1111 165.659 81.9506 165.659 80.5216L165.659 68.4324C165.659 67.0003 166.79 65.8398 168.183 65.8398Z" fill="#F3F3F3"/>
<path d="M176.604 52.0232C178 52.0232 179.128 53.1837 179.128 54.6126L179.128 94.3402C179.128 95.7723 177.997 96.9297 176.604 96.9297C175.208 96.9297 174.079 95.7692 174.079 94.3402L174.079 54.6126C174.076 53.1837 175.208 52.0232 176.604 52.0232Z" fill="#F3F3F3"/>
<path d="M185.022 65.8398C186.418 65.8398 187.546 67.0003 187.546 68.4293L187.546 80.5216C187.546 81.9537 186.415 83.1111 185.022 83.1111C183.626 83.1111 182.497 81.9506 182.497 80.5216L182.497 68.4324C182.497 67.0003 183.629 65.8398 185.022 65.8398Z" fill="#F3F3F3"/>
<path d="M193.442 58.9338C194.838 58.9338 195.966 60.0943 195.966 61.5233L195.966 87.4335C195.966 88.8656 194.835 90.0229 193.442 90.0229C192.046 90.0229 190.917 88.8625 190.917 87.4335L190.917 61.5233C190.914 60.0943 192.046 58.9338 193.442 58.9338Z" fill="#F3F3F3"/>
<path d="M201.861 59.7966C203.257 59.7966 204.385 60.9571 204.385 62.3861L204.385 86.5678C204.385 87.9998 203.254 89.1572 201.861 89.1572C200.465 89.1572 199.337 87.9967 199.337 86.5678L199.337 62.3861C199.337 60.954 200.468 59.7966 201.861 59.7966Z" fill="#F3F3F3"/>
<path d="M210.283 64.115C211.679 64.115 212.807 65.2755 212.807 66.7044L212.807 82.2504C212.807 83.6825 211.676 84.8398 210.283 84.8398C208.887 84.8398 207.759 83.6794 207.759 82.2504L207.759 66.7044C207.756 65.2724 208.887 64.115 210.283 64.115Z" fill="#F3F3F3"/>
<path d="M218.7 58.9338C220.096 58.9338 221.224 60.0943 221.224 61.5233L221.224 87.4335C221.224 88.8656 220.093 90.0229 218.7 90.0229C217.304 90.0229 216.176 88.8625 216.176 87.4335L216.176 61.5233C216.176 60.0943 217.307 58.9338 218.7 58.9338Z" fill="#F3F3F3"/>
<path d="M227.122 69.2979C228.518 69.2979 229.647 70.4583 229.647 71.8874L229.647 77.0694C229.647 78.5015 228.515 79.6589 227.122 79.6589C225.726 79.6589 224.598 78.4984 224.598 77.0694L224.598 71.8873C224.595 70.4583 225.726 69.2979 227.122 69.2979Z" fill="#F3F3F3"/>
<path d="M235.54 65.8411C236.936 65.8411 238.065 67.0015 238.065 68.4305L238.065 80.5228C238.065 81.9549 236.933 83.1123 235.54 83.1123C234.144 83.1123 233.016 81.9518 233.016 80.5228L233.016 68.4336C233.016 67.0015 234.147 65.8411 235.54 65.8411Z" fill="#F3F3F3"/>
<path d="M243.951 69.2979C245.347 69.2979 246.475 70.4583 246.475 71.8874L246.475 77.0694C246.475 78.5015 245.344 79.6589 243.951 79.6589C242.555 79.6589 241.427 78.4984 241.427 77.0694L241.427 71.8873C241.427 70.4583 242.558 69.2979 243.951 69.2979Z" fill="#F3F3F3"/>
</svg>
