<svg width="336" height="359" viewBox="0 0 336 359" fill="none" xmlns="http://www.w3.org/2000/svg">
<rect x="6.10352e-05" width="335.143" height="358.609" rx="40.7226" fill="url(#paint0_linear_921_692)"/>
<rect opacity="0.2" x="109.286" y="145.685" width="204.911" height="46.4464" rx="13.6804" fill="#29C195"/>
<rect x="108.178" y="41.0517" width="124.709" height="68.0316" rx="34.0158" fill="#29C195"/>
<path d="M185.605 57.5574C184.972 57.5783 184.369 57.896 183.927 58.4478L165.911 80.3543L156.881 71.859C155.815 70.8551 154.282 71.0915 153.456 72.3877C152.63 73.6815 152.825 75.548 153.891 76.552L164.63 86.6427C165.6 87.5563 166.977 87.4543 167.849 86.4016L187.374 62.6586C188.099 61.8053 188.318 60.5 187.927 59.3707C187.534 58.2393 186.612 57.5204 185.605 57.5575L185.605 57.5574Z" fill="white"/>
<path d="M40.6307 177.443C45.6792 177.443 48.8454 174.792 48.8454 170.56V170.545C48.8454 167.261 46.9924 165.424 42.5567 164.46L40.2951 163.962C37.6687 163.39 36.6036 162.426 36.6036 160.89V160.875C36.6036 159.022 38.267 157.892 40.6015 157.892C43.009 157.877 44.5703 159.082 44.8329 160.769L44.8621 160.95H48.4661L48.4515 160.754C48.1888 157.26 45.2852 154.624 40.6161 154.624C36.0637 154.624 32.8245 157.245 32.8245 161.131V161.146C32.8245 164.384 34.6922 166.463 38.9965 167.397L41.2581 167.879C43.972 168.481 45.0664 169.43 45.0664 170.997V171.012C45.0664 172.879 43.2863 174.175 40.7474 174.175C38.0773 174.175 36.195 172.97 36.0199 171.147L36.0054 170.997H32.3576L32.3722 171.208C32.6348 174.958 35.7427 177.443 40.6307 177.443Z" fill="black"/>
<path d="M57.6806 177.233C59.9859 177.233 61.6055 176.163 62.3497 174.401H62.5977V176.901H66.2309V160.438H62.5977V170.033C62.5977 172.503 61.3429 174.069 58.9938 174.069C56.8051 174.069 55.8859 172.774 55.8859 170.228L55.8859 160.438H52.2527L52.2527 171.087C52.2527 175.003 54.0912 177.233 57.6806 177.233Z" fill="black"/>
<path d="M70.3677 176.901H74.0009V167.336C74.0009 164.987 75.5913 163.496 78.0134 163.496C78.6408 163.496 79.2391 163.586 79.8227 163.706V160.347C79.4725 160.242 78.9035 160.167 78.349 160.167C76.2479 160.167 74.7888 161.206 74.2489 162.968H74.0009V160.438H70.3677V176.901Z" fill="black"/>
<path d="M88.9205 177.233C93.254 177.233 95.3843 174.657 95.895 172.533L95.9387 172.397H92.4807L92.4369 172.503C92.0867 173.256 90.9632 174.28 88.9934 174.28C86.5276 174.28 84.9809 172.563 84.9371 169.611H96.0847V168.376C96.0847 163.405 93.2832 160.121 88.7454 160.121C84.2076 160.121 81.304 163.511 81.304 168.692V168.707C81.304 173.949 84.1784 177.233 88.9205 177.233ZM88.7892 163.059C90.8173 163.059 92.291 164.399 92.539 167.095H84.9663C85.2435 164.475 86.761 163.059 88.7892 163.059Z" fill="black"/>
<path d="M98.9375 182.64H101.418L103.957 173.587H100.207L98.9375 182.64Z" fill="black"/>
<path d="M122.648 177.233C126.573 177.233 129.419 175.139 129.419 172.006V171.976C129.419 169.581 127.945 168.21 124.823 167.487L122.24 166.9C120.518 166.493 119.847 165.906 119.847 164.942V164.926C119.847 163.691 121.014 162.878 122.634 162.878C124.341 162.878 125.392 163.721 125.654 164.761L125.669 164.806H129.083V164.776C128.85 162.11 126.53 160.121 122.648 160.121C118.884 160.121 116.258 162.17 116.258 165.137V165.152C116.258 167.577 117.702 169.054 120.737 169.746L123.32 170.349C125.071 170.756 125.771 171.388 125.771 172.352V172.382C125.771 173.618 124.516 174.461 122.707 174.461C120.898 174.461 119.832 173.663 119.453 172.518L119.438 172.488H115.834V172.518C116.141 175.305 118.592 177.233 122.648 177.233Z" fill="black"/>
<path d="M132.928 176.901H136.561V167.306C136.561 164.836 137.904 163.27 140.063 163.27C142.266 163.27 143.273 164.565 143.273 167.126V176.901H146.906V166.252C146.906 162.336 144.966 160.121 141.405 160.121C139.1 160.121 137.568 161.191 136.809 162.953H136.561V154.066H132.928V176.901Z" fill="black"/>
<path d="M157.784 177.233C162.555 177.233 165.459 174.009 165.459 168.677V168.647C165.459 163.345 162.541 160.121 157.784 160.121C153.042 160.121 150.109 163.36 150.109 168.647V168.677C150.109 174.009 152.998 177.233 157.784 177.233ZM157.784 174.19C155.26 174.19 153.815 172.156 153.815 168.692V168.662C153.815 165.198 155.26 163.149 157.784 163.149C160.294 163.149 161.738 165.198 161.738 168.662V168.692C161.738 172.156 160.308 174.19 157.784 174.19Z" fill="black"/>
<path d="M174.09 177.233C176.395 177.233 178.015 176.163 178.759 174.401H179.007V176.901H182.64V160.438H179.007V170.033C179.007 172.503 177.752 174.069 175.403 174.069C173.214 174.069 172.295 172.774 172.295 170.228V160.438H168.662V171.087C168.662 175.003 170.5 177.233 174.09 177.233Z" fill="black"/>
<path d="M186.923 176.901H190.556V154.066H186.923V176.901Z" fill="black"/>
<path d="M200.602 177.172C202.849 177.172 204.571 176.118 205.447 174.325H205.695V176.901H209.342V154.066H205.695V163.059H205.447C204.615 161.281 202.791 160.167 200.602 160.167C196.561 160.167 194.066 163.42 194.066 168.662V168.692C194.066 173.904 196.604 177.172 200.602 177.172ZM201.74 174.009C199.26 174.009 197.757 172.006 197.757 168.692V168.662C197.757 165.348 199.275 163.33 201.74 163.33C204.206 163.33 205.753 165.363 205.753 168.662V168.692C205.753 171.991 204.221 174.009 201.74 174.009Z" fill="black"/>
<path d="M224.313 176.901H228.078L231.171 164.972H231.419L234.527 176.901H238.335L242.654 160.438H239.05L236.409 172.804H236.161L233.068 160.438H229.61L226.546 172.804H226.298L223.642 160.438H219.994L224.313 176.901Z" fill="black"/>
<path d="M251.708 177.233C256.042 177.233 258.172 174.657 258.683 172.533L258.726 172.397H255.268L255.225 172.503C254.874 173.256 253.751 174.28 251.781 174.28C249.315 174.28 247.769 172.563 247.725 169.611H258.872V168.376C258.872 163.405 256.071 160.121 251.533 160.121C246.995 160.121 244.092 163.511 244.092 168.692V168.707C244.092 173.949 246.966 177.233 251.708 177.233ZM251.577 163.059C253.605 163.059 255.079 164.399 255.327 167.095H247.754C248.031 164.475 249.549 163.059 251.577 163.059Z" fill="black"/>
<path d="M276.732 182.685C281.387 182.685 284.334 180.29 284.334 176.494V160.438H280.701V163.149H280.511C279.607 161.281 277.885 160.167 275.682 160.167C271.567 160.167 269.057 163.45 269.057 168.21V168.24C269.057 172.91 271.567 176.133 275.609 176.133C277.812 176.133 279.548 175.169 280.468 173.407H280.716V176.555C280.716 178.663 279.271 179.853 276.791 179.853C274.763 179.853 273.551 179.115 273.303 178.061L273.289 178.016H269.656L269.641 178.061C270.006 180.832 272.53 182.685 276.732 182.685ZM276.732 173.151C274.208 173.151 272.778 171.147 272.778 168.24V168.21C272.778 165.303 274.208 163.285 276.732 163.285C279.242 163.285 280.774 165.303 280.774 168.21V168.24C280.774 171.147 279.257 173.151 276.732 173.151Z" fill="black"/>
<path d="M295.373 177.233C300.144 177.233 303.047 174.009 303.047 168.677V168.647C303.047 163.345 300.129 160.121 295.373 160.121C290.63 160.121 287.698 163.36 287.698 168.647V168.677C287.698 174.009 290.587 177.233 295.373 177.233ZM295.373 174.19C292.848 174.19 291.404 172.156 291.404 168.692V168.662C291.404 165.198 292.848 163.149 295.373 163.149C297.882 163.149 299.327 165.198 299.327 168.662V168.692C299.327 172.156 297.897 174.19 295.373 174.19Z" fill="black"/>
<path d="M78.2142 225.177C78.9145 225.177 79.5857 225.116 80.111 225.011V222.119C79.6733 222.164 79.396 222.179 78.8854 222.179C77.3679 222.179 76.7405 221.486 76.7405 219.845V211.545H80.111V208.638H76.7405L76.7405 204.601H73.049L73.049 208.638H70.5685V211.545H73.049V220.733C73.049 223.911 74.5518 225.177 78.2142 225.177Z" fill="black"/>
<path d="M90.1718 225.433C94.943 225.433 97.8467 222.209 97.8467 216.877V216.847C97.8467 211.545 94.9285 208.322 90.1718 208.322C85.4297 208.322 82.4969 211.56 82.4969 216.847V216.877C82.4969 222.209 85.3859 225.433 90.1718 225.433ZM90.1718 222.39C87.6475 222.39 86.203 220.357 86.203 216.892V216.862C86.203 213.398 87.6475 211.349 90.1718 211.349C92.6814 211.349 94.126 213.398 94.126 216.862V216.892C94.126 220.357 92.696 222.39 90.1718 222.39Z" fill="black"/>
<path d="M115.138 225.177C115.838 225.177 116.509 225.116 117.034 225.011V222.119C116.597 222.164 116.319 222.179 115.809 222.179C114.291 222.179 113.664 221.486 113.664 219.845V211.545H117.034V208.638H113.664V204.601H109.972V208.638H107.492V211.545H109.972V220.733C109.972 223.911 111.475 225.177 115.138 225.177Z" fill="black"/>
<path d="M120.5 225.101H124.133V215.506C124.133 213.036 125.476 211.47 127.635 211.47C129.838 211.47 130.845 212.765 130.845 215.326V225.101H134.478V214.452C134.478 210.536 132.538 208.322 128.977 208.322C126.672 208.322 125.14 209.391 124.381 211.153H124.133V202.267H120.5V225.101Z" fill="black"/>
<path d="M145.298 225.433C149.631 225.433 151.762 222.857 152.272 220.733L152.316 220.598H148.858L148.814 220.703C148.464 221.456 147.34 222.48 145.371 222.48C142.905 222.48 141.358 220.763 141.314 217.811H152.462L152.462 216.576C152.462 211.605 149.66 208.322 145.123 208.322C140.585 208.322 137.681 211.711 137.681 216.892V216.907C137.681 222.149 140.556 225.433 145.298 225.433ZM145.166 211.259C147.195 211.259 148.668 212.599 148.916 215.296H141.344C141.621 212.675 143.138 211.259 145.166 211.259Z" fill="black"/>
<path d="M172.335 225.372C176.333 225.372 178.887 222.104 178.887 216.892V216.862C178.887 211.62 176.377 208.367 172.335 208.367C170.147 208.367 168.323 209.481 167.491 211.259H167.243V202.267H163.61L163.61 225.101H167.243V222.526H167.491C168.367 224.318 170.103 225.372 172.335 225.372ZM171.197 222.209C168.731 222.209 167.199 220.191 167.199 216.892V216.862C167.199 213.563 168.731 211.53 171.197 211.53C173.678 211.53 175.181 213.548 175.181 216.862V216.892C175.181 220.206 173.678 222.209 171.197 222.209Z" fill="black"/>
<path d="M189.05 225.433C193.383 225.433 195.514 222.857 196.024 220.733L196.068 220.598H192.61L192.566 220.703C192.216 221.456 191.092 222.48 189.123 222.48C186.657 222.48 185.11 220.763 185.066 217.811H196.214L196.214 216.576C196.214 211.605 193.412 208.322 188.875 208.322C184.337 208.322 181.433 211.711 181.433 216.892V216.907C181.433 222.149 184.308 225.433 189.05 225.433ZM188.918 211.259C190.947 211.259 192.42 212.599 192.668 215.296H185.096C185.373 212.675 186.89 211.259 188.918 211.259Z" fill="black"/>
<path d="M203.896 225.372C205.997 225.372 207.69 224.439 208.565 222.842H208.814V225.101H212.403L212.403 213.85C212.403 210.37 210.098 208.322 205.997 208.322C202.204 208.322 199.636 210.159 199.286 212.931L199.271 213.066H202.7L202.714 213.006C203.079 211.922 204.159 211.304 205.822 211.304C207.778 211.304 208.814 212.208 208.814 213.85V215.265L204.713 215.522C200.832 215.763 198.658 217.48 198.658 220.417V220.447C198.658 223.444 200.861 225.372 203.896 225.372ZM202.248 220.266V220.236C202.248 218.88 203.196 218.112 205.224 217.977L208.814 217.736V219.061C208.814 221.019 207.194 222.496 205.005 222.496C203.4 222.496 202.248 221.667 202.248 220.266Z" fill="black"/>
<path d="M223.31 225.433C227.352 225.433 229.701 223.188 230.226 219.814L230.255 219.694L226.826 219.709L226.797 219.769C226.345 221.501 225.192 222.39 223.31 222.39C220.844 222.39 219.37 220.342 219.37 216.847V216.817C219.37 213.368 220.83 211.349 223.31 211.349C225.294 211.349 226.476 212.494 226.812 214.091L226.826 214.136H230.255V214.076C229.847 210.671 227.395 208.322 223.295 208.322C218.495 208.322 215.679 211.5 215.679 216.817V216.847C215.679 222.224 218.51 225.433 223.31 225.433Z" fill="black"/>
<path d="M233.56 225.101H237.194L237.194 215.506C237.194 213.036 238.536 211.47 240.695 211.47C242.899 211.47 243.905 212.765 243.905 215.326L243.905 225.101H247.539L247.539 214.452C247.539 210.536 245.598 208.322 242.038 208.322C239.732 208.322 238.2 209.391 237.442 211.153H237.194V202.267H233.56L233.56 225.101Z" fill="black"/>
<path d="M255.017 218.323H258.402L258.402 217.45C258.402 215.943 258.942 215.16 260.853 214.015C262.838 212.795 263.946 211.184 263.946 208.894V208.864C263.946 205.565 261.276 203.185 257.278 203.185C252.945 203.185 250.567 205.776 250.464 209.301V209.331L253.864 209.316L253.893 209.301C253.995 207.448 255.206 206.258 257.089 206.258C258.927 206.258 260.153 207.418 260.153 208.999V209.03C260.153 210.506 259.54 211.319 257.731 212.449C255.717 213.669 254.871 215.024 255.002 217.254L255.017 218.323ZM256.87 225.478C258.358 225.478 259.292 224.544 259.292 223.113C259.292 221.667 258.358 220.733 256.87 220.733C255.411 220.733 254.448 221.667 254.448 223.113C254.448 224.544 255.411 225.478 256.87 225.478Z" fill="black"/>
<rect y="109" width="335" height="240" rx="40" fill="url(#paint1_linear_921_692)"/>
<defs>
<linearGradient id="paint0_linear_921_692" x1="167.572" y1="0" x2="167.572" y2="358.609" gradientUnits="userSpaceOnUse">
<stop offset="0.369792" stop-color="white"/>
<stop offset="1" stop-color="white" stop-opacity="0"/>
</linearGradient>
<linearGradient id="paint1_linear_921_692" x1="167.5" y1="109" x2="167.741" y2="336.168" gradientUnits="userSpaceOnUse">
<stop stop-color="white" stop-opacity="0"/>
<stop offset="0.03125" stop-color="white" stop-opacity="0"/>
<stop offset="0.572917" stop-color="white" stop-opacity="0.49"/>
<stop offset="0.9999" stop-color="white" stop-opacity="0"/>
</linearGradient>
</defs>
</svg>
