<svg width="138" height="42" viewBox="0 0 138 42" fill="none" xmlns="http://www.w3.org/2000/svg">
<rect width="137.351" height="41.7885" rx="7.61264" fill="black"/>
<path d="M28.9024 20.7768C28.8721 17.4947 31.6587 15.8979 31.7862 15.8236C30.208 13.5801 27.7618 13.2736 26.9022 13.2492C24.8478 13.0384 22.8549 14.4478 21.8084 14.4478C20.7409 14.4478 19.1293 13.2695 17.3924 13.3042C15.1572 13.3378 13.0662 14.5995 11.9194 16.5588C9.55259 20.5538 11.3177 26.4246 13.5853 29.6538C14.7196 31.2353 16.045 33.0012 17.7799 32.9391C19.4771 32.8708 20.1111 31.884 22.1593 31.884C24.1887 31.884 24.7841 32.9391 26.5534 32.8993C28.3749 32.8708 29.5218 31.3107 30.6164 29.7149C31.9272 27.9023 32.4536 26.1171 32.4745 26.0254C32.4316 26.0112 28.9369 24.7107 28.9024 20.7768Z" fill="white"/>
<path d="M25.5601 11.1249C26.473 10.0118 27.0976 8.49751 26.9242 6.96082C25.6029 7.01784 23.9506 7.85188 22.9991 8.9405C22.1572 9.89979 21.4052 11.4721 21.5995 12.9508C23.0837 13.0587 24.6075 12.2206 25.5601 11.1249Z" fill="white"/>
<path d="M53.466 32.7132H51.094L49.7947 28.7324H45.2785L44.0408 32.7132H41.7314L46.2059 19.1609H48.9696L53.466 32.7132ZM49.4031 27.0623L48.228 23.5235C48.1037 23.162 47.8708 22.3107 47.5272 20.9705H47.4854C47.3486 21.5469 47.1282 22.3982 46.8253 23.5235L45.6712 27.0623H49.4031Z" fill="white"/>
<path d="M64.9732 27.7061C64.9732 29.3681 64.5126 30.6818 63.5914 31.6462C62.7662 32.5046 61.7416 32.9334 60.5186 32.9334C59.1983 32.9334 58.25 32.471 57.6724 31.5464H57.6306V36.6941H55.4038V26.1572C55.4038 25.1124 55.3756 24.0401 55.3213 22.9402H57.2797L57.404 24.4892H57.4457C58.1884 23.3221 59.3153 22.7396 60.8277 22.7396C62.0101 22.7396 62.9971 23.1948 63.7867 24.1063C64.5784 25.0187 64.9732 26.2183 64.9732 27.7061ZM62.7046 27.7856C62.7046 26.8344 62.4853 26.0503 62.0445 25.4332C61.563 24.7896 60.9165 24.4678 60.106 24.4678C59.5566 24.4678 59.0573 24.647 58.6114 25.0004C58.1643 25.3568 57.8719 25.8222 57.735 26.3986C57.6661 26.6674 57.6316 26.8874 57.6316 27.0605V28.6899C57.6316 29.4007 57.8552 30.0005 58.3022 30.4903C58.7492 30.9802 59.33 31.2246 60.0444 31.2246C60.8831 31.2246 61.5359 30.9089 62.0027 30.2795C62.4707 29.6492 62.7046 28.8182 62.7046 27.7856Z" fill="white"/>
<path d="M76.501 27.7061C76.501 29.3681 76.0404 30.6818 75.1181 31.6462C74.294 32.5046 73.2694 32.9334 72.0463 32.9334C70.7261 32.9334 69.7777 32.471 69.2012 31.5464H69.1594V36.6941H66.9326V26.1572C66.9326 25.1124 66.9044 24.0401 66.8501 22.9402H68.8085L68.9328 24.4892H68.9745C69.7161 23.3221 70.8431 22.7396 72.3565 22.7396C73.5378 22.7396 74.5248 23.1948 75.3166 24.1063C76.1051 25.0187 76.501 26.2183 76.501 27.7061ZM74.2324 27.7856C74.2324 26.8344 74.012 26.0503 73.5712 25.4332C73.0897 24.7896 72.4453 24.4678 71.6338 24.4678C71.0833 24.4678 70.5851 24.647 70.1381 25.0004C69.6911 25.3568 69.3996 25.8222 69.2628 26.3986C69.1949 26.6674 69.1594 26.8874 69.1594 27.0605V28.6899C69.1594 29.4007 69.3829 30.0005 69.8279 30.4903C70.2749 30.9791 70.8556 31.2246 71.5721 31.2246C72.4108 31.2246 73.0636 30.9089 73.5305 30.2795C73.9984 29.6492 74.2324 28.8182 74.2324 27.7856Z" fill="white"/>
<path d="M89.3892 28.9119C89.3892 30.0647 88.9788 31.0026 88.1547 31.7266C87.2491 32.5179 85.9885 32.913 84.3685 32.913C82.8728 32.913 81.6738 32.632 80.7661 32.0688L81.2821 30.2592C82.2597 30.8356 83.3324 31.1248 84.5011 31.1248C85.3398 31.1248 85.9926 30.9394 86.4616 30.5708C86.9285 30.2022 87.1614 29.7072 87.1614 29.0901C87.1614 28.5402 86.9692 28.0768 86.5838 27.7011C86.2005 27.3253 85.5602 26.976 84.6662 26.6532C82.2325 25.7682 81.0168 24.4719 81.0168 22.7671C81.0168 21.6531 81.4429 20.7396 82.2963 20.0288C83.1465 19.317 84.2807 18.9615 85.6991 18.9615C86.964 18.9615 88.0147 19.1764 88.8534 19.6051L88.2967 21.3751C87.5134 20.9596 86.6277 20.7518 85.6365 20.7518C84.8531 20.7518 84.2411 20.9402 83.8024 21.315C83.4316 21.65 83.2457 22.0584 83.2457 22.5421C83.2457 23.0777 83.4577 23.5207 83.8838 23.869C84.2546 24.1908 84.9283 24.5391 85.9059 24.9149C87.1019 25.3843 87.9803 25.9332 88.5453 26.5626C89.1083 27.1899 89.3892 27.975 89.3892 28.9119Z" fill="white"/>
<path d="M96.7523 24.569H94.2978V29.3135C94.2978 30.5203 94.7302 31.1232 95.5971 31.1232C95.9951 31.1232 96.3251 31.0896 96.5862 31.0223L96.6479 32.6711C96.2092 32.8309 95.6316 32.9114 94.9161 32.9114C94.0367 32.9114 93.3494 32.6497 92.8533 32.1273C92.3593 31.6038 92.1107 30.726 92.1107 29.4928V24.567H90.6484V22.9376H92.1107V21.1484L94.2978 20.5048V22.9376H96.7523V24.569Z" fill="white"/>
<path d="M107.827 27.7468C107.827 29.2489 107.386 30.4821 106.507 31.4465C105.584 32.4394 104.36 32.9343 102.834 32.9343C101.364 32.9343 100.193 32.4587 99.3195 31.5076C98.4464 30.5564 98.0098 29.3558 98.0098 27.9087C98.0098 26.3944 98.4589 25.1541 99.3603 24.1897C100.26 23.2243 101.473 22.7416 102.999 22.7416C104.47 22.7416 105.653 23.2171 106.546 24.1693C107.401 25.093 107.827 26.2855 107.827 27.7468ZM105.516 27.8171C105.516 26.9158 105.319 26.1429 104.919 25.4983C104.452 24.7182 103.785 24.3292 102.92 24.3292C102.025 24.3292 101.345 24.7192 100.878 25.4983C100.478 26.1439 100.28 26.9291 100.28 27.8578C100.28 28.759 100.478 29.532 100.878 30.1756C101.359 30.9556 102.032 31.3446 102.9 31.3446C103.75 31.3446 104.418 30.9475 104.899 30.1552C105.31 29.4984 105.516 28.7173 105.516 27.8171Z" fill="white"/>
<path d="M115.064 24.8497C114.844 24.8099 114.609 24.7896 114.363 24.7896C113.579 24.7896 112.973 25.0778 112.547 25.6552C112.177 26.1644 111.991 26.808 111.991 27.585V32.7124H109.765L109.786 26.0177C109.786 24.8914 109.758 23.8659 109.702 22.9413H111.642L111.723 24.811H111.785C112.02 24.1684 112.391 23.6511 112.898 23.2631C113.394 22.9138 113.93 22.7396 114.508 22.7396C114.714 22.7396 114.899 22.7539 115.064 22.7793V24.8497Z" fill="white"/>
<path d="M125.024 27.3646C125.024 27.7536 124.998 28.0815 124.942 28.3494H118.262C118.288 29.3148 118.611 30.0531 119.231 30.5622C119.794 31.0174 120.522 31.2456 121.416 31.2456C122.405 31.2456 123.308 31.0918 124.119 30.7832L124.468 32.2904C123.52 32.6937 122.4 32.8943 121.108 32.8943C119.554 32.8943 118.334 32.4482 117.446 31.5572C116.561 30.6661 116.117 29.4695 116.117 27.9685C116.117 26.4949 116.529 25.2678 117.355 24.2892C118.22 23.2443 119.389 22.7219 120.86 22.7219C122.304 22.7219 123.398 23.2443 124.14 24.2892C124.728 25.1191 125.024 26.1456 125.024 27.3646ZM122.901 26.8015C122.915 26.1579 122.77 25.6018 122.468 25.1324C122.083 24.5285 121.49 24.2271 120.694 24.2271C119.966 24.2271 119.373 24.5214 118.921 25.112C118.55 25.5815 118.33 26.1446 118.262 26.8004H122.901V26.8015Z" fill="white"/>
<path d="M48.8866 6.86873H47.813V15.6214H48.8866V11.0661H50.2309V10.186H48.8866V6.86873ZM42.397 13.484H43.1224C44.6988 13.484 45.8739 13.4453 47.2327 13.2132L47.107 12.3041C45.9078 12.512 44.8294 12.5797 43.4705 12.5846V8.57091H46.488V7.70048H42.397V13.484ZM58.7259 11.1919H50.7373V12.0526H54.2577V13.6581H55.3506V12.0526H58.7259V11.1919ZM51.5884 8.85138C51.5836 9.95393 52.8408 10.6358 54.7219 10.6309C56.6127 10.6358 57.8555 9.95393 57.8555 8.85138C57.8555 7.75367 56.6127 7.06216 54.7219 7.06216C52.8408 7.06216 51.5836 7.75367 51.5884 8.85138ZM51.7141 15.4377H57.8458V14.5575H52.7973V12.8457H51.7141V15.4377ZM52.749 8.85138C52.7393 8.25175 53.5227 7.91325 54.7219 7.91325C55.9309 7.91325 56.7094 8.25175 56.7046 8.85138C56.7094 9.43167 55.9309 9.77017 54.7219 9.77017C53.5227 9.77017 52.7393 9.43167 52.749 8.85138ZM67.4434 13.7065H63.9617V12.2848H66.6987V11.4046H61.4761V10.2731H66.4956V7.46836H60.3832V8.33879H65.4317V9.422H60.4026V12.2848H62.8978V13.7065H59.4548V14.5962H67.4434V13.7065ZM75.2614 10.9694H70.1936V8.50321H75.1937V7.63278H69.1297V11.8302H75.2614V10.9694ZM68.1626 14.4995H76.1512V13.6097H68.1626V14.4995ZM83.7178 6.86873H82.6539V15.6117H83.7178V11.2402H85.0621V10.3505H83.7178V6.86873ZM76.822 9.07382H81.9769V8.21306H79.9653V6.99446H78.8917V8.21306H76.822V9.07382ZM77.2282 11.7045C77.2186 12.9086 78.1567 13.7548 79.4333 13.7548C80.6906 13.7548 81.6239 12.9086 81.6287 11.7045C81.6239 10.4955 80.6906 9.63961 79.4333 9.64444C78.1567 9.63961 77.2186 10.4955 77.2282 11.7045ZM78.2534 11.7045C78.2486 10.9936 78.7466 10.5245 79.4333 10.5245C80.1055 10.5245 80.5939 10.9936 80.6036 11.7045C80.5939 12.4153 80.1055 12.8699 79.4333 12.865C78.7466 12.8699 78.2486 12.4153 78.2534 11.7045ZM92.8801 6.86873H91.7969V15.6117H92.8801V6.86873ZM85.6362 13.2035L86.1972 14.0643C89.2582 12.6087 90.2688 10.3988 90.2688 7.79719H86.0811V8.64828H89.176C88.9825 10.6358 87.9284 12.1155 85.6362 13.2035Z" fill="white"/>
</svg>
