<svg width="277" height="92" viewBox="0 0 277 92" fill="none" xmlns="http://www.w3.org/2000/svg">
<path d="M74.917 63H81.999V61.3047H77.7744V61.25L79.2783 59.7871C81.3154 57.9414 81.8623 57.0186 81.8623 55.8906C81.8623 54.1748 80.4541 52.9648 78.335 52.9648C76.25 52.9648 74.8145 54.2021 74.8213 56.1367H76.7764C76.7695 55.1865 77.3779 54.5986 78.3076 54.6055C79.2168 54.5986 79.8799 55.1455 79.8799 56.0273C79.8799 56.8135 79.3809 57.3604 78.458 58.2422L74.9033 61.5098L74.917 63ZM87.3037 63.1367C89.7783 63.1367 91.2822 61.3047 91.2822 58.0508C91.2822 54.8174 89.7715 52.9648 87.3037 52.9648C84.8359 52.9648 83.3252 54.8174 83.3252 58.0508C83.3252 61.291 84.8223 63.1367 87.3037 63.1367ZM85.4307 58.0508C85.4307 55.7881 86.1621 54.6533 87.3037 54.6465C88.4453 54.6533 89.1836 55.7881 89.1768 58.0508C89.1836 60.334 88.4521 61.4414 87.3037 61.4414C86.1553 61.4414 85.417 60.334 85.4307 58.0508ZM92.7041 63H99.7861V61.3047H95.5615V61.25L97.0654 59.7871C99.1025 57.9414 99.6494 57.0186 99.6494 55.8906C99.6494 54.1748 98.2412 52.9648 96.1221 52.9648C94.0371 52.9648 92.6016 54.2021 92.6084 56.1367H94.5635C94.5566 55.1865 95.165 54.5986 96.0947 54.6055C97.0039 54.5986 97.667 55.1455 97.667 56.0273C97.667 56.8135 97.168 57.3604 96.2451 58.2422L92.6904 61.5098L92.7041 63ZM105.091 63.1367C107.565 63.1367 109.069 61.3047 109.069 58.0508C109.069 54.8174 107.559 52.9648 105.091 52.9648C102.623 52.9648 101.112 54.8174 101.112 58.0508C101.112 61.291 102.609 63.1367 105.091 63.1367ZM103.218 58.0508C103.218 55.7881 103.949 54.6533 105.091 54.6465C106.232 54.6533 106.971 55.7881 106.964 58.0508C106.971 60.334 106.239 61.4414 105.091 61.4414C103.942 61.4414 103.204 60.334 103.218 58.0508ZM123.329 52.541H114.606V53.9355H121.593C121.586 55.0088 121.559 56.2324 121.237 57.832H113.308V59.2402H118.052V64.2715H119.802V59.2402H124.655V57.832H123.008C123.322 56.0889 123.322 54.8242 123.329 53.6621V52.541ZM135.442 52.3223H126.802V53.7031H133.699C133.686 54.3936 133.645 55.207 133.446 56.2188H125.407V57.5859H136.796V56.2188H135.203C135.449 54.9678 135.449 53.9697 135.442 53.1699V52.3223ZM126.692 59.8145H133.665V60.6348H126.706V64.1621H135.729V62.8223H128.442V61.9473H135.388V58.4609H126.692V59.8145ZM147.843 52.1582H138.505V53.457H140.118V55.0977H138.587V56.3965H147.761V55.0977H146.216V53.457H147.843V52.1582ZM137.507 58.4199H148.854V57.0527H137.507V58.4199ZM138.819 60.3887H145.751V61.0176H138.833V64.1758H147.802V62.8906H140.542V62.207H147.474V59.1309H138.819V60.3887ZM141.868 55.0977V53.457H144.466V55.0977H141.868ZM154.364 53.0605H149.948V54.4414H152.683V56.3965H149.962V61.3457H150.837C152.402 61.332 153.797 61.3047 155.431 61.0039L155.28 59.582C153.988 59.8213 152.847 59.8828 151.63 59.8965V57.7773H154.364V53.0605ZM154.884 57.4766H156.155V63.6562H157.782V52.0488H156.155V56.0684H154.884V57.4766ZM158.712 64.2578H160.366V51.8164H158.712V64.2578ZM172.124 51.8164H170.36V64.2852H172.124V51.8164ZM162.075 57.1211C162.068 59.8555 163.456 61.5645 165.37 61.5645C167.243 61.5645 168.638 59.8555 168.638 57.1211C168.638 54.4072 167.243 52.6914 165.37 52.6914C163.456 52.6914 162.068 54.4072 162.075 57.1211ZM163.757 57.1211C163.75 55.2754 164.399 54.2637 165.37 54.2637C166.313 54.2637 166.949 55.2754 166.956 57.1211C166.949 58.9736 166.313 59.9854 165.37 59.9785C164.399 59.9854 163.75 58.9736 163.757 57.1211ZM181.694 53.9492V52.582H179.931V53.9355C179.924 55.7197 179.028 57.4219 176.95 58.1055L177.894 59.4727C179.336 58.9531 180.307 57.9346 180.84 56.6289C181.366 57.7842 182.275 58.7002 183.595 59.1855L184.538 57.8184C182.556 57.1553 181.694 55.5557 181.694 53.9492ZM179.233 64.0391H187.778V62.6445H180.997V60.0469H179.233V64.0391ZM183.444 55.877H185.782V61.0176H187.519V51.8301H185.782V54.4688H183.444V55.877ZM199.618 51.8164H197.882V54.8516H195.94V56.2598H197.882V59.1992H199.618V51.8164ZM189.05 57.832L189.952 59.2129C191.429 58.707 192.427 57.6885 192.974 56.4238C193.514 57.5381 194.464 58.4404 195.831 58.8848L196.692 57.5176C194.758 56.875 193.869 55.4121 193.835 53.9629H196.31V52.5684H189.556V53.9629H192.058C192.017 55.5215 191.087 57.1484 189.05 57.832ZM191.087 61.8789C191.087 63.3896 192.714 64.2715 195.366 64.2715C198.025 64.2715 199.652 63.3896 199.659 61.8789C199.652 60.3682 198.025 59.4795 195.366 59.4727C192.714 59.4795 191.087 60.3682 191.087 61.8789ZM192.823 61.8789C192.823 61.1611 193.719 60.8057 195.366 60.8125C197.021 60.8057 197.916 61.1611 197.923 61.8789C197.916 62.5898 197.021 62.9453 195.366 62.9453C193.719 62.9453 192.823 62.5898 192.823 61.8789Z" fill="black"/>
<path d="M64.4206 81.83H71.2716V79.191H63.3416V79.997H70.2186V81.037H63.3806V83.832H71.6226V83H64.4206V81.83ZM64.3426 74.459C64.3426 73.679 65.4346 73.237 67.3456 73.237C69.2566 73.237 70.3486 73.679 70.3486 74.459C70.3486 75.239 69.2566 75.681 67.3456 75.681C65.4346 75.681 64.3426 75.239 64.3426 74.459ZM67.8786 77.358V76.474C70.1146 76.383 71.4406 75.681 71.4406 74.459C71.4406 73.146 69.9196 72.431 67.3456 72.431C64.7846 72.431 63.2506 73.146 63.2506 74.459C63.2506 75.668 64.5636 76.383 66.8126 76.474V77.358H62.0806V78.216H72.6106V77.358H67.8786ZM76.9256 80.374C76.0156 80.374 75.3786 79.633 75.3786 78.593C75.3786 77.579 76.0156 76.838 76.9256 76.838C77.8226 76.838 78.4726 77.579 78.4726 78.593C78.4726 79.633 77.8226 80.374 76.9256 80.374ZM76.9256 75.941C75.4826 75.941 74.4296 77.033 74.4296 78.593C74.4296 80.179 75.4826 81.258 76.9256 81.258C78.3686 81.258 79.4216 80.179 79.4216 78.593C79.4216 77.033 78.3686 75.941 76.9256 75.941ZM77.4456 72.639H76.3926V74.29H74.0266V75.161H79.8116V74.29H77.4456V72.639ZM82.8926 72.288V77.215H81.3976V72.561H80.3966V83.39H81.3976V78.086H82.8926V83.949H83.9196V72.288H82.8926ZM94.1626 74.342H87.3506V76.838H95.4236V76.071H88.4036V75.07H95.2156V72.639H87.3246V73.393H94.1626V74.342ZM88.3386 81.96H95.2546V79.477H87.2596V80.244H94.2016V81.219H87.2856V83.806H95.6186V83.039H88.3386V81.96ZM85.9986 77.722V78.528H96.5676V77.722H85.9986ZM111.169 72.314H110.103V79.061H111.169V72.314ZM106.632 77.15H103.278V75.408H106.632V77.15ZM107.685 72.795H106.632V74.576H103.278V72.795H102.225V78.008H107.685V72.795ZM111.442 80.725V79.893H108.01V78.762H106.944V79.893H103.525V80.725H106.931C106.879 81.856 105.046 82.935 103.07 83.156L103.434 83.962C105.189 83.728 106.788 82.935 107.49 81.83C108.179 82.909 109.726 83.715 111.481 83.949L111.858 83.156C109.882 82.909 108.101 81.817 108.036 80.725H111.442ZM120.801 76.578H122.387V80.972H123.414V72.314H122.387V75.707H120.801V72.522H119.787V80.595H120.801V76.578ZM118.955 77.345C117.59 77.605 116.42 77.683 115.211 77.696V73.302H114.145V78.58H114.886C116.264 78.58 117.538 78.515 119.059 78.216L118.955 77.345ZM116.849 82.727V79.776H115.783V83.598H123.752V82.727H116.849ZM133.114 74.381H135.701V73.497H129.396V74.381H132.061V75.863C132.061 77.839 130.657 80.049 128.993 80.881L129.617 81.726C130.93 81.05 132.061 79.568 132.594 77.865C133.127 79.425 134.219 80.79 135.519 81.44L136.13 80.582C134.44 79.789 133.114 77.722 133.114 75.863V74.381ZM140.082 77.007H138.158V72.314H137.092V83.962H138.158V77.904H140.082V77.007ZM141.836 73.562V74.42H146.217C145.996 77.189 144.436 79.425 141.303 80.92L141.875 81.791C145.749 79.893 147.296 76.929 147.296 73.562H141.836ZM149.649 72.301V83.962H150.715V72.301H149.649ZM159.658 75.551H157.929C158.033 74.966 158.085 74.381 158.085 73.783H153.613V74.654H157.032C156.85 77.098 155.602 79.191 153.093 80.686L153.717 81.44C155.927 80.127 157.188 78.372 157.734 76.409H159.658V78.463H157.552V79.334H159.658V83.364H160.672V72.613H159.658V75.551ZM161.998 72.301V83.949H163.012V72.301H161.998ZM169.901 77.02H166.599V75.278H169.901V77.02ZM170.941 72.782H169.901V74.459H166.599V72.782H165.546V77.878H170.941V72.782ZM167.782 81.713H174.113V78.879H166.703V79.724H173.06V80.92H166.742V83.832H174.542V82.987H167.782V81.713ZM174.113 74.81V72.314H173.047V78.333H174.113V75.694H175.842V74.81H174.113ZM181.759 75.577C181.759 74.537 182.474 73.809 183.449 73.809C184.411 73.809 185.126 74.537 185.126 75.577C185.126 76.617 184.411 77.358 183.449 77.358C182.474 77.358 181.759 76.617 181.759 75.577ZM186.101 75.577C186.101 74.017 184.983 72.951 183.449 72.951C181.902 72.951 180.797 74.017 180.797 75.577C180.797 77.15 181.902 78.229 183.449 78.229C184.983 78.229 186.101 77.15 186.101 75.577ZM189.468 82.935H183.93V81.427H189.468V82.935ZM189.468 80.582H183.93V79.178H182.864V83.806H190.521V79.178H189.468V80.582ZM189.494 72.314V74.979H188.012V72.535H186.998V78.58H188.012V75.863H189.494V78.671H190.521V72.314H189.494ZM199.909 73.5455H198.764L196.4 75.1151V76.2784L198.709 74.7457H198.764V83H199.909V73.5455ZM206.16 73.731C207.291 73.731 208.097 74.342 208.097 75.252C208.097 76.162 207.291 76.773 206.16 76.773C205.016 76.773 204.21 76.162 204.21 75.252C204.21 74.342 205.016 73.731 206.16 73.731ZM206.16 77.644C207.889 77.644 209.124 76.669 209.124 75.252C209.124 73.822 207.889 72.847 206.16 72.847C204.418 72.847 203.183 73.822 203.183 75.252C203.183 76.669 204.418 77.644 206.16 77.644ZM209.995 78.216C207.434 78.606 204.483 78.632 202.312 78.632L202.455 79.529C203.417 79.529 204.522 79.516 205.679 79.464V83.598H206.745V79.399C207.85 79.334 208.981 79.204 210.086 79.009L209.995 78.216ZM210.84 72.314V83.975H211.906V72.314H210.84Z" fill="black"/>
<path d="M140.258 15.7173L145.646 10.2073L128.582 0.575575C127.915 0.196198 127.163 -0.00195476 126.4 1.45364e-05C125.636 0.00198383 124.885 0.204009 124.22 0.586824L140.258 15.7173ZM122.616 2.13474C122.224 2.78946 122 3.53867 122 4.33288V31.66C122 32.4294 122.205 33.1629 122.574 33.8041L138.702 17.3102L122.616 2.13474ZM152.789 14.2391L147.65 11.339L141.875 17.2427L148.952 23.9181L152.791 21.7515C154.173 20.9685 155 19.5646 155 17.9942C154.999 17.2222 154.792 16.465 154.403 15.8036C154.013 15.1422 153.456 14.6015 152.789 14.2391ZM140.319 18.8356L124.147 35.3745C124.83 35.7795 125.604 35.9951 126.393 36C127.141 36 127.894 35.8065 128.582 35.4173L146.924 25.0656L140.319 18.8356Z" fill="black"/>
<path d="M18.1311 28.552C20.5342 24.2336 26.6419 23.0285 33.1501 25.2379C32.5493 28.2507 30.0462 29.0541 27.8434 29.958C24.339 31.4644 20.2338 31.2635 18.1311 28.552Z" fill="black"/>
<path d="M11.6233 40.7035C14.3267 35.4813 22.9376 32.7698 26.3419 35.883C24.5396 40.9043 15.0276 44.118 11.6233 40.7035Z" fill="black"/>
<path d="M23.4403 56.8723C25.4428 61.3915 20.837 68.1201 14.5291 69.6265C14.3288 68.9235 13.9283 68.2205 14.0284 67.618C14.6292 63.4 17.3326 58.1779 23.4403 56.8723Z" fill="black"/>
<path d="M23.9405 18.911C23.54 13.3875 29.848 7.96448 34.9544 9.1696C35.0545 14.6931 28.4462 20.6182 23.9405 18.911Z" fill="black"/>
<path d="M0.410465 59.3829C6.81854 60.2868 11.124 64.5047 11.124 69.8273C7.31917 70.4299 4.51564 68.6222 2.11261 65.9107C0.610717 64.103 -0.690924 62.0945 0.410465 59.3829Z" fill="black"/>
<path d="M22.6373 80.8743C17.9314 83.8871 9.02017 80.4726 8.01891 75.9534C12.2242 72.9406 19.3332 75.2504 22.6373 80.8743Z" fill="black"/>
<path d="M25.6414 78.9661C22.2371 74.949 23.8391 67.3166 28.6452 64.6051C31.3486 67.3166 30.7478 70.6307 29.9468 73.7439C29.2459 76.0537 28.6452 78.464 25.6414 78.9661Z" fill="black"/>
<path d="M36.6547 71.7354C40.6598 75.4511 41.1604 83.5857 37.656 86.7994C33.0502 84.59 32.2492 75.2503 36.6547 71.7354Z" fill="black"/>
<path d="M5.71646 24.5349C10.923 27.9494 12.2247 35.5818 8.41987 38.8959C3.81406 37.3895 2.01179 28.1503 5.71646 24.5349Z" fill="black"/>
<path d="M11.6233 55.1649C12.925 49.541 18.3318 45.3231 23.238 46.0261C24.5396 51.0474 17.4306 56.7718 11.6233 55.1649Z" fill="black"/>
<path d="M0.409752 42.5113C5.01556 42.0091 9.42111 48.6373 8.41985 54.2612C3.31341 55.2654 -1.09214 48.9386 0.409752 42.5113Z" fill="black"/>
<path d="M35.1529 89.3101C31.3481 93.3272 23.0376 92.7246 19.5332 88.3059C21.9362 84.7909 31.0477 85.2931 35.1529 89.3101Z" fill="black"/>
<path d="M15.2283 26.443C10.7226 23.631 10.4222 14.1909 14.6275 11.8811C18.8328 15.5969 19.2333 23.1289 15.2283 26.443Z" fill="black"/>
<path d="M258.869 28.552C256.466 24.2336 250.359 23.0285 243.851 25.2379C244.451 28.2507 246.954 29.0541 249.157 29.958C252.661 31.4644 256.767 31.2635 258.869 28.552Z" fill="black"/>
<path d="M265.377 40.7036C262.674 35.4814 254.063 32.7699 250.659 35.8831C252.461 40.9045 261.973 44.1181 265.377 40.7036Z" fill="black"/>
<path d="M253.561 56.8723C251.558 61.3915 256.164 68.1201 262.472 69.6265C262.672 68.9235 263.073 68.2205 262.972 67.618C262.372 63.4 259.668 58.1779 253.561 56.8723Z" fill="black"/>
<path d="M253.06 18.911C253.46 13.3875 247.152 7.96448 242.046 9.1696C241.946 14.6931 248.554 20.6182 253.06 18.911Z" fill="black"/>
<path d="M276.59 59.3829C270.182 60.2868 265.876 64.5047 265.876 69.8273C269.681 70.4299 272.484 68.6222 274.887 65.9107C276.389 64.103 277.691 62.0945 276.59 59.3829Z" fill="black"/>
<path d="M254.362 80.8743C259.068 83.8871 267.979 80.4726 268.98 75.9534C264.775 72.9406 257.666 75.2504 254.362 80.8743Z" fill="black"/>
<path d="M251.359 78.9661C254.764 74.949 253.162 67.3166 248.356 64.6051C245.652 67.3166 246.253 70.6307 247.054 73.7439C247.755 76.0537 248.356 78.464 251.359 78.9661Z" fill="black"/>
<path d="M240.346 71.7354C236.341 75.4511 235.84 83.5857 239.344 86.7994C243.95 84.59 244.751 75.2503 240.346 71.7354Z" fill="black"/>
<path d="M271.284 24.5349C266.078 27.9494 264.776 35.5818 268.581 38.8959C273.186 37.3895 274.989 28.1503 271.284 24.5349Z" fill="black"/>
<path d="M265.377 55.1651C264.075 49.5412 258.669 45.3233 253.763 46.0262C252.461 51.0476 259.57 56.7719 265.377 55.1651Z" fill="black"/>
<path d="M276.591 42.5113C271.985 42.0091 267.579 48.6373 268.581 54.2612C273.687 55.2654 278.092 48.9386 276.591 42.5113Z" fill="black"/>
<path d="M241.847 89.3101C245.652 93.3272 253.962 92.7246 257.467 88.3059C255.064 84.7909 245.953 85.2931 241.847 89.3101Z" fill="black"/>
<path d="M261.772 26.443C266.278 23.631 266.578 14.1909 262.373 11.8811C258.168 15.5969 257.767 23.1289 261.772 26.443Z" fill="black"/>
</svg>
