<svg width="277" height="101" viewBox="0 0 277 101" fill="none" xmlns="http://www.w3.org/2000/svg">
<path d="M72.8672 89.7305H68.1318V86.9629H67.1543V89.7305H62.5332V90.5557H72.8672V89.7305ZM62.9395 86.2646L63.3838 87.0898C65.1104 86.7344 66.9067 85.5664 67.6494 83.9478C68.3794 85.5728 70.1948 86.7344 71.915 87.0898L72.3594 86.2646C70.3916 85.9282 68.1636 84.2651 68.1572 82.3799V81.5166H67.1162V82.3799C67.1099 84.2778 64.9136 85.9282 62.9395 86.2646ZM83.0742 80.7422H82.0713V92.0537H83.0742V80.7422ZM74.4287 89.3242H79.7607V81.707H78.7832V84.6904H75.4189V81.707H74.4287V89.3242ZM75.4189 88.4863V85.4902H78.7832V88.4863H75.4189ZM88.8252 84.208V82.7354H91.3643V81.9102H85.2197V82.7354H87.8477V84.208C87.835 86.1313 86.4385 88.2769 84.8135 89.0703L85.4229 89.8574C86.686 89.21 87.8159 87.75 88.3364 86.0933C88.8442 87.623 89.917 88.9561 91.1865 89.5781L91.7578 88.791C90.1201 88.0103 88.8125 86.0171 88.8252 84.208ZM92.748 92.0283H93.7383V86.1631H95.6299V85.3125H93.7383V80.7422H92.748V92.0283ZM104.974 80.7422H103.983V92.0283H104.974V86.1758H106.802V85.3379H104.974V80.7422ZM96.3154 89.0957L96.874 89.8828C100.549 88.0674 102.047 85.1538 102.054 81.9609H96.8359V82.7988H101.044C100.816 85.4712 99.229 87.6484 96.3154 89.0957ZM114.597 82.875V81.4404H113.619V82.8369C113.613 84.5698 112.445 86.1504 110.75 86.7725L111.283 87.585C112.616 87.0518 113.645 85.9727 114.121 84.6079C114.603 85.8394 115.593 86.8169 116.831 87.3057L117.39 86.5312C115.739 85.9346 114.597 84.4492 114.597 82.875ZM112.794 91.7871H120.348V90.9492H113.797V88.2451H112.794V91.7871ZM116.577 84.2461H119.091V89.21H120.094V80.7549H119.091V83.4082H116.577V84.2461ZM126.86 81.5674H122.48V87.001H123.191C125.026 86.9946 126.092 86.9438 127.419 86.6836L127.317 85.8584C126.105 86.0933 125.077 86.1567 123.433 86.1631V84.6016H126.733V83.8145H123.433V82.4053H126.86V81.5674ZM123.953 88.9941H130.58V92.0283H131.558V88.1816H123.953V88.9941ZM128.092 87.5215H129.019V84.5127H130.605V87.5977H131.558V80.7549H130.605V83.7002H129.019V80.9707H128.092V87.5215ZM142.031 80.7549H141.041V89.21H142.031V85.3125H143.732V84.4746H142.031V80.7549ZM133.233 82.9512H139.962V82.1387H137.093V80.7549H136.103V82.1387H133.233V82.9512ZM133.881 85.6807C133.875 86.9502 134.966 87.769 136.598 87.7627C138.21 87.769 139.302 86.9502 139.314 85.6807C139.302 84.3984 138.21 83.5732 136.598 83.5732C134.966 83.5732 133.875 84.3984 133.881 85.6807ZM134.833 85.6807C134.827 84.8745 135.531 84.354 136.598 84.3604C137.651 84.354 138.362 84.8745 138.375 85.6807C138.362 86.4741 137.651 86.9883 136.598 86.9756C135.531 86.9883 134.827 86.4741 134.833 85.6807ZM134.973 91.7871H142.552V90.9492H135.95V88.5371H134.973V91.7871ZM151.984 86.6963H151.007V88.8164C149.833 88.8545 148.715 88.8608 147.77 88.8672L147.909 89.6924C149.94 89.6987 152.714 89.6797 155.298 89.21L155.222 88.4736C154.181 88.6323 153.076 88.7212 151.984 88.7783V86.6963ZM148.112 86.3027L148.595 87.0645C149.953 86.6519 151.007 85.7505 151.496 84.5444C152.003 85.687 153.07 86.5566 154.422 86.9629L154.892 86.1758C153.222 85.6997 152.016 84.5063 151.984 83.0527H154.638V82.2275H151.984V80.8311H151.007V82.2275H148.392V83.0527H150.981C150.956 84.5698 149.782 85.8076 148.112 86.3027ZM155.971 92.0537H156.961V80.7422H155.971V92.0537ZM167.993 81.8848H160.033V82.71H166.99V83.0146C166.984 84.3667 166.984 85.9473 166.559 88.1055L167.574 88.2197C167.98 85.9473 167.98 84.3984 167.993 83.0146V81.8848ZM158.941 90.4287H169.225V89.6035H163.956V85.5664H162.979V89.6035H158.941V90.4287ZM173.871 81.5674C172.087 81.5737 170.818 82.6528 170.824 84.2207C170.818 85.7949 172.087 86.8677 173.871 86.874C175.642 86.8677 176.899 85.7949 176.905 84.2207C176.899 82.6528 175.642 81.5737 173.871 81.5674ZM170.24 88.7148L170.38 89.5654C172.411 89.5654 175.185 89.5527 177.769 89.0703L177.692 88.334C175.198 88.7021 172.322 88.7212 170.24 88.7148ZM171.802 84.2207C171.795 83.1733 172.665 82.4434 173.871 82.4434C175.064 82.4434 175.934 83.1733 175.928 84.2207C175.934 85.2744 175.064 85.998 173.871 85.998C172.665 85.998 171.795 85.2744 171.802 84.2207ZM178.441 92.0537H179.432V80.7422H178.441V92.0537ZM195.009 89.6924H184.675V90.5303H195.009V89.6924ZM185.894 87.4326H193.739V81.5547H192.762V83.6621H186.896V81.5547H185.894V87.4326ZM186.896 86.6328V84.4619H192.762V86.6328H186.896ZM205.495 80.7549H204.543V84.1318H202.956V80.9707H202.029V88.8291H202.956V84.9697H204.543V89.1592H205.495V80.7549ZM196.405 82.5322H199.731V84.1572H196.431V87.458H197.167C198.805 87.4644 200.004 87.4009 201.471 87.1152L201.356 86.3154C200.023 86.582 198.881 86.6455 197.396 86.6582V84.9443H200.684V81.7197H196.405V82.5322ZM198.094 91.7871H205.838V90.9492H199.084V88.3848H198.094V91.7871ZM216.261 86.1758H209.456V82.6211H216.146V81.7959H208.466V87.001H216.261V86.1758ZM207.146 90.4922H217.479V89.6543H207.146V90.4922Z" fill="black"/>
<path d="M83.9668 72H91.0488V70.3047H86.8242V70.25L88.3281 68.7871C90.3652 66.9414 90.9121 66.0186 90.9121 64.8906C90.9121 63.1748 89.5039 61.9648 87.3848 61.9648C85.2998 61.9648 83.8643 63.2021 83.8711 65.1367H85.8262C85.8193 64.1865 86.4277 63.5986 87.3574 63.6055C88.2666 63.5986 88.9297 64.1455 88.9297 65.0273C88.9297 65.8135 88.4307 66.3604 87.5078 67.2422L83.9531 70.5098L83.9668 72ZM96.3535 72.1367C98.8281 72.1367 100.332 70.3047 100.332 67.0508C100.332 63.8174 98.8213 61.9648 96.3535 61.9648C93.8857 61.9648 92.375 63.8174 92.375 67.0508C92.375 70.291 93.8721 72.1367 96.3535 72.1367ZM94.4805 67.0508C94.4805 64.7881 95.2119 63.6533 96.3535 63.6465C97.4951 63.6533 98.2334 64.7881 98.2266 67.0508C98.2334 69.334 97.502 70.4414 96.3535 70.4414C95.2051 70.4414 94.4668 69.334 94.4805 67.0508ZM101.754 72H108.836V70.3047H104.611V70.25L106.115 68.7871C108.152 66.9414 108.699 66.0186 108.699 64.8906C108.699 63.1748 107.291 61.9648 105.172 61.9648C103.087 61.9648 101.651 63.2021 101.658 65.1367H103.613C103.606 64.1865 104.215 63.5986 105.145 63.6055C106.054 63.5986 106.717 64.1455 106.717 65.0273C106.717 65.8135 106.218 66.3604 105.295 67.2422L101.74 70.5098L101.754 72ZM114.141 72.1367C116.615 72.1367 118.119 70.3047 118.119 67.0508C118.119 63.8174 116.608 61.9648 114.141 61.9648C111.673 61.9648 110.162 63.8174 110.162 67.0508C110.162 70.291 111.659 72.1367 114.141 72.1367ZM112.268 67.0508C112.268 64.7881 112.999 63.6533 114.141 63.6465C115.282 63.6533 116.021 64.7881 116.014 67.0508C116.021 69.334 115.289 70.4414 114.141 70.4414C112.992 70.4414 112.254 69.334 112.268 67.0508ZM133.746 70.4004H128.92V67.625H127.17V70.4004H122.357V71.8086H133.746V70.4004ZM122.822 66.791L123.506 68.1719C125.652 67.7822 127.252 66.6816 128.038 65.1846C128.845 66.6611 130.458 67.7207 132.639 68.1035L133.322 66.7227C130.656 66.333 129.098 64.8086 128.961 63.168H132.748V61.7598H123.301V63.168H127.102C126.951 64.8154 125.406 66.374 122.822 66.791ZM139.119 62.9492V61.582H137.355V62.9355C137.349 64.7197 136.453 66.4219 134.375 67.1055L135.318 68.4727C136.761 67.9531 137.731 66.9346 138.265 65.6289C138.791 66.7842 139.7 67.7002 141.02 68.1855L141.963 66.8184C139.98 66.1553 139.119 64.5557 139.119 62.9492ZM136.658 73.0391H145.203V71.6445H138.422V69.0469H136.658V73.0391ZM140.869 64.877H143.207V70.0176H144.943V60.8301H143.207V63.4688H140.869V64.877ZM150.098 61.1855C148.177 61.1787 146.748 62.3682 146.748 64.0293C146.748 65.6768 148.177 66.8525 150.098 66.8594C151.991 66.8525 153.413 65.6768 153.42 64.0293C153.413 62.3682 151.991 61.1787 150.098 61.1855ZM148.443 64.0293C148.43 63.1338 149.141 62.6074 150.098 62.6074C151.041 62.6074 151.731 63.1338 151.738 64.0293C151.731 64.918 151.041 65.4443 150.098 65.4512C149.134 65.4443 148.43 64.918 148.443 64.0293ZM148.621 68.9102H155.238V69.6758H148.648V73.1211H157.316V71.7539H150.357V70.9473H156.975V67.5703H148.621V68.9102ZM155.225 67.0508H156.975V60.8164H155.225V67.0508ZM170.045 70.3867H165.191V68.0898H168.773V61.6094H167.037V63.5371H161.609V61.6094H159.859V68.0898H163.455V70.3867H158.656V71.8086H170.045V70.3867ZM161.609 66.6953V64.9316H167.037V66.6953H161.609ZM178.645 62.9492V61.582H176.881V62.9355C176.874 64.7197 175.979 66.4219 173.9 67.1055L174.844 68.4727C176.286 67.9531 177.257 66.9346 177.79 65.6289C178.316 66.7842 179.226 67.7002 180.545 68.1855L181.488 66.8184C179.506 66.1553 178.645 64.5557 178.645 62.9492ZM176.184 73.0391H184.729V71.6445H177.947V69.0469H176.184V73.0391ZM180.395 64.877H182.732V70.0176H184.469V60.8301H182.732V63.4688H180.395V64.877ZM196.568 60.8164H194.832V63.8516H192.891V65.2598H194.832V68.1992H196.568V60.8164ZM186 66.832L186.902 68.2129C188.379 67.707 189.377 66.6885 189.924 65.4238C190.464 66.5381 191.414 67.4404 192.781 67.8848L193.643 66.5176C191.708 65.875 190.819 64.4121 190.785 62.9629H193.26V61.5684H186.506V62.9629H189.008C188.967 64.5215 188.037 66.1484 186 66.832ZM188.037 70.8789C188.037 72.3896 189.664 73.2715 192.316 73.2715C194.976 73.2715 196.603 72.3896 196.609 70.8789C196.603 69.3682 194.976 68.4795 192.316 68.4727C189.664 68.4795 188.037 69.3682 188.037 70.8789ZM189.773 70.8789C189.773 70.1611 190.669 69.8057 192.316 69.8125C193.971 69.8057 194.866 70.1611 194.873 70.8789C194.866 71.5898 193.971 71.9453 192.316 71.9453C190.669 71.9453 189.773 71.5898 189.773 70.8789Z" fill="black"/>
<path d="M189.675 24.2359L160.706 48.642C155.269 43.0536 147.724 39.8705 139.841 39.8705C131.961 39.8705 124.412 43.0574 118.979 48.642L90.0104 24.2359C102.708 10.2896 120.809 2.31482 139.844 2.31482C158.88 2.31482 176.981 10.2896 189.675 24.2359Z" fill="black"/>
<path d="M193.001 24.4781L192.57 23.9811C191.332 22.5508 190.043 21.1812 188.705 19.8686C188.69 19.8534 188.674 19.842 188.659 19.8268C187.394 18.5862 186.083 17.4025 184.733 16.272C184.583 16.1468 184.437 16.0254 184.287 15.9002C183.521 15.2704 182.741 14.6558 181.952 14.0563C181.195 13.4872 180.43 12.9333 179.649 12.3946C175.227 9.33295 170.466 6.79484 165.463 4.8334C164.463 4.44263 163.448 4.07463 162.429 3.72938C161.69 3.47899 160.948 3.23618 160.202 3.00855C159.018 2.64813 157.818 2.32186 156.614 2.02593C155.407 1.73001 154.192 1.46444 152.965 1.23301C151.738 1.00158 150.508 0.800509 149.266 0.633578C146.166 0.212457 143.017 0 139.844 0C138.575 0 137.31 0.0341449 136.049 0.102435C117.152 1.11919 99.4854 9.69337 87.1182 23.9811L86.6875 24.4781L91.5521 28.5793L119.201 51.8775L119.632 51.3805C119.947 51.0163 120.274 50.6597 120.605 50.3144C120.859 50.0527 121.116 49.8023 121.374 49.5519C121.947 49.0056 122.543 48.4858 123.158 47.9926C123.428 47.7801 123.701 47.5715 123.977 47.3666C128.519 44.0318 134.064 42.1842 139.84 42.1842C142.682 42.1842 145.466 42.6318 148.104 43.4817C148.258 43.531 148.408 43.5803 148.558 43.6334C148.843 43.7321 149.123 43.8345 149.404 43.9407C150.819 44.4795 152.184 45.132 153.484 45.9022C154.096 46.2626 154.692 46.6496 155.276 47.0593C155.857 47.469 156.426 47.9015 156.972 48.3606C157.157 48.5124 157.337 48.6679 157.514 48.8272C157.78 49.0625 158.041 49.3053 158.303 49.5519C158.476 49.7188 158.649 49.8857 158.818 50.0565C159.241 50.4814 159.652 50.9215 160.048 51.3805L160.175 51.5247L160.479 51.8775L193.001 24.4781ZM153.823 44.5743C149.623 42.1766 144.816 40.8753 139.844 40.8753C134.872 40.8753 130.065 42.1766 125.866 44.5743C125.235 44.9347 124.62 45.3179 124.02 45.7276C122.216 46.9531 120.551 48.3947 119.063 50.0337L93.1287 28.1809L88.5603 24.334C91.6982 20.7791 95.1746 17.5998 98.9162 14.8151C110.603 6.11953 124.92 1.30889 139.84 1.30889C155.234 1.30889 169.985 6.42683 181.868 15.646C182.818 16.382 183.752 17.1483 184.664 17.9375C186.944 19.9103 189.105 22.0462 191.124 24.334L160.625 50.0337C158.972 48.2126 157.099 46.6344 155.061 45.3255C154.657 45.0637 154.242 44.8133 153.823 44.5743Z" fill="black"/>
<path d="M136.633 10.3096H134.191V9.83157L135.345 8.62134C135.429 8.5265 135.502 8.44303 135.564 8.36716C135.622 8.29128 135.672 8.2192 135.71 8.1547C135.748 8.09021 135.772 8.02951 135.787 7.97639C135.802 7.91948 135.81 7.86637 135.81 7.81705C135.81 7.6615 135.772 7.53631 135.691 7.44905C135.61 7.36179 135.498 7.31627 135.349 7.31627C135.264 7.31627 135.191 7.33144 135.125 7.36179C135.06 7.39214 135.006 7.43387 134.964 7.48319C134.922 7.53631 134.887 7.59701 134.864 7.66909C134.841 7.74117 134.829 7.82084 134.829 7.90431H134.122C134.122 7.74497 134.149 7.59701 134.206 7.45664C134.264 7.31627 134.345 7.19486 134.453 7.08864C134.56 6.98241 134.691 6.90274 134.845 6.83824C134.999 6.77754 135.168 6.74719 135.36 6.74719C135.548 6.74719 135.714 6.76995 135.856 6.81548C136.002 6.86101 136.121 6.9255 136.221 7.01276C136.318 7.09622 136.394 7.20245 136.444 7.32765C136.494 7.45284 136.521 7.58942 136.521 7.74497C136.521 7.86258 136.502 7.97639 136.464 8.08641C136.425 8.19643 136.371 8.30645 136.306 8.41648C136.237 8.5265 136.156 8.63652 136.056 8.75033C135.96 8.86035 135.852 8.97796 135.733 9.09936L135.106 9.7519H136.637V10.3096H136.633Z" fill="#F3F3F3"/>
<path d="M139.436 8.85454C139.436 9.12012 139.406 9.34396 139.348 9.53365C139.29 9.72335 139.21 9.8789 139.102 10.0003C138.998 10.1217 138.871 10.2128 138.721 10.2697C138.575 10.3266 138.41 10.3569 138.229 10.3569C138.048 10.3569 137.887 10.3266 137.737 10.2697C137.591 10.2128 137.464 10.1217 137.356 10.0003C137.248 9.8789 137.168 9.72335 137.11 9.53365C137.052 9.34396 137.021 9.11632 137.021 8.85454V8.24372C137.021 7.97815 137.052 7.75431 137.11 7.56461C137.168 7.37492 137.248 7.21937 137.356 7.09796C137.464 6.97656 137.587 6.8855 137.737 6.82859C137.883 6.77168 138.048 6.74133 138.225 6.74133C138.402 6.74133 138.567 6.77168 138.717 6.82859C138.863 6.8855 138.99 6.97656 139.098 7.09796C139.206 7.21937 139.286 7.37492 139.344 7.56461C139.402 7.75431 139.433 7.97815 139.433 8.24372V8.85454H139.436ZM138.729 8.14508C138.729 7.98953 138.717 7.85674 138.694 7.75051C138.671 7.64428 138.64 7.55702 138.598 7.49253C138.556 7.42803 138.502 7.37871 138.44 7.35215C138.379 7.3218 138.31 7.31042 138.229 7.31042C138.152 7.31042 138.083 7.3256 138.021 7.35215C137.96 7.3825 137.91 7.42803 137.867 7.49253C137.825 7.55702 137.794 7.64428 137.771 7.75051C137.748 7.85674 137.737 7.98953 137.737 8.14508V8.9456C137.737 9.10494 137.748 9.23773 137.771 9.34396C137.794 9.45019 137.825 9.53745 137.867 9.60574C137.91 9.67403 137.964 9.71956 138.025 9.74991C138.087 9.78026 138.156 9.79164 138.237 9.79164C138.314 9.79164 138.387 9.77646 138.448 9.74991C138.51 9.71956 138.563 9.67403 138.602 9.60574C138.644 9.53745 138.675 9.45019 138.698 9.34396C138.721 9.23773 138.733 9.10494 138.733 8.9456V8.14508H138.729Z" fill="#F3F3F3"/>
<path d="M142.355 10.3084H139.913V9.83035L141.067 8.62012C141.151 8.52528 141.224 8.44181 141.286 8.36593C141.344 8.29006 141.394 8.21798 141.432 8.15348C141.471 8.08899 141.494 8.02828 141.509 7.97517C141.524 7.91826 141.532 7.86515 141.532 7.81583C141.532 7.66028 141.494 7.53509 141.413 7.44783C141.332 7.36057 141.221 7.31505 141.071 7.31505C140.986 7.31505 140.913 7.33022 140.848 7.36057C140.782 7.39092 140.728 7.43265 140.686 7.48197C140.644 7.53509 140.609 7.59579 140.586 7.66787C140.563 7.73995 140.552 7.81962 140.552 7.90309H139.844C139.844 7.74375 139.871 7.59579 139.929 7.45542C139.986 7.31505 140.067 7.19364 140.175 7.08742C140.282 6.98119 140.413 6.90152 140.567 6.83702C140.721 6.77632 140.89 6.74597 141.082 6.74597C141.271 6.74597 141.436 6.76873 141.578 6.81426C141.724 6.85979 141.844 6.92428 141.944 7.01154C142.04 7.095 142.117 7.20123 142.167 7.32643C142.217 7.45162 142.244 7.5882 142.244 7.74375C142.244 7.86136 142.224 7.97517 142.186 8.08519C142.147 8.19521 142.094 8.30523 142.028 8.41525C141.959 8.52528 141.878 8.6353 141.778 8.74911C141.682 8.85913 141.574 8.97674 141.455 9.09814L140.825 9.75068H142.355V10.3084Z" fill="#F3F3F3"/>
<path d="M145.155 8.85454C145.155 9.12012 145.124 9.34396 145.066 9.53365C145.008 9.72335 144.928 9.8789 144.82 10.0003C144.716 10.1217 144.589 10.2128 144.439 10.2697C144.293 10.3266 144.128 10.3569 143.947 10.3569C143.766 10.3569 143.605 10.3266 143.455 10.2697C143.305 10.2128 143.182 10.1217 143.074 10.0003C142.966 9.8789 142.886 9.72335 142.828 9.53365C142.77 9.34396 142.74 9.11632 142.74 8.85454V8.24372C142.74 7.97815 142.77 7.75431 142.828 7.56461C142.886 7.37492 142.966 7.21937 143.074 7.09796C143.182 6.97656 143.305 6.8855 143.455 6.82859C143.601 6.77168 143.766 6.74133 143.943 6.74133C144.124 6.74133 144.286 6.77168 144.435 6.82859C144.582 6.8855 144.709 6.97656 144.816 7.09796C144.924 7.21937 145.005 7.37492 145.062 7.56461C145.12 7.75431 145.151 7.97815 145.151 8.24372V8.85454H145.155ZM144.447 8.14508C144.447 7.98953 144.435 7.85674 144.412 7.75051C144.389 7.64428 144.359 7.55702 144.316 7.49253C144.274 7.42803 144.22 7.37871 144.159 7.35215C144.097 7.3218 144.028 7.31042 143.947 7.31042C143.87 7.31042 143.801 7.3256 143.739 7.35215C143.678 7.3825 143.628 7.42803 143.586 7.49253C143.543 7.55702 143.513 7.64428 143.489 7.75051C143.466 7.85674 143.455 7.98953 143.455 8.14508V8.9456C143.455 9.10494 143.466 9.23773 143.489 9.34396C143.513 9.45019 143.543 9.53745 143.586 9.60574C143.628 9.67403 143.682 9.71956 143.743 9.74991C143.805 9.78026 143.874 9.79164 143.955 9.79164C144.036 9.79164 144.105 9.77646 144.166 9.74991C144.228 9.71956 144.282 9.67403 144.32 9.60574C144.362 9.53745 144.393 9.45019 144.416 9.34396C144.439 9.23773 144.451 9.10494 144.451 8.9456V8.14508H144.447Z" fill="#F3F3F3"/>
<path d="M132.475 11.2491L132.49 11.215C132.51 10.79 132.479 10.2285 132.275 9.68982C132.229 9.77708 132.179 9.92504 132.16 10.1071C132.129 10.3613 132.167 10.6876 132.31 10.9759C132.344 11.048 132.383 11.1163 132.421 11.1846C132.356 11.1353 132.294 11.086 132.233 11.0328C131.964 10.7976 131.66 10.4372 130.806 9.93642C131.402 11.177 132.306 11.2453 132.475 11.2491Z" fill="#F3F3F3"/>
<path d="M131.819 10.1331L131.842 10.1028C131.972 9.69682 132.088 9.14668 132.03 8.57757C131.961 8.64965 131.876 8.78245 131.807 8.95318C131.715 9.19221 131.661 9.5147 131.726 9.82582C131.742 9.9017 131.757 9.98137 131.78 10.0573C131.73 9.99655 131.684 9.93205 131.638 9.86755C131.438 9.5792 131.234 9.15427 130.538 8.46375C130.646 9.12012 130.953 9.54505 131.215 9.78408C131.484 10.0307 131.722 10.1066 131.819 10.1331Z" fill="#F3F3F3"/>
<path d="M131.652 9.25751C131.625 9.33338 131.541 9.37131 131.464 9.34096C131.388 9.31441 131.345 9.23095 131.372 9.15509C131.399 9.07922 131.483 9.04129 131.56 9.07163C131.637 9.10198 131.679 9.18164 131.652 9.25751Z" fill="#F3F3F3"/>
<path d="M132.048 10.4748C132.021 10.5505 131.937 10.5883 131.86 10.5581C131.784 10.5316 131.742 10.4483 131.768 10.3726C131.795 10.2969 131.88 10.2591 131.956 10.2894C132.033 10.3197 132.075 10.4029 132.048 10.4748Z" fill="#F3F3F3"/>
<path d="M131.41 8.80551L131.441 8.78654C131.695 8.44129 131.983 7.95946 132.11 7.40175C132.022 7.44728 131.898 7.54592 131.779 7.6863C131.614 7.88358 131.46 8.17192 131.422 8.48682C131.414 8.56649 131.402 8.64237 131.399 8.72204C131.368 8.64617 131.349 8.57408 131.325 8.4982C131.229 8.16054 131.172 7.69389 130.733 6.82507C130.626 7.48143 130.779 7.97843 130.952 8.28953C131.129 8.60443 131.329 8.7486 131.41 8.80551Z" fill="#F3F3F3"/>
<path d="M131.445 7.48161L131.48 7.47023C131.814 7.20466 132.222 6.8063 132.487 6.3055C132.395 6.33206 132.241 6.39276 132.091 6.49899C131.88 6.64695 131.653 6.88597 131.538 7.18189L131.453 7.40194L131.438 7.16672C131.43 6.82147 131.495 6.35862 131.291 5.41394C131.018 6.02096 131.041 6.53314 131.13 6.87459C131.222 7.21983 131.38 7.40953 131.445 7.48161Z" fill="#F3F3F3"/>
<path d="M131.918 6.29294C131.868 6.3535 131.776 6.36486 131.711 6.31565C131.645 6.26645 131.634 6.17561 131.684 6.11127C131.734 6.05071 131.826 6.03935 131.891 6.09234C131.952 6.14155 131.967 6.23238 131.918 6.29294Z" fill="#F3F3F3"/>
<path d="M131.537 7.92106C131.487 7.98161 131.395 7.99296 131.33 7.93998C131.265 7.89079 131.253 7.79997 131.303 7.73564C131.353 7.6751 131.445 7.66375 131.51 7.71672C131.575 7.7697 131.587 7.86052 131.537 7.92106Z" fill="#F3F3F3"/>
<path d="M147.108 11.249L147.093 11.2148C147.074 10.7899 147.104 10.2284 147.308 9.6897C147.354 9.77696 147.404 9.92492 147.424 10.107C147.454 10.3612 147.42 10.6875 147.274 10.9758C147.239 11.0479 147.201 11.1162 147.162 11.1845C147.227 11.1352 147.289 11.0858 147.35 11.0327C147.62 10.7975 147.923 10.4371 148.777 9.9363C148.181 11.1769 147.274 11.2452 147.108 11.249Z" fill="#F3F3F3"/>
<path d="M147.766 10.1336L147.743 10.1033C147.612 9.69731 147.497 9.14717 147.554 8.57806C147.623 8.65014 147.708 8.78294 147.777 8.95367C147.87 9.19269 147.923 9.51519 147.858 9.8263C147.843 9.90218 147.827 9.98186 147.804 10.0577C147.854 9.99704 147.9 9.93254 147.946 9.86804C148.146 9.57969 148.35 9.15475 149.046 8.46423C148.939 9.12061 148.631 9.54554 148.369 9.78457C148.1 10.0312 147.862 10.1071 147.766 10.1336Z" fill="#F3F3F3"/>
<path d="M147.931 9.25739C147.958 9.33325 148.042 9.37119 148.119 9.34084C148.195 9.31429 148.238 9.23083 148.211 9.15496C148.184 9.0791 148.1 9.04116 148.019 9.07151C147.942 9.10186 147.904 9.18152 147.931 9.25739Z" fill="#F3F3F3"/>
<path d="M147.535 10.4752C147.562 10.551 147.647 10.589 147.723 10.5586C147.8 10.5321 147.842 10.4486 147.815 10.3727C147.788 10.2969 147.704 10.2589 147.627 10.2893C147.551 10.3196 147.509 10.4031 147.535 10.4752Z" fill="#F3F3F3"/>
<path d="M148.173 8.8049L148.143 8.78593C147.889 8.44068 147.601 7.95885 147.474 7.40114C147.562 7.44667 147.685 7.54531 147.804 7.68569C147.97 7.88297 148.124 8.17131 148.162 8.48621C148.17 8.56588 148.181 8.64176 148.185 8.72143C148.212 8.64555 148.235 8.57347 148.258 8.49759C148.354 8.15993 148.412 7.69328 148.85 6.82446C148.958 7.48081 148.804 7.97782 148.631 8.28892C148.454 8.60382 148.254 8.74799 148.173 8.8049Z" fill="#F3F3F3"/>
<path d="M148.142 7.48161L148.107 7.47023C147.773 7.20466 147.369 6.8063 147.1 6.3055C147.192 6.33206 147.346 6.39276 147.496 6.49899C147.707 6.64695 147.934 6.88597 148.053 7.18189L148.138 7.40194L148.153 7.16672C148.161 6.82147 148.096 6.35862 148.299 5.41394C148.572 6.02096 148.549 6.53314 148.461 6.87459C148.365 7.21983 148.207 7.40953 148.142 7.48161Z" fill="#F3F3F3"/>
<path d="M147.666 6.29282C147.716 6.35338 147.808 6.36474 147.873 6.31553C147.938 6.26633 147.949 6.17549 147.9 6.11115C147.85 6.05059 147.758 6.03923 147.693 6.09222C147.627 6.14142 147.616 6.23226 147.666 6.29282Z" fill="#F3F3F3"/>
<path d="M148.046 7.92094C148.096 7.98149 148.188 7.99284 148.253 7.93986C148.319 7.89067 148.33 7.79985 148.28 7.73552C148.23 7.67498 148.138 7.66363 148.073 7.7166C148.008 7.76958 147.997 7.8604 148.046 7.92094Z" fill="#F3F3F3"/>
<path d="M118.586 15.7562V16.5415H119.867V16.8943H116.833V16.5415H118.105V15.7562H118.586ZM118.59 14.1325V14.4739C118.59 14.5915 118.609 14.7053 118.644 14.8153C118.678 14.9254 118.74 15.0316 118.821 15.1302C118.905 15.2289 119.017 15.3199 119.159 15.3996C119.301 15.4792 119.478 15.5475 119.69 15.5968L119.524 15.9079C119.363 15.8814 119.221 15.8434 119.09 15.7979C118.963 15.7486 118.851 15.6955 118.755 15.6386C118.659 15.5817 118.578 15.521 118.509 15.4565C118.444 15.392 118.39 15.3275 118.348 15.263C118.305 15.3199 118.248 15.3806 118.179 15.4451C118.109 15.5134 118.021 15.5741 117.925 15.6348C117.825 15.6917 117.713 15.7486 117.59 15.7941C117.467 15.8434 117.332 15.8814 117.183 15.9041L117.017 15.5931C117.229 15.5399 117.406 15.4754 117.548 15.3958C117.69 15.3161 117.802 15.2251 117.886 15.1264C117.971 15.0278 118.029 14.9216 118.063 14.8115C118.098 14.7015 118.117 14.5839 118.117 14.4701V14.1287H118.59V14.1325Z" fill="#F3F3F3"/>
<path d="M121.886 14.1287V16.2988H120.544C120.424 16.2988 120.336 16.276 120.282 16.2267C120.228 16.1774 120.201 16.0939 120.201 15.9763V14.1287H120.682V14.8799H121.405V14.1287H121.886ZM121.405 15.9535V15.2289H120.801C120.786 15.2289 120.763 15.2251 120.74 15.2137C120.717 15.2023 120.697 15.1834 120.678 15.1606V15.9573H121.405V15.9535ZM122.397 14.0338H122.878V17.2169H122.397V14.0338Z" fill="#F3F3F3"/>
<path d="M123.985 14.5043H123.359V14.1514H125.101V14.5043H124.474V14.8343C124.474 15.0126 124.497 15.172 124.547 15.3086C124.597 15.4451 124.658 15.5628 124.739 15.6614C124.82 15.76 124.908 15.8473 125.005 15.9156C125.101 15.9839 125.197 16.0408 125.289 16.0863L125.066 16.3557C124.939 16.3102 124.831 16.2533 124.739 16.1926C124.647 16.1318 124.566 16.0674 124.501 16.0029C124.432 15.9384 124.378 15.8701 124.335 15.8056C124.293 15.7373 124.258 15.6766 124.228 15.6159C124.201 15.6766 124.162 15.7411 124.116 15.8094C124.07 15.8777 124.016 15.9422 123.947 16.0104C123.882 16.0787 123.801 16.1432 123.712 16.2001C123.62 16.2608 123.512 16.314 123.389 16.3595L123.166 16.0901C123.262 16.0446 123.359 15.9877 123.455 15.9194C123.551 15.8511 123.636 15.7676 123.716 15.6652C123.797 15.5666 123.862 15.4451 123.912 15.3124C123.962 15.1758 123.985 15.0202 123.985 14.8381V14.5043ZM126.431 14.9899V15.3503H126.093C126.07 15.3503 126.043 15.3389 126.008 15.32C125.974 15.2972 125.951 15.282 125.943 15.263V17.2169H125.462V14.0338H125.943V14.9899H126.431Z" fill="#F3F3F3"/>
<path d="M127.846 14.1514C127.966 14.1514 128.054 14.1742 128.108 14.2235C128.162 14.2728 128.189 14.3525 128.189 14.4701C128.189 14.5877 128.169 14.7357 128.127 14.9102C128.085 15.0847 128.012 15.263 127.9 15.4451C127.785 15.6273 127.631 15.8018 127.439 15.9687C127.246 16.1356 126.993 16.2722 126.685 16.3747L126.454 16.1015C126.604 16.0484 126.754 15.9725 126.897 15.8739C127.039 15.7752 127.17 15.6538 127.285 15.5134C127.4 15.3769 127.493 15.2251 127.562 15.0544C127.635 14.8836 127.673 14.6977 127.681 14.5043H126.631V14.1514H127.846ZM129.638 14.9899V15.3503H129.3C129.281 15.3503 129.25 15.3389 129.215 15.32C129.181 15.2972 129.158 15.282 129.15 15.263V17.2169H128.669V14.0338H129.15V14.9899H129.638Z" fill="#F3F3F3"/>
<path d="M131.923 14.0638H132.407V14.3977C132.407 14.6746 132.469 14.9022 132.592 15.073C132.715 15.2437 132.903 15.3879 133.149 15.4979L132.915 15.7748C132.819 15.7445 132.73 15.7027 132.649 15.6496C132.569 15.5965 132.492 15.5396 132.43 15.4751C132.365 15.4106 132.311 15.3461 132.269 15.2816C132.223 15.2171 132.188 15.1526 132.165 15.0919C132.142 15.1564 132.103 15.2209 132.053 15.2968C132.003 15.3689 131.942 15.4372 131.873 15.5017C131.8 15.57 131.715 15.6307 131.623 15.68C131.53 15.7331 131.43 15.771 131.319 15.7976L131.092 15.5244C131.23 15.4675 131.35 15.403 131.453 15.3347C131.557 15.2627 131.646 15.183 131.715 15.0919C131.78 15.0047 131.83 14.9022 131.865 14.7884C131.9 14.6746 131.915 14.5418 131.915 14.3977V14.0638H131.923ZM132.269 16.8636H133.957V17.2165H132.13C132.011 17.2165 131.923 17.1899 131.869 17.1406C131.815 17.0913 131.788 17.0078 131.788 16.894V16.0783H132.269V16.8636ZM133.461 14.686V14.0297H133.934V16.3363H133.461V15.0388H132.834V14.6822H133.461V14.686Z" fill="#F3F3F3"/>
<path d="M136.702 14.0338H137.149V15.8246H136.702V15.062H136.572C136.518 15.062 136.472 15.043 136.422 15.0051V15.8132H135.976V15.6083C135.922 15.6462 135.837 15.6804 135.729 15.7107C135.618 15.7411 135.503 15.7563 135.383 15.7563H134.757C134.637 15.7563 134.549 15.7297 134.495 15.6804C134.441 15.6311 134.414 15.5476 134.414 15.43V14.4284C134.414 14.3108 134.441 14.2273 134.495 14.178C134.549 14.1249 134.637 14.1021 134.757 14.1021H135.687V14.4511H134.88V14.7471H135.63V15.0961H135.053C134.991 15.0961 134.933 15.0734 134.88 15.024V15.4072H135.506C135.618 15.4072 135.714 15.3958 135.791 15.3731C135.872 15.3503 135.929 15.3275 135.972 15.3086V14.0452H136.418V14.7053H136.699V14.0338H136.702ZM136.799 16.0636C136.922 16.0636 137.01 16.0901 137.068 16.1395C137.122 16.1888 137.152 16.2722 137.152 16.3899V17.2473H136.672V16.4164H135.003V16.0636H136.799Z" fill="#F3F3F3"/>
<path d="M137.506 14.633V14.2802H138.26V13.9691H138.741V14.2802H139.452V14.633H139.117C139.19 14.6975 139.248 14.7734 139.287 14.8607C139.325 14.9479 139.344 15.0428 139.344 15.1452C139.344 15.2552 139.321 15.3577 139.279 15.4525C139.237 15.5474 139.175 15.6308 139.094 15.7029C139.014 15.775 138.921 15.8319 138.817 15.8737C138.714 15.9154 138.602 15.9381 138.483 15.9381C138.364 15.9381 138.248 15.9154 138.144 15.8737C138.041 15.8319 137.948 15.775 137.871 15.7029C137.791 15.6308 137.729 15.5474 137.683 15.4525C137.637 15.3577 137.614 15.2552 137.614 15.1452C137.614 15.0428 137.633 14.9479 137.675 14.8607C137.714 14.7734 137.771 14.6975 137.837 14.633H137.506ZM138.529 16.8639H140.213V17.2167H138.391C138.271 17.2167 138.183 17.1901 138.129 17.1408C138.075 17.0915 138.048 17.008 138.048 16.8942V16.124H138.529V16.8639ZM138.475 15.5626C138.591 15.5626 138.683 15.5208 138.764 15.4411C138.841 15.3615 138.879 15.2628 138.879 15.149C138.879 15.0352 138.841 14.9366 138.764 14.8569C138.687 14.7772 138.591 14.7393 138.475 14.7393C138.418 14.7393 138.364 14.7507 138.314 14.7734C138.264 14.7962 138.221 14.8227 138.187 14.8569C138.148 14.8948 138.121 14.9404 138.098 14.9897C138.079 15.039 138.068 15.0921 138.068 15.149C138.068 15.2059 138.079 15.259 138.098 15.3084C138.118 15.3615 138.148 15.4032 138.187 15.4336C138.221 15.4715 138.264 15.5056 138.314 15.5246C138.368 15.5512 138.421 15.5626 138.475 15.5626ZM140.194 14.8H140.675V15.1528H140.336C140.313 15.1528 140.29 15.1452 140.263 15.13C140.236 15.1149 140.213 15.0959 140.19 15.0656V16.3365H139.713V14.0298H140.19V14.8H140.194Z" fill="#F3F3F3"/>
<path d="M144.563 14.0335H145.043V17.2166H144.563V16.5413C144.54 16.5602 144.501 16.5792 144.455 16.5982C144.405 16.6171 144.355 16.6361 144.297 16.6475C144.236 16.6627 144.171 16.6778 144.105 16.6854C144.036 16.693 143.971 16.7006 143.909 16.7006H142.217V16.3516H143.071V15.7066H143.551V16.3516H143.932C143.997 16.3516 144.086 16.3478 144.205 16.3402C144.324 16.3326 144.444 16.2984 144.567 16.2453V14.0335H144.563ZM142.409 14.7202V14.3673H143.063V13.9728H143.544V14.3673H144.201V14.7202H143.555C143.567 14.8074 143.586 14.8871 143.613 14.9668C143.644 15.0427 143.686 15.1185 143.748 15.1868C143.805 15.2589 143.878 15.3272 143.971 15.3917C144.063 15.4562 144.174 15.5131 144.313 15.5662L144.147 15.8697C144.021 15.8394 143.909 15.8014 143.821 15.7521C143.728 15.7028 143.651 15.6497 143.59 15.589C143.524 15.5321 143.471 15.4714 143.428 15.4069C143.382 15.3462 143.344 15.2855 143.313 15.2286C143.278 15.2817 143.236 15.3386 143.19 15.4031C143.144 15.4676 143.086 15.5283 143.021 15.5852C142.955 15.6459 142.875 15.7028 142.786 15.7521C142.698 15.8014 142.594 15.8432 142.475 15.8697L142.309 15.5662C142.444 15.5131 142.555 15.4524 142.648 15.3917C142.736 15.3272 142.813 15.2627 142.871 15.1868C142.928 15.1185 142.971 15.0427 143.001 14.9668C143.032 14.8909 143.051 14.8074 143.063 14.7202H142.409Z" fill="#F3F3F3"/>
<path d="M146.905 16.5408H148.412V16.8936H145.378V16.5408H146.424V15.4519H146.905V16.5408ZM147.535 14.5035H145.755V14.1506H147.67C147.789 14.1506 147.878 14.1772 147.935 14.2265C147.989 14.2758 148.02 14.3593 148.02 14.4769V15.1257C148.02 15.1826 148.02 15.2584 148.02 15.3457C148.02 15.433 148.016 15.5202 148.008 15.6113C148.001 15.6985 147.985 15.782 147.97 15.8617C147.955 15.9413 147.931 15.9982 147.905 16.04H147.447C147.466 16.0058 147.482 15.9565 147.493 15.8844C147.505 15.8123 147.516 15.7365 147.524 15.6568C147.532 15.5733 147.535 15.4899 147.539 15.4064C147.543 15.3191 147.543 15.2433 147.543 15.175V14.5035H147.535Z" fill="#F3F3F3"/>
<path d="M150.908 14.0338H151.389V17.2169H150.908V16.4999C150.881 16.5188 150.847 16.5378 150.797 16.5568C150.75 16.5757 150.697 16.5909 150.635 16.6099C150.577 16.6251 150.512 16.6402 150.447 16.6478C150.377 16.6592 150.312 16.663 150.251 16.663H148.555V16.3064H150.27C150.335 16.3064 150.427 16.3026 150.547 16.295C150.666 16.2874 150.789 16.257 150.908 16.1963V14.0338ZM149.643 14.1097C149.77 14.1097 149.893 14.1325 150.004 14.1818C150.12 14.2311 150.216 14.2918 150.301 14.3677C150.385 14.4511 150.454 14.546 150.5 14.656C150.55 14.766 150.574 14.8837 150.574 15.0088C150.574 15.1303 150.55 15.2479 150.5 15.3579C150.45 15.4679 150.385 15.5628 150.301 15.6386C150.216 15.7221 150.12 15.7866 150.004 15.8359C149.893 15.8815 149.77 15.9042 149.643 15.9042C149.516 15.9042 149.397 15.8815 149.281 15.8359C149.17 15.7904 149.07 15.7221 148.989 15.6386C148.905 15.5628 148.835 15.4679 148.789 15.3579C148.739 15.2479 148.716 15.1303 148.716 15.0088C148.716 14.8837 148.739 14.7698 148.789 14.656C148.839 14.546 148.905 14.4473 148.989 14.3677C149.07 14.2918 149.17 14.2273 149.281 14.1818C149.393 14.1325 149.512 14.1097 149.643 14.1097ZM149.643 15.5324C149.704 15.5324 149.762 15.5172 149.816 15.4907C149.87 15.4641 149.92 15.4262 149.962 15.3807C150.001 15.3351 150.035 15.2782 150.058 15.2175C150.081 15.153 150.093 15.0847 150.093 15.0126C150.093 14.9368 150.081 14.8647 150.058 14.804C150.035 14.7395 150.004 14.6864 149.962 14.6408C149.92 14.5953 149.87 14.5574 149.816 14.5308C149.762 14.5043 149.704 14.4891 149.643 14.4891C149.585 14.4891 149.528 14.5043 149.474 14.5308C149.42 14.5574 149.37 14.5953 149.328 14.6408C149.289 14.6864 149.255 14.7433 149.231 14.804C149.208 14.8685 149.197 14.9368 149.197 15.0126C149.197 15.0885 149.208 15.1568 149.231 15.2175C149.255 15.282 149.285 15.3351 149.328 15.3807C149.37 15.4262 149.42 15.4641 149.474 15.4907C149.524 15.5172 149.581 15.5324 149.643 15.5324Z" fill="#F3F3F3"/>
<path d="M156.195 16.5416V16.8944H153.161V16.5416H156.195ZM155.819 14.1287V15.889H153.877C153.757 15.889 153.669 15.8625 153.615 15.8132C153.561 15.7601 153.534 15.6804 153.534 15.5666V14.1287H154.015V14.6636H155.338V14.1287H155.819ZM154.015 14.9482V15.5324H155.338V15.0164H154.134C154.084 15.0164 154.042 14.9937 154.015 14.9482Z" fill="#F3F3F3"/>
<path d="M158.884 14.0338H159.33V16.3405H158.884V15.1606H158.749C158.726 15.1606 158.699 15.153 158.676 15.1378C158.649 15.1227 158.626 15.1037 158.607 15.0696V16.3291H158.161V15.6728C158.141 15.6955 158.107 15.7183 158.065 15.7373C158.022 15.7563 157.972 15.7752 157.918 15.7904C157.865 15.8094 157.807 15.8245 157.745 15.8321C157.684 15.8397 157.622 15.8473 157.561 15.8473H156.88C156.761 15.8473 156.673 15.8207 156.619 15.7714C156.565 15.7183 156.538 15.6348 156.538 15.521V14.8116H157.384V14.4474H156.553V14.0983H157.511C157.63 14.0983 157.718 14.1211 157.772 14.1704C157.826 14.2197 157.853 14.3032 157.853 14.4208V15.1606H157.015V15.5096H157.695C157.815 15.5096 157.911 15.4983 157.992 15.4717C158.068 15.4451 158.126 15.4224 158.165 15.4034V14.0414H158.611V14.7964H158.891V14.0338H158.884ZM157.665 16.8641H159.357V17.2169H157.53C157.411 17.2169 157.322 17.1904 157.269 17.141C157.215 17.0917 157.188 17.0082 157.188 16.8944V16.1243H157.668V16.8641H157.665Z" fill="#F3F3F3"/>
<path d="M162.748 16.5408V16.8936H159.714V16.5408H162.748ZM160.456 15.8882C160.333 15.8882 160.245 15.8617 160.191 15.8123C160.137 15.7592 160.11 15.6796 160.11 15.562V14.4769C160.11 14.3593 160.137 14.2758 160.191 14.2265C160.245 14.1772 160.333 14.1506 160.456 14.1506H162.36V14.5111H160.591V15.5316H162.402V15.8882H160.456Z" fill="#F3F3F3"/>
<path d="M129.369 26.4395C130.123 26.4395 130.661 26.576 130.98 26.853C131.299 27.1299 131.461 27.5966 131.461 28.2567V30.0436C131.461 30.5748 131.338 31.0452 131.092 31.4588C130.846 31.8723 130.496 32.2062 130.046 32.4641L132.003 37.1572H129.592L127.865 33.0067H127.796H125.604V37.1534H123.208V27.7825C123.208 27.6345 123.224 27.5283 123.258 27.4562C123.293 27.3879 123.335 27.3348 123.393 27.2931L124.389 26.5685C124.466 26.5078 124.551 26.4736 124.643 26.4584C124.731 26.4433 124.824 26.4357 124.912 26.4357H129.369V26.4395ZM125.604 28.0063V31.4436H127.815C128.265 31.4436 128.585 31.307 128.777 31.0376C128.969 30.7683 129.065 30.4382 129.065 30.055V28.2681C129.065 28.0898 128.954 28.0025 128.727 28.0025H125.604V28.0063Z" fill="#F3F3F3"/>
<path d="M157.349 27.7825C157.349 27.6345 157.365 27.5283 157.399 27.4562C157.434 27.3879 157.476 27.3348 157.534 27.2931L158.53 26.5685C158.61 26.5078 158.691 26.4736 158.784 26.4584C158.872 26.4433 158.964 26.4357 159.053 26.4357H163.221C163.602 26.4357 163.967 26.4964 164.31 26.6216C164.652 26.743 164.952 26.9099 165.213 27.1148C165.471 27.3196 165.675 27.5586 165.821 27.8242C165.967 28.0898 166.04 28.3705 166.04 28.6665V34.5394C166.04 34.7973 165.94 35.0743 165.744 35.3816C165.548 35.6851 165.302 35.9696 165.009 36.2314C164.717 36.4932 164.398 36.7094 164.056 36.8878C163.713 37.0661 163.394 37.1533 163.102 37.1533H157.349V27.7825ZM162.514 35.5903C162.648 35.5903 162.783 35.5599 162.917 35.4954C163.052 35.4309 163.175 35.3474 163.279 35.245C163.387 35.1426 163.471 35.0326 163.54 34.9111C163.61 34.7935 163.64 34.6797 163.64 34.5735V28.8182C163.64 28.5147 163.533 28.3022 163.321 28.1846C163.106 28.067 162.871 28.0063 162.614 28.0063H159.745V35.5903H162.514Z" fill="#F3F3F3"/>
<path d="M153.465 26.4438V32.6089L149.919 26.4438H149.027C148.939 26.4438 148.85 26.4514 148.754 26.4628C148.666 26.4818 148.581 26.5159 148.504 26.5728L148.289 26.7322L147.862 27.0433L147.32 27.4341V37.154H149.712V30.2643L153.196 36.3269C153.492 36.8391 154.042 37.1578 154.641 37.1578H155.853V26.4438H153.465Z" fill="#F3F3F3"/>
<path d="M121.436 31.9829C121.178 31.7325 120.89 31.5618 120.574 31.4745C120.832 31.3645 121.063 31.19 121.259 30.9434C121.455 30.6968 121.555 30.3478 121.555 29.8963V28.4053C121.555 28.1018 121.528 27.8248 121.47 27.5782C121.413 27.3316 121.301 27.1267 121.132 26.9598C120.963 26.7929 120.732 26.6639 120.44 26.5766C120.147 26.4894 119.763 26.4438 119.294 26.4438H115.144V26.4514C115.091 26.4552 115.033 26.4552 114.979 26.4666C114.891 26.4818 114.806 26.5197 114.725 26.5766L114.514 26.7284L113.545 27.4341V37.1578H119.005C119.251 37.1578 119.54 37.0705 119.867 36.8998C120.194 36.7291 120.501 36.5128 120.786 36.2586C121.074 36.0044 121.316 35.7313 121.52 35.4392C121.724 35.1508 121.824 34.8814 121.824 34.6348V33.0262C121.824 32.5824 121.693 32.2333 121.436 31.9829ZM118.667 27.9918C118.878 27.9918 119.021 28.0259 119.09 28.0942C119.155 28.1625 119.19 28.2611 119.19 28.3901V30.1012C119.19 30.3288 119.14 30.4995 119.048 30.6171C118.951 30.7347 118.725 30.7954 118.363 30.7954H115.94V27.9918H118.667ZM119.459 34.6311C119.459 34.7183 119.421 34.817 119.34 34.927C119.259 35.037 119.167 35.1394 119.063 35.2381C118.955 35.3367 118.84 35.4202 118.717 35.4885C118.594 35.5568 118.486 35.5909 118.398 35.5909H115.94V32.3585H118.821C118.99 32.3585 119.14 32.3927 119.267 32.4609C119.398 32.5292 119.459 32.6924 119.459 32.9466V34.6311Z" fill="#F3F3F3"/>
<path d="M146.162 37.1541L142.378 23.5493H136.802L133.018 37.1541H138.652V32.1273C139.848 31.6151 140.844 30.7235 141.474 29.6119V37.1579H146.162V37.1541ZM140.963 28.9783C140.636 29.6461 140.167 30.2341 139.59 30.7046C139.413 30.8487 139.221 30.9777 139.025 31.0953C138.236 31.5847 137.302 31.8655 136.302 31.8655V29.1832C137.121 29.1832 137.848 28.7849 138.29 28.174C138.413 28.0071 138.513 27.825 138.59 27.6277C138.633 27.5253 138.663 27.4229 138.686 27.3128C138.729 27.1383 138.752 26.9562 138.752 26.7665H141.471C141.474 27.5594 141.29 28.3068 140.963 28.9783Z" fill="#F3F3F3"/>
<path d="M117.156 19.191V19.5931H117.69V19.8966H117.156V20.5985H116.836V18.8875H117.717V19.191H117.156Z" fill="#F3F3F3"/>
<path d="M117.929 20.5973V19.315H118.239V20.5973H117.929ZM117.929 19.1291V18.8218H118.239V19.1291H117.929Z" fill="#F3F3F3"/>
<path d="M118.801 19.8842V20.5975H118.49V19.3151H118.774V19.4403C118.855 19.3227 118.921 19.2848 119.055 19.2848H119.078V19.5807C118.894 19.5845 118.801 19.6869 118.801 19.8842Z" fill="#F3F3F3"/>
<path d="M119.636 20.6281C119.378 20.6281 119.194 20.4878 119.159 20.1918H119.474C119.505 20.3019 119.555 20.3474 119.648 20.3474C119.728 20.3474 119.79 20.2943 119.79 20.2222C119.79 20.1501 119.778 20.1273 119.571 20.0591C119.313 19.9718 119.209 19.8656 119.209 19.6797C119.209 19.4597 119.398 19.2889 119.64 19.2889C119.859 19.2889 120.055 19.4331 120.067 19.6721H119.759C119.744 19.6038 119.701 19.5697 119.636 19.5697C119.567 19.5697 119.517 19.6152 119.517 19.6797C119.517 19.748 119.524 19.7518 119.736 19.8201C120.009 19.9035 120.097 20.006 120.097 20.1956C120.101 20.4346 119.897 20.6281 119.636 20.6281Z" fill="#F3F3F3"/>
<path d="M120.655 19.5958V20.5975H120.344V19.5958H120.19V19.3151H120.344V18.8864H120.655V19.3151H120.843V19.5958H120.655Z" fill="#F3F3F3"/>
<path d="M122.866 20.6273L122.62 20.3694C122.474 20.5628 122.363 20.6273 122.178 20.6273C121.863 20.6273 121.613 20.3883 121.613 20.081C121.613 19.8724 121.713 19.7282 121.936 19.5954C121.824 19.4702 121.79 19.4019 121.79 19.2805C121.79 19.0415 121.978 18.8556 122.228 18.8556C122.482 18.8556 122.674 19.0377 122.674 19.2767C122.674 19.4626 122.609 19.565 122.401 19.694L122.559 19.8686L122.728 19.5916H123.078L122.778 20.1L123.086 20.4263L122.866 20.6273ZM122.136 19.8496C121.99 19.9141 121.928 19.99 121.928 20.0962C121.928 20.2252 122.024 20.32 122.163 20.32C122.266 20.32 122.328 20.2745 122.405 20.1379L122.136 19.8496ZM122.236 19.1439C122.155 19.1439 122.09 19.2046 122.09 19.2843C122.09 19.345 122.116 19.3943 122.209 19.4816C122.339 19.4133 122.378 19.3716 122.378 19.2843C122.378 19.2046 122.32 19.1439 122.236 19.1439Z" fill="#F3F3F3"/>
<path d="M124.405 20.5975H123.943V18.8864H124.301C124.558 18.8864 124.666 18.9053 124.77 18.9698C124.893 19.0495 124.966 19.1823 124.966 19.3416C124.966 19.501 124.912 19.592 124.774 19.6641C124.993 19.7552 125.07 19.8842 125.07 20.0891C125.07 20.4002 124.851 20.5975 124.405 20.5975ZM124.397 19.1975H124.266V19.5465H124.37C124.566 19.5465 124.647 19.4934 124.647 19.372C124.643 19.2544 124.562 19.1975 124.397 19.1975ZM124.416 19.8576H124.262V20.2939H124.42C124.643 20.2939 124.739 20.2294 124.739 20.0815C124.743 19.9297 124.639 19.8576 124.416 19.8576Z" fill="#F3F3F3"/>
<path d="M126.558 20.0926H125.55C125.589 20.2482 125.723 20.343 125.908 20.343C126.039 20.343 126.116 20.3089 126.193 20.214H126.531C126.446 20.4758 126.173 20.6238 125.912 20.6238C125.516 20.6238 125.208 20.3317 125.208 19.9561C125.208 19.5805 125.512 19.2808 125.893 19.2808C126.281 19.2808 126.562 19.5729 126.562 19.9712C126.569 20.0206 126.569 20.0471 126.558 20.0926ZM125.904 19.5653C125.72 19.5653 125.593 19.6564 125.543 19.8195H126.262C126.223 19.6564 126.096 19.5653 125.904 19.5653Z" fill="#F3F3F3"/>
<path d="M127.166 20.6281C126.908 20.6281 126.723 20.4878 126.689 20.1918H127.004C127.035 20.3019 127.085 20.3474 127.177 20.3474C127.258 20.3474 127.319 20.2943 127.319 20.2222C127.319 20.1501 127.308 20.1273 127.1 20.0591C126.842 19.9718 126.739 19.8656 126.739 19.6797C126.739 19.4597 126.927 19.2889 127.169 19.2889C127.389 19.2889 127.585 19.4331 127.596 19.6721H127.292C127.277 19.6038 127.235 19.5697 127.169 19.5697C127.1 19.5697 127.05 19.6152 127.05 19.6797C127.05 19.748 127.058 19.7518 127.269 19.8201C127.542 19.9035 127.631 20.006 127.631 20.1956C127.631 20.4346 127.427 20.6281 127.166 20.6281Z" fill="#F3F3F3"/>
<path d="M128.188 19.5958V20.5975H127.877V19.5958H127.723V19.3151H127.877V18.8864H128.188V19.3151H128.377V19.5958H128.188Z" fill="#F3F3F3"/>
<path d="M129.685 20.5975H129.223V18.8864H129.581C129.838 18.8864 129.946 18.9053 130.05 18.9698C130.173 19.0495 130.246 19.1823 130.246 19.3416C130.246 19.501 130.192 19.592 130.054 19.6641C130.273 19.7552 130.35 19.8842 130.35 20.0891C130.346 20.4002 130.131 20.5975 129.685 20.5975ZM129.673 19.1975H129.542V19.5465H129.646C129.842 19.5465 129.923 19.4934 129.923 19.372C129.923 19.2544 129.842 19.1975 129.673 19.1975ZM129.696 19.8576H129.542V20.2939H129.7C129.927 20.2939 130.023 20.2294 130.023 20.0815C130.023 19.9297 129.919 19.8576 129.696 19.8576Z" fill="#F3F3F3"/>
<path d="M130.861 19.8842V20.5975H130.55V19.3151H130.834V19.4403C130.915 19.3227 130.98 19.2848 131.115 19.2848H131.138V19.5807C130.953 19.5845 130.861 19.6869 130.861 19.8842Z" fill="#F3F3F3"/>
<path d="M132.284 20.5975V20.4306C132.161 20.571 132.034 20.6279 131.853 20.6279C131.473 20.6279 131.199 20.3471 131.199 19.9601C131.199 19.5693 131.476 19.2848 131.861 19.2848C132.049 19.2848 132.176 19.3455 132.284 19.4859V19.3151H132.568V20.5975H132.284ZM131.892 19.5655C131.669 19.5655 131.511 19.7325 131.511 19.9677C131.511 20.1916 131.669 20.3433 131.896 20.3433C132.134 20.3433 132.272 20.1764 132.272 19.9639C132.272 19.7325 132.115 19.5655 131.892 19.5655Z" fill="#F3F3F3"/>
<path d="M133.641 20.5975V19.9715C133.641 19.63 133.549 19.5693 133.391 19.5693C133.291 19.5693 133.211 19.6111 133.161 19.6869C133.122 19.7477 133.111 19.8235 133.111 19.9943V20.5975H132.799V19.3151H133.088V19.4365C133.203 19.3265 133.307 19.2848 133.453 19.2848C133.634 19.2848 133.776 19.3493 133.86 19.4707C133.93 19.5693 133.953 19.6794 133.953 19.9108V20.5975H133.641Z" fill="#F3F3F3"/>
<path d="M135.233 20.5973V20.4304C135.11 20.5708 134.98 20.6277 134.803 20.6277C134.433 20.6277 134.153 20.3355 134.153 19.9561C134.153 19.5729 134.437 19.2732 134.803 19.2732C134.968 19.2732 135.118 19.3339 135.206 19.4326V18.89H135.518V20.6011H135.233V20.5973ZM134.845 19.5502C134.63 19.5502 134.464 19.7209 134.464 19.9372C134.464 20.1648 134.633 20.3431 134.853 20.3431C135.064 20.3431 135.229 20.1686 135.229 19.9485C135.229 19.7247 135.064 19.5502 134.845 19.5502Z" fill="#F3F3F3"/>
<path d="M136.152 20.6281C135.895 20.6281 135.71 20.4878 135.675 20.1918H135.991C136.021 20.3019 136.071 20.3474 136.164 20.3474C136.245 20.3474 136.306 20.2943 136.306 20.2222C136.306 20.1501 136.295 20.1273 136.087 20.0591C135.829 19.9718 135.725 19.8656 135.725 19.6797C135.725 19.4597 135.914 19.2889 136.156 19.2889C136.375 19.2889 136.571 19.4331 136.583 19.6721H136.279C136.264 19.6038 136.221 19.5697 136.156 19.5697C136.087 19.5697 136.037 19.6152 136.037 19.6797C136.037 19.748 136.045 19.7518 136.256 19.8201C136.529 19.9035 136.618 20.006 136.618 20.1956C136.614 20.4346 136.41 20.6281 136.152 20.6281Z" fill="#F3F3F3"/>
<path d="M138.302 20.6273C137.795 20.6273 137.391 20.229 137.391 19.7358C137.391 19.2539 137.791 18.8556 138.283 18.8556C138.641 18.8556 138.952 19.0453 139.102 19.3754H138.744C138.629 19.2236 138.491 19.1591 138.291 19.1591C137.96 19.1591 137.718 19.4133 137.718 19.7358C137.718 20.0545 137.979 20.32 138.298 20.32C138.464 20.32 138.587 20.2631 138.729 20.119H139.106C138.967 20.4301 138.656 20.6273 138.302 20.6273Z" fill="#F3F3F3"/>
<path d="M140.118 20.5976V19.9413C140.118 19.6719 140.048 19.5657 139.864 19.5657C139.687 19.5657 139.591 19.6644 139.591 19.9451V20.5938H139.279V18.8828H139.591V19.3988C139.683 19.3153 139.787 19.2774 139.921 19.2774C140.233 19.2774 140.429 19.4481 140.429 19.8692V20.5938H140.118V20.5976Z" fill="#F3F3F3"/>
<path d="M141.317 20.6279C140.937 20.6279 140.629 20.3281 140.629 19.9563C140.629 19.5883 140.937 19.2848 141.317 19.2848C141.71 19.2848 142.013 19.5845 142.013 19.9639C142.009 20.3244 141.694 20.6279 141.317 20.6279ZM141.317 19.5655C141.113 19.5655 140.944 19.7401 140.944 19.9487C140.944 20.1688 141.11 20.3433 141.321 20.3433C141.529 20.3433 141.698 20.1688 141.698 19.9563C141.694 19.7439 141.525 19.5655 141.317 19.5655Z" fill="#F3F3F3"/>
<path d="M142.579 20.6281C142.321 20.6281 142.136 20.4878 142.102 20.1918H142.417C142.448 20.3019 142.498 20.3474 142.59 20.3474C142.671 20.3474 142.732 20.2943 142.732 20.2222C142.732 20.1501 142.721 20.1273 142.513 20.0591C142.256 19.9718 142.152 19.8656 142.152 19.6797C142.152 19.4597 142.34 19.2889 142.582 19.2889C142.802 19.2889 142.998 19.4331 143.009 19.6721H142.705C142.69 19.6038 142.648 19.5697 142.582 19.5697C142.513 19.5697 142.463 19.6152 142.463 19.6797C142.463 19.748 142.471 19.7518 142.682 19.8201C142.955 19.9035 143.044 20.006 143.044 20.1956C143.044 20.4346 142.84 20.6281 142.579 20.6281Z" fill="#F3F3F3"/>
<path d="M144.505 20.0926H143.497C143.536 20.2482 143.67 20.343 143.855 20.343C143.986 20.343 144.063 20.3089 144.139 20.214H144.478C144.389 20.4758 144.12 20.6238 143.859 20.6238C143.463 20.6238 143.155 20.3317 143.155 19.9561C143.155 19.5805 143.459 19.2808 143.84 19.2808C144.228 19.2808 144.509 19.5729 144.509 19.9712C144.516 20.0206 144.512 20.0471 144.505 20.0926ZM143.851 19.5653C143.666 19.5653 143.54 19.6564 143.49 19.8195H144.209C144.17 19.6564 144.043 19.5653 143.851 19.5653Z" fill="#F3F3F3"/>
<path d="M145.559 20.5975V19.9715C145.559 19.63 145.466 19.5693 145.309 19.5693C145.209 19.5693 145.128 19.6111 145.078 19.6869C145.039 19.7477 145.028 19.8235 145.028 19.9943V20.5975H144.716V19.3151H145.005V19.4365C145.12 19.3265 145.224 19.2848 145.37 19.2848C145.551 19.2848 145.693 19.3493 145.778 19.4707C145.847 19.5693 145.87 19.6794 145.87 19.9108V20.5975H145.559Z" fill="#F3F3F3"/>
<path d="M147.52 20.6278C147.328 20.6278 147.205 20.5747 147.07 20.4343V20.5974H146.785V18.8864H147.097V19.4327C147.216 19.3151 147.331 19.2695 147.501 19.2695C147.874 19.2695 148.154 19.5617 148.154 19.9487C148.151 20.3319 147.885 20.6278 147.52 20.6278ZM147.455 19.5503C147.235 19.5503 147.078 19.7134 147.078 19.9449C147.078 20.1801 147.235 20.3432 147.462 20.3432C147.685 20.3432 147.839 20.1801 147.839 19.9487C147.839 19.721 147.678 19.5503 147.455 19.5503Z" fill="#F3F3F3"/>
<path d="M148.739 21.0256H148.404L148.646 20.4755L148.17 19.3146H148.527L148.816 20.1454L149.131 19.3146H149.489L148.739 21.0256Z" fill="#F3F3F3"/>
<path d="M151.158 20.6273C150.65 20.6273 150.246 20.229 150.246 19.7358C150.246 19.2539 150.646 18.8556 151.138 18.8556C151.496 18.8556 151.808 19.0453 151.958 19.3754H151.6C151.485 19.2236 151.346 19.1591 151.146 19.1591C150.815 19.1591 150.573 19.4133 150.573 19.7358C150.573 20.0545 150.835 20.32 151.154 20.32C151.319 20.32 151.442 20.2631 151.584 20.119H151.961C151.823 20.4301 151.511 20.6273 151.158 20.6273Z" fill="#F3F3F3"/>
<path d="M152.765 20.6279C152.385 20.6279 152.077 20.3281 152.077 19.9563C152.077 19.5883 152.388 19.2848 152.765 19.2848C153.158 19.2848 153.457 19.5845 153.457 19.9639C153.457 20.3244 153.142 20.6279 152.765 20.6279ZM152.765 19.5655C152.561 19.5655 152.388 19.7401 152.388 19.9487C152.388 20.1688 152.554 20.3433 152.765 20.3433C152.973 20.3433 153.142 20.1688 153.142 19.9563C153.142 19.7439 152.973 19.5655 152.765 19.5655Z" fill="#F3F3F3"/>
<path d="M154.477 20.5975V19.9715C154.477 19.63 154.384 19.5693 154.227 19.5693C154.127 19.5693 154.046 19.6111 153.996 19.6869C153.958 19.7477 153.946 19.8235 153.946 19.9943V20.5975H153.634V19.3151H153.923V19.4365C154.038 19.3265 154.142 19.2848 154.288 19.2848C154.469 19.2848 154.611 19.3493 154.692 19.4707C154.761 19.5693 154.784 19.6794 154.784 19.9108V20.5975H154.477Z" fill="#F3F3F3"/>
<path d="M155.434 20.6281C155.176 20.6281 154.992 20.4878 154.957 20.1918H155.272C155.303 20.3019 155.353 20.3474 155.445 20.3474C155.526 20.3474 155.588 20.2943 155.588 20.2222C155.588 20.1501 155.576 20.1273 155.369 20.0591C155.111 19.9718 155.007 19.8656 155.007 19.6797C155.007 19.4597 155.196 19.2889 155.438 19.2889C155.657 19.2889 155.853 19.4331 155.865 19.6721H155.561C155.545 19.6038 155.503 19.5697 155.438 19.5697C155.369 19.5697 155.319 19.6152 155.319 19.6797C155.319 19.748 155.326 19.7518 155.538 19.8201C155.811 19.9035 155.899 20.006 155.899 20.1956C155.899 20.4346 155.695 20.6281 155.434 20.6281Z" fill="#F3F3F3"/>
<path d="M156.941 20.5969V20.4755C156.826 20.5893 156.726 20.6272 156.568 20.6272C156.264 20.6272 156.072 20.4527 156.072 20.0012V19.3146H156.383V19.9405C156.383 20.282 156.48 20.3427 156.63 20.3427C156.733 20.3427 156.818 20.2972 156.868 20.2251C156.903 20.1682 156.918 20.0885 156.918 19.9178V19.3146H157.229V20.5969H156.941Z" fill="#F3F3F3"/>
<path d="M159.118 20.5975V19.8956C159.118 19.6376 159.018 19.5693 158.876 19.5693C158.703 19.5693 158.614 19.6604 158.614 19.9677V20.5975H158.303V19.8956C158.303 19.6414 158.214 19.5693 158.049 19.5693C157.868 19.5693 157.795 19.6642 157.795 19.9677V20.5975H157.484V19.3151H157.768V19.4365C157.861 19.3265 157.953 19.2848 158.107 19.2848C158.284 19.2848 158.399 19.3455 158.487 19.4821C158.591 19.3417 158.722 19.2848 158.903 19.2848C159.245 19.2848 159.43 19.4707 159.43 19.8577V20.5975H159.118Z" fill="#F3F3F3"/>
<path d="M160.972 20.0926H159.964C160.003 20.2482 160.137 20.343 160.322 20.343C160.453 20.343 160.529 20.3089 160.606 20.214H160.945C160.856 20.4758 160.587 20.6238 160.326 20.6238C159.93 20.6238 159.622 20.3317 159.622 19.9561C159.622 19.5805 159.926 19.2808 160.306 19.2808C160.695 19.2808 160.976 19.5729 160.976 19.9712C160.987 20.0206 160.983 20.0471 160.972 20.0926ZM160.318 19.5653C160.133 19.5653 160.006 19.6564 159.957 19.8195H160.676C160.637 19.6564 160.51 19.5653 160.318 19.5653Z" fill="#F3F3F3"/>
<path d="M161.498 19.8842V20.5975H161.187V19.3151H161.471V19.4403C161.552 19.3227 161.617 19.2848 161.752 19.2848H161.775V19.5807C161.59 19.5845 161.498 19.6869 161.498 19.8842Z" fill="#F3F3F3"/>
<path d="M162.333 20.6281C162.075 20.6281 161.891 20.4878 161.856 20.1918H162.171C162.202 20.3019 162.252 20.3474 162.344 20.3474C162.425 20.3474 162.487 20.2943 162.487 20.2222C162.487 20.1501 162.475 20.1273 162.267 20.0591C162.01 19.9718 161.906 19.8656 161.906 19.6797C161.906 19.4597 162.094 19.2889 162.337 19.2889C162.556 19.2889 162.752 19.4331 162.764 19.6721H162.46C162.444 19.6038 162.402 19.5697 162.337 19.5697C162.268 19.5697 162.218 19.6152 162.218 19.6797C162.218 19.748 162.225 19.7518 162.437 19.8201C162.71 19.9035 162.798 20.006 162.798 20.1956C162.798 20.4346 162.591 20.6281 162.333 20.6281Z" fill="#F3F3F3"/>
<path d="M18.1309 36.6325C20.5338 32.3142 26.6414 31.1091 33.1494 33.3185C32.5487 36.3313 30.0456 37.1347 27.8429 38.0385C24.3385 39.5449 20.2335 39.3441 18.1309 36.6325Z" fill="black"/>
<path d="M11.623 48.7842C14.3264 43.562 22.937 40.8505 26.3413 43.9637C24.539 48.985 15.0273 52.1987 11.623 48.7842Z" fill="black"/>
<path d="M23.4392 64.9529C25.4416 69.4721 20.8359 76.2007 14.5281 77.7071C14.3279 77.0041 13.9274 76.3011 14.0275 75.6985C14.6283 71.4806 17.3316 66.2584 23.4392 64.9529Z" fill="black"/>
<path d="M23.9403 26.9916C23.5398 21.4681 29.8476 16.045 34.954 17.2502C35.0541 22.7736 28.4459 28.6988 23.9403 26.9916Z" fill="black"/>
<path d="M0.410455 67.4635C6.81838 68.3673 11.1237 72.5853 11.1237 77.9079C7.319 78.5104 4.51553 76.7028 2.11256 73.9912C0.610703 72.1836 -0.690907 70.175 0.410455 67.4635Z" fill="black"/>
<path d="M22.6376 88.9549C17.9318 91.9677 9.02077 88.5532 8.01953 84.034C12.2247 81.0212 19.3335 83.331 22.6376 88.9549Z" fill="black"/>
<path d="M25.6406 87.0467C22.2364 83.0296 23.8384 75.3972 28.6443 72.6857C31.3477 75.3972 30.7469 78.7113 29.9459 81.8245C29.245 84.1343 28.6443 86.5445 25.6406 87.0467Z" fill="black"/>
<path d="M36.6544 79.8159C40.6593 83.5317 41.1599 91.6663 37.6556 94.8799C33.0499 92.6705 32.2489 83.3309 36.6544 79.8159Z" fill="black"/>
<path d="M5.71589 32.6155C10.9223 36.03 12.2239 43.6624 8.41923 46.9765C3.81353 45.4701 2.0113 36.2308 5.71589 32.6155Z" fill="black"/>
<path d="M11.623 63.2456C12.9247 57.6217 18.3313 53.4038 23.2374 54.1068C24.539 59.1281 17.4302 64.8525 11.623 63.2456Z" fill="black"/>
<path d="M0.409409 50.5918C5.01511 50.0897 9.42056 56.7179 8.41932 62.3417C3.313 63.346 -1.09245 57.0191 0.409409 50.5918Z" fill="black"/>
<path d="M35.1525 97.3907C31.3478 101.408 23.0375 100.805 19.5332 96.3864C21.9362 92.8715 31.0474 93.3736 35.1525 97.3907Z" fill="black"/>
<path d="M15.228 34.5235C10.7224 31.7116 10.422 22.2715 14.6272 19.9617C18.8325 23.6775 19.2329 31.2095 15.228 34.5235Z" fill="black"/>
<path d="M258.869 36.6325C256.466 32.3142 250.359 31.1091 243.851 33.3185C244.451 36.3313 246.954 37.1347 249.157 38.0385C252.661 39.5449 256.767 39.3441 258.869 36.6325Z" fill="black"/>
<path d="M265.377 48.7842C262.674 43.562 254.063 40.8505 250.659 43.9637C252.461 48.985 261.973 52.1987 265.377 48.7842Z" fill="black"/>
<path d="M253.561 64.9529C251.558 69.4721 256.164 76.2007 262.472 77.7071C262.672 77.0041 263.073 76.3011 262.972 75.6985C262.372 71.4806 259.668 66.2584 253.561 64.9529Z" fill="black"/>
<path d="M253.06 26.9916C253.46 21.4681 247.152 16.045 242.046 17.2502C241.946 22.7736 248.554 28.6988 253.06 26.9916Z" fill="black"/>
<path d="M276.59 67.4635C270.182 68.3673 265.876 72.5853 265.876 77.9079C269.681 78.5104 272.484 76.7028 274.887 73.9912C276.389 72.1836 277.691 70.175 276.59 67.4635Z" fill="black"/>
<path d="M254.362 88.9548C259.068 91.9676 267.979 88.553 268.98 84.0338C264.775 81.021 257.666 83.3309 254.362 88.9548Z" fill="black"/>
<path d="M251.359 87.0467C254.764 83.0296 253.162 75.3972 248.356 72.6857C245.652 75.3972 246.253 78.7113 247.054 81.8245C247.755 84.1343 248.356 86.5445 251.359 87.0467Z" fill="black"/>
<path d="M240.346 79.8159C236.341 83.5317 235.84 91.6663 239.344 94.8799C243.95 92.6705 244.751 83.3309 240.346 79.8159Z" fill="black"/>
<path d="M271.284 32.6155C266.078 36.03 264.776 43.6624 268.581 46.9765C273.186 45.4701 274.989 36.2308 271.284 32.6155Z" fill="black"/>
<path d="M265.377 63.2455C264.075 57.6216 258.669 53.4037 253.763 54.1067C252.461 59.128 259.57 64.8523 265.377 63.2455Z" fill="black"/>
<path d="M276.591 50.5918C271.985 50.0897 267.579 56.7179 268.581 62.3417C273.687 63.346 278.092 57.0191 276.591 50.5918Z" fill="black"/>
<path d="M241.847 97.3907C245.652 101.408 253.962 100.805 257.467 96.3864C255.064 92.8715 245.953 93.3736 241.847 97.3907Z" fill="black"/>
<path d="M261.772 34.5235C266.278 31.7116 266.578 22.2715 262.373 19.9617C258.168 23.6775 257.767 31.2095 261.772 34.5235Z" fill="black"/>
</svg>
