<svg width="277" height="94" viewBox="0 0 277 94" fill="none" xmlns="http://www.w3.org/2000/svg">
<path d="M118.997 75.3979C116.604 75.4106 114.871 76.5786 114.871 78.356C114.871 80.0317 116.369 81.1426 118.501 81.2949V83.6626H113.855V84.5005H124.189V83.6626H119.479V81.2949C121.625 81.1489 123.123 80.0381 123.123 78.356C123.123 76.5786 121.396 75.4106 118.997 75.3979ZM115.835 78.356C115.829 77.0801 117.168 76.2168 118.997 76.2231C120.825 76.2168 122.158 77.0801 122.158 78.356C122.158 79.6572 120.825 80.5015 118.997 80.5142C117.168 80.5015 115.829 79.6572 115.835 78.356ZM134.193 77.3784H127.464V74.8521H126.487V78.2036H134.193V77.3784ZM125.078 80.1333H135.412V79.3208H125.078V80.1333ZM126.373 81.936H133.101V83.0278H126.398V85.7954H134.485V84.9956H127.401V83.7896H134.079V81.1489H126.373V81.936ZM140.02 75.4868C138.236 75.4932 136.967 76.5723 136.973 78.1401C136.967 79.7144 138.236 80.7871 140.02 80.7935C141.791 80.7871 143.048 79.7144 143.054 78.1401C143.048 76.5723 141.791 75.4932 140.02 75.4868ZM136.389 82.6343L136.529 83.4849C138.56 83.4849 141.334 83.4722 143.917 82.9897L143.841 82.2534C141.347 82.6216 138.471 82.6406 136.389 82.6343ZM137.951 78.1401C137.944 77.0928 138.814 76.3628 140.02 76.3628C141.213 76.3628 142.083 77.0928 142.077 78.1401C142.083 79.1938 141.213 79.9175 140.02 79.9175C138.814 79.9175 137.944 79.1938 137.951 78.1401ZM144.59 85.9731H145.581V74.6616H144.59V85.9731ZM153.528 75.2964C152.011 75.2837 150.944 76.3374 150.951 77.8481C150.944 79.3525 152.011 80.4062 153.528 80.3999C155.032 80.4062 156.111 79.3525 156.118 77.8481C156.111 76.3374 155.032 75.2837 153.528 75.2964ZM151.852 77.8481C151.839 76.8325 152.557 76.1152 153.528 76.1089C154.486 76.1152 155.197 76.8325 155.204 77.8481C155.197 78.8511 154.486 79.5684 153.528 79.5747C152.557 79.5684 151.839 78.8511 151.852 77.8481ZM152.969 85.7954H160.409V81.3267H159.431V82.6724H153.959V81.3267H152.969V85.7954ZM153.959 84.9829V83.4976H159.431V84.9829H153.959ZM157.019 80.73H157.958V78.1021H159.457V80.8188H160.409V74.6743H159.457V77.2642H157.958V74.8901H157.019V80.73Z" fill="black"/>
<path d="M81.793 64.4292L85.3477 61.1616C85.6986 60.8244 85.9697 60.5464 86.1611 60.3276C86.3571 60.1043 86.5075 59.8833 86.6123 59.6646C86.7171 59.4412 86.7695 59.202 86.7695 58.9468C86.7695 58.6597 86.7012 58.409 86.5645 58.1948C86.4323 57.9761 86.2454 57.8097 86.0039 57.6958C85.7669 57.5819 85.498 57.5249 85.1973 57.5249C84.7279 57.5203 84.3542 57.6571 84.0762 57.9351C83.7982 58.2085 83.6615 58.5822 83.666 59.0562H81.7109C81.7109 58.4227 81.8568 57.8667 82.1484 57.3882C82.4447 56.9051 82.8571 56.5337 83.3857 56.2739C83.9189 56.0142 84.5319 55.8843 85.2246 55.8843C85.9219 55.8843 86.5371 56.0096 87.0703 56.2603C87.6035 56.5063 88.016 56.8504 88.3076 57.2925C88.6038 57.7345 88.752 58.2404 88.752 58.8101C88.752 59.202 88.6768 59.578 88.5264 59.938C88.376 60.2935 88.1139 60.6899 87.7402 61.1274C87.3711 61.5649 86.847 62.0913 86.168 62.7065L84.6641 64.1694V64.2241H88.8887V65.9194H81.8066L81.793 64.4292ZM94.1934 66.0562C93.3685 66.0562 92.6576 65.8579 92.0605 65.4614C91.4635 65.0604 91.0055 64.4793 90.6865 63.7183C90.3721 62.9572 90.2148 62.0412 90.2148 60.9702C90.2148 59.9038 90.3743 58.9901 90.6934 58.229C91.0124 57.4634 91.4704 56.8823 92.0674 56.4858C92.6644 56.0848 93.373 55.8843 94.1934 55.8843C95.0137 55.8843 95.7223 56.0848 96.3193 56.4858C96.9163 56.8823 97.3743 57.4634 97.6934 58.229C98.0124 58.9901 98.1719 59.9038 98.1719 60.9702C98.1719 62.0457 98.0124 62.964 97.6934 63.7251C97.3743 64.4862 96.9163 65.0649 96.3193 65.4614C95.7269 65.8579 95.0182 66.0562 94.1934 66.0562ZM92.3203 61.0317C92.3203 62.1255 92.4867 62.9549 92.8193 63.52C93.152 64.0806 93.61 64.3608 94.1934 64.3608C94.7812 64.3608 95.2415 64.076 95.5742 63.5063C95.9069 62.9321 96.071 62.0868 96.0664 60.9702C96.0664 60.2319 95.9912 59.6099 95.8408 59.104C95.6904 58.5936 95.474 58.2108 95.1914 57.9556C94.9089 57.7004 94.5762 57.5705 94.1934 57.5659C93.6055 57.5705 93.1452 57.8667 92.8125 58.4546C92.4844 59.0425 92.3203 59.9015 92.3203 61.0317ZM99.5801 64.4292L103.135 61.1616C103.486 60.8244 103.757 60.5464 103.948 60.3276C104.144 60.1043 104.295 59.8833 104.399 59.6646C104.504 59.4412 104.557 59.202 104.557 58.9468C104.557 58.6597 104.488 58.409 104.352 58.1948C104.219 57.9761 104.033 57.8097 103.791 57.6958C103.554 57.5819 103.285 57.5249 102.984 57.5249C102.515 57.5203 102.141 57.6571 101.863 57.9351C101.585 58.2085 101.449 58.5822 101.453 59.0562H99.498C99.498 58.4227 99.6439 57.8667 99.9355 57.3882C100.232 56.9051 100.644 56.5337 101.173 56.2739C101.706 56.0142 102.319 55.8843 103.012 55.8843C103.709 55.8843 104.324 56.0096 104.857 56.2603C105.391 56.5063 105.803 56.8504 106.095 57.2925C106.391 57.7345 106.539 58.2404 106.539 58.8101C106.539 59.202 106.464 59.578 106.313 59.938C106.163 60.2935 105.901 60.6899 105.527 61.1274C105.158 61.5649 104.634 62.0913 103.955 62.7065L102.451 64.1694V64.2241H106.676V65.9194H99.5938L99.5801 64.4292ZM112.404 65.9194H110.34V57.9761H110.285L108.016 59.3979V57.5796L110.463 56.021H112.404V65.9194ZM120.43 55.4194C120.981 55.4194 121.476 55.5402 121.913 55.7817C122.351 56.0233 122.692 56.3651 122.938 56.8071C123.189 57.2446 123.314 57.7437 123.314 58.3042C123.314 58.8602 123.189 59.3569 122.938 59.7944C122.692 60.2319 122.351 60.5737 121.913 60.8198C121.476 61.0659 120.981 61.189 120.43 61.189C119.878 61.189 119.386 61.0659 118.953 60.8198C118.52 60.5737 118.181 60.2319 117.935 59.7944C117.693 59.3569 117.572 58.8602 117.572 58.3042C117.572 57.7437 117.693 57.2446 117.935 56.8071C118.176 56.3651 118.513 56.0233 118.946 55.7817C119.384 55.5402 119.878 55.4194 120.43 55.4194ZM119.131 58.3042C119.126 58.7554 119.243 59.1108 119.479 59.3706C119.721 59.6258 120.038 59.7534 120.43 59.7534C120.817 59.7534 121.129 59.6258 121.366 59.3706C121.603 59.1108 121.724 58.7554 121.729 58.3042C121.724 57.8348 121.603 57.4702 121.366 57.2104C121.129 56.9507 120.817 56.8231 120.43 56.8276C120.038 56.8231 119.721 56.9507 119.479 57.2104C119.243 57.4702 119.126 57.8348 119.131 58.3042ZM119.705 62.0093H121.428V63.144H126.486V62.0093H128.209V67.0405H119.705V62.0093ZM126.486 65.646V64.5249H121.428V65.646H126.486ZM123.889 54.9683H125.516V57.3335H126.555V54.7495H128.209V61.5034H126.555V58.7554H125.516V61.4214H123.889V54.9683ZM136.166 56.3765C136.161 56.9963 136.337 57.6047 136.692 58.2017C137.048 58.7941 137.561 59.3091 138.23 59.7466C138.9 60.1795 139.689 60.4735 140.596 60.6284L139.83 62.0776C138.764 61.868 137.834 61.4784 137.041 60.9087C136.253 60.3345 135.653 59.6418 135.243 58.8306C134.824 59.6372 134.218 60.3276 133.425 60.9019C132.636 61.4715 131.714 61.8634 130.656 62.0776L129.904 60.6284C130.793 60.4689 131.57 60.1704 132.235 59.7329C132.901 59.2954 133.411 58.7804 133.767 58.188C134.122 57.591 134.302 56.9871 134.307 56.3765V55.4741H136.166V56.3765ZM129.617 64.2104H141.006V65.646H129.617V64.2104ZM151.861 62.2827H148.279V64.3882H153.105V65.7827H141.717V64.3882H146.516V62.2827H143.057V55.5972H151.766V56.9917H144.834V58.2358H151.479V59.603H144.834V60.9019H151.861V62.2827ZM157.248 55.6108C157.804 55.6108 158.308 55.7567 158.759 56.0483C159.215 56.34 159.586 56.7593 159.873 57.3062C160.165 57.853 160.352 58.4956 160.434 59.2339H162.594V54.7358H164.316V67.2046H162.594V60.6284H160.454C160.395 61.4123 160.222 62.0959 159.935 62.6792C159.647 63.2625 159.271 63.7091 158.807 64.019C158.346 64.3289 157.827 64.4839 157.248 64.4839C156.619 64.4839 156.059 64.3039 155.566 63.9438C155.079 63.5793 154.698 63.062 154.425 62.3921C154.151 61.7176 154.017 60.9338 154.021 60.0405C154.017 59.1519 154.151 58.3726 154.425 57.7026C154.698 57.0327 155.079 56.5177 155.566 56.1577C156.059 55.7931 156.619 55.6108 157.248 55.6108ZM155.689 60.0405C155.689 60.6466 155.753 61.1662 155.881 61.5991C156.008 62.0275 156.191 62.3534 156.428 62.5767C156.665 62.7954 156.938 62.9025 157.248 62.8979C157.562 62.9025 157.836 62.7954 158.068 62.5767C158.305 62.3534 158.488 62.0275 158.615 61.5991C158.743 61.1662 158.807 60.6466 158.807 60.0405C158.807 59.4344 158.743 58.9172 158.615 58.4888C158.488 58.0604 158.305 57.7368 158.068 57.5181C157.836 57.2948 157.562 57.1831 157.248 57.1831C156.938 57.1831 156.665 57.2948 156.428 57.5181C156.191 57.7368 156.008 58.0627 155.881 58.4956C155.753 58.924 155.689 59.439 155.689 60.0405ZM173.805 56.8687C173.805 57.4246 173.907 57.9556 174.112 58.4614C174.317 58.9673 174.632 59.4207 175.056 59.8218C175.479 60.2183 176.01 60.5236 176.648 60.7378L175.705 62.105C175.062 61.868 174.509 61.5308 174.044 61.0933C173.584 60.6558 173.219 60.1408 172.95 59.5483C172.677 60.2183 172.294 60.797 171.802 61.2847C171.31 61.7677 170.71 62.1369 170.004 62.3921L169.061 61.0249C169.73 60.8062 170.286 60.4849 170.729 60.061C171.175 59.6372 171.503 59.1519 171.713 58.605C171.927 58.0535 172.036 57.4702 172.041 56.855V55.5015H173.805V56.8687ZM171.344 62.9663H173.107V65.564H179.889V66.9585H171.344V62.9663ZM175.555 57.3882H177.893V54.7495H179.629V63.937H177.893V58.7964H175.555V57.3882ZM191.729 62.1187H189.992V59.1792H188.051V57.771H189.992V54.7358H191.729V62.1187ZM181.16 60.7515C181.812 60.5327 182.361 60.2205 182.808 59.8149C183.254 59.4093 183.589 58.9536 183.812 58.4478C184.036 57.9419 184.154 57.4201 184.168 56.8823H181.666V55.4878H188.42V56.8823H185.945C185.959 57.3836 186.071 57.8667 186.28 58.3315C186.49 58.7918 186.807 59.2065 187.23 59.5757C187.659 59.9448 188.183 60.2319 188.803 60.437L187.941 61.8042C187.276 61.59 186.702 61.271 186.219 60.8472C185.74 60.4188 185.362 59.9175 185.084 59.3433C184.801 59.995 184.407 60.5623 183.901 61.0454C183.396 61.5239 182.783 61.8862 182.062 62.1323L181.16 60.7515ZM183.197 64.7983C183.197 64.3016 183.368 63.8732 183.71 63.5132C184.056 63.1486 184.551 62.8706 185.193 62.6792C185.836 62.4878 186.597 62.3921 187.477 62.3921C188.361 62.3921 189.124 62.4878 189.767 62.6792C190.409 62.8706 190.904 63.1463 191.25 63.5063C191.596 63.8664 191.77 64.297 191.77 64.7983C191.77 65.2996 191.596 65.728 191.25 66.0835C190.904 66.4435 190.409 66.717 189.767 66.9038C189.124 67.0952 188.361 67.1909 187.477 67.1909C186.597 67.1909 185.836 67.0952 185.193 66.9038C184.551 66.717 184.056 66.4435 183.71 66.0835C183.368 65.7235 183.197 65.2951 183.197 64.7983ZM184.934 64.7983C184.934 65.1493 185.15 65.4159 185.583 65.5981C186.016 65.7759 186.647 65.8647 187.477 65.8647C188.311 65.8647 188.944 65.7759 189.377 65.5981C189.81 65.4204 190.029 65.1538 190.033 64.7983C190.029 64.4474 189.812 64.1831 189.384 64.0054C188.96 63.8231 188.34 63.7319 187.524 63.7319C185.797 63.7319 184.934 64.0874 184.934 64.7983Z" fill="black"/>
<path d="M153 28.0959C151.114 30.8766 149.543 33.6058 147.605 36.0775C146.138 37.9313 143.991 38.5493 141.738 37.4679C138.857 36.0776 136.081 36.1805 133.2 37.5194C130.843 38.6008 128.905 37.6739 127.334 35.9746C122.829 31.0311 120.472 25.2123 121.1 18.5695C121.834 10.9484 129.272 6.88035 134.929 10.1245C136.762 11.1544 138.438 10.4334 140.167 9.86701C144.252 8.47667 148.076 8.73414 151.114 12.1842C151.219 12.2872 151.271 12.4932 151.429 12.8022C149.071 14.8619 147.081 17.2307 147.395 20.6293C147.657 23.9249 149.648 26.1907 153 28.0959Z" fill="black"/>
<path d="M137.088 9C136.363 4.22919 140.211 -0.0537046 144.952 0.000509198C145.454 4.60868 141.996 8.6205 137.088 9Z" fill="black"/>
<path d="M18.1328 30.552C20.5358 26.2336 26.6433 25.0285 33.1514 27.2379C32.5506 30.2507 30.0476 31.0541 27.8448 31.958C24.3405 33.4644 20.2354 33.2635 18.1328 30.552Z" fill="black"/>
<path d="M11.625 42.7036C14.3283 37.4814 22.939 34.7699 26.3432 37.8831C24.541 42.9045 15.0292 46.1181 11.625 42.7036Z" fill="black"/>
<path d="M23.4392 58.8723C25.4416 63.3915 20.8359 70.1201 14.5281 71.6265C14.3279 70.9235 13.9274 70.2205 14.0275 69.618C14.6283 65.4 17.3316 60.1779 23.4392 58.8723Z" fill="black"/>
<path d="M23.9394 20.911C23.5389 15.3875 29.8467 9.96448 34.953 11.1696C35.0531 16.6931 28.4449 22.6182 23.9394 20.911Z" fill="black"/>
<path d="M0.410455 61.3829C6.81838 62.2868 11.1237 66.5047 11.1237 71.8273C7.319 72.4299 4.51553 70.6222 2.11256 67.9107C0.610703 66.103 -0.690907 64.0945 0.410455 61.3829Z" fill="black"/>
<path d="M22.6376 82.8743C17.9318 85.8871 9.02077 82.4726 8.01953 77.9534C12.2247 74.9406 19.3335 77.2504 22.6376 82.8743Z" fill="black"/>
<path d="M25.6416 80.9661C22.2374 76.949 23.8393 69.3166 28.6453 66.6051C31.3486 69.3166 30.7479 72.6307 29.9469 75.7439C29.246 78.0537 28.6453 80.464 25.6416 80.9661Z" fill="black"/>
<path d="M36.6553 73.7354C40.6603 77.4511 41.1609 85.5857 37.6566 88.7994C33.0509 86.59 32.2499 77.2503 36.6553 73.7354Z" fill="black"/>
<path d="M5.71686 26.5349C10.9233 29.9494 12.2249 37.5818 8.42021 40.8959C3.81451 39.3895 2.01228 30.1503 5.71686 26.5349Z" fill="black"/>
<path d="M11.625 57.1651C12.9266 51.5412 18.3333 47.3233 23.2394 48.0262C24.541 53.0476 17.4322 58.7719 11.625 57.1651Z" fill="black"/>
<path d="M0.410385 44.5113C5.01608 44.0091 9.42153 50.6373 8.4203 56.2612C3.31398 57.2654 -1.09147 50.9386 0.410385 44.5113Z" fill="black"/>
<path d="M35.1535 91.3101C31.3488 95.3272 23.0385 94.7246 19.5342 90.3059C21.9372 86.7909 31.0484 87.2931 35.1535 91.3101Z" fill="black"/>
<path d="M15.229 28.443C10.7234 25.631 10.423 16.1909 14.6282 13.8811C18.8334 17.5969 19.2339 25.1289 15.229 28.443Z" fill="black"/>
<path d="M258.869 30.552C256.466 26.2336 250.359 25.0285 243.851 27.2379C244.451 30.2507 246.954 31.0541 249.157 31.958C252.661 33.4644 256.767 33.2635 258.869 30.552Z" fill="black"/>
<path d="M265.377 42.7036C262.674 37.4814 254.063 34.7699 250.659 37.8831C252.461 42.9045 261.973 46.1181 265.377 42.7036Z" fill="black"/>
<path d="M253.561 58.8723C251.558 63.3915 256.164 70.1201 262.472 71.6265C262.672 70.9235 263.073 70.2205 262.972 69.618C262.372 65.4 259.668 60.1779 253.561 58.8723Z" fill="black"/>
<path d="M253.06 20.911C253.46 15.3875 247.152 9.96448 242.046 11.1696C241.946 16.6931 248.554 22.6182 253.06 20.911Z" fill="black"/>
<path d="M276.59 61.3829C270.182 62.2868 265.876 66.5047 265.876 71.8273C269.681 72.4299 272.484 70.6222 274.887 67.9107C276.389 66.103 277.691 64.0945 276.59 61.3829Z" fill="black"/>
<path d="M254.362 82.8743C259.068 85.8871 267.979 82.4726 268.98 77.9534C264.775 74.9406 257.666 77.2504 254.362 82.8743Z" fill="black"/>
<path d="M251.359 80.9661C254.764 76.949 253.162 69.3166 248.356 66.6051C245.652 69.3166 246.253 72.6307 247.054 75.7439C247.755 78.0537 248.356 80.464 251.359 80.9661Z" fill="black"/>
<path d="M240.346 73.7354C236.341 77.4511 235.84 85.5857 239.344 88.7994C243.95 86.59 244.751 77.2503 240.346 73.7354Z" fill="black"/>
<path d="M271.284 26.5349C266.078 29.9494 264.776 37.5818 268.581 40.8959C273.186 39.3895 274.989 30.1503 271.284 26.5349Z" fill="black"/>
<path d="M265.377 57.1651C264.075 51.5412 258.669 47.3233 253.763 48.0262C252.461 53.0476 259.57 58.7719 265.377 57.1651Z" fill="black"/>
<path d="M276.591 44.5113C271.985 44.0091 267.579 50.6373 268.581 56.2612C273.687 57.2654 278.092 50.9386 276.591 44.5113Z" fill="black"/>
<path d="M241.847 91.3101C245.652 95.3272 253.962 94.7246 257.467 90.3059C255.064 86.7909 245.953 87.2931 241.847 91.3101Z" fill="black"/>
<path d="M261.772 28.443C266.278 25.631 266.578 16.1909 262.373 13.8811C258.168 17.5969 257.767 25.1289 261.772 28.443Z" fill="black"/>
</svg>
