<svg width="259" height="303" viewBox="0 0 259 303" fill="none" xmlns="http://www.w3.org/2000/svg">
<g filter="url(#filter0_d_541_3668)">
<rect x="26.6655" y="10.481" width="222.146" height="267.009" rx="27.4593" fill="white"/>
</g>
<path d="M64.2371 113.618H67.5654V95.0031H64.2371V113.618ZM81.8462 113.889C85.3035 113.889 87.6126 111.722 87.8578 108.871L87.8707 108.781H84.8391L84.8133 108.897C84.5166 110.329 83.4845 111.296 81.8591 111.296C79.8337 111.296 78.5179 109.645 78.5179 106.794V106.781C78.5179 103.982 79.8208 102.266 81.8462 102.266C83.549 102.266 84.5295 103.337 84.8004 104.666L84.8262 104.782H87.8578L87.8449 104.678C87.6513 101.944 85.4067 99.6602 81.8075 99.6602C77.8212 99.6602 75.2412 102.395 75.2412 106.755V106.768C75.2412 111.154 77.7825 113.889 81.8462 113.889ZM93.8306 113.851C95.6367 113.851 97.1589 112.948 97.9459 111.516H98.0233V113.618H101.235V104.214C101.235 101.466 99.0295 99.6602 95.6109 99.6602C92.1407 99.6602 90.0379 101.479 89.8444 103.904L89.8315 104.059H92.8115L92.8373 103.943C93.0437 102.937 93.9725 102.227 95.4948 102.227C97.1202 102.227 98.0233 103.066 98.0233 104.446V105.388L94.4498 105.607C91.1344 105.814 89.251 107.271 89.251 109.697V109.722C89.251 112.161 91.0957 113.851 93.8306 113.851ZM92.4503 109.593V109.581C92.4503 108.497 93.3146 107.813 94.9014 107.71L98.0233 107.517V108.549C98.0233 110.174 96.63 111.4 94.7853 111.4C93.3791 111.4 92.4503 110.716 92.4503 109.593ZM103.828 113.618H107.041V105.685C107.041 103.711 108.215 102.369 110.059 102.369C111.891 102.369 112.794 103.466 112.794 105.414V113.618H116.006V104.769C116.006 101.595 114.291 99.6602 111.285 99.6602C109.208 99.6602 107.815 100.615 107.105 102.085H107.041V99.944H103.828V113.618ZM117.903 101.84H120.147L122.031 95.0031H118.909L117.903 101.84ZM129.423 113.889C130.068 113.889 130.635 113.825 131.01 113.773V111.361C130.79 111.374 130.545 111.412 130.236 111.412C129.062 111.412 128.468 110.987 128.468 109.645V102.421H131.01V99.944H128.468V96.4738H125.204V99.944H123.269V102.421H125.204V109.916C125.204 112.728 126.559 113.889 129.423 113.889ZM144.671 118.404C148.631 118.404 151.121 116.327 151.121 113.231V99.944H147.909V102.266H147.832C147.058 100.692 145.561 99.6602 143.626 99.6602C140.169 99.6602 137.937 102.318 137.937 106.639V106.652C137.937 110.909 140.143 113.541 143.575 113.541C145.535 113.541 147.083 112.612 147.845 111.154H147.909V113.128C147.909 114.87 146.761 115.979 144.671 115.979C142.994 115.979 141.897 115.386 141.549 114.599L141.51 114.496H138.35L138.376 114.612C138.763 116.753 141.046 118.404 144.671 118.404ZM144.581 111.064C142.517 111.064 141.214 109.4 141.214 106.704V106.691C141.214 104.033 142.517 102.369 144.581 102.369C146.567 102.369 147.922 104.059 147.922 106.704V106.717C147.922 109.374 146.58 111.064 144.581 111.064ZM159.765 113.889C163.338 113.889 165.35 111.774 165.776 109.671L165.815 109.529H162.809L162.783 109.619C162.474 110.535 161.429 111.387 159.829 111.387C157.739 111.387 156.423 109.968 156.372 107.568H165.944V106.536C165.944 102.408 163.519 99.6602 159.61 99.6602C155.701 99.6602 153.185 102.498 153.185 106.807V106.82C153.185 111.167 155.662 113.889 159.765 113.889ZM159.648 102.176C161.351 102.176 162.59 103.259 162.822 105.427H156.41C156.668 103.324 157.946 102.176 159.648 102.176ZM173.104 113.889C173.749 113.889 174.316 113.825 174.69 113.773V111.361C174.471 111.374 174.226 111.412 173.916 111.412C172.742 111.412 172.149 110.987 172.149 109.645V102.421H174.69V99.944H172.149V96.4738H168.885V99.944H166.95V102.421H168.885V109.916C168.885 112.728 170.24 113.889 173.104 113.889ZM189.822 113.889C193.28 113.889 195.473 111.18 195.473 106.781V106.768C195.473 102.356 193.267 99.6602 189.835 99.6602C187.9 99.6602 186.339 100.654 185.565 102.292H185.488V95.0031H182.276V113.618H185.488V111.296H185.565C186.339 112.909 187.849 113.889 189.822 113.889ZM188.855 111.18C186.868 111.18 185.488 109.464 185.488 106.781V106.768C185.488 104.098 186.881 102.369 188.855 102.369C190.906 102.369 192.196 104.046 192.196 106.768V106.781C192.196 109.503 190.919 111.18 188.855 111.18ZM198.879 118.159C201.73 118.159 203.329 117.089 204.374 114.083L209.289 99.944H205.909L202.697 110.884H202.607L199.407 99.944H195.899L200.814 113.631L200.62 114.186C200.207 115.334 199.524 115.682 198.298 115.682C197.846 115.682 197.472 115.618 197.227 115.566V118.017C197.614 118.082 198.259 118.159 198.879 118.159Z" fill="#29C195"/>
<path d="M66.8043 145.889C70.8163 145.889 73.4222 143.219 73.4222 138.781V138.755C73.4222 134.343 70.7776 131.66 66.7914 131.66C62.8181 131.66 60.1864 134.369 60.1864 138.755V138.781C60.1864 143.206 62.7794 145.889 66.8043 145.889ZM66.8172 143.296C64.766 143.296 63.4631 141.658 63.4631 138.781V138.755C63.4631 135.917 64.7918 134.266 66.7914 134.266C68.8297 134.266 70.1455 135.904 70.1455 138.755V138.781C70.1455 141.645 68.8426 143.296 66.8172 143.296ZM75.4863 145.618H78.6985V137.685C78.6985 135.711 79.8724 134.369 81.7172 134.369C83.549 134.369 84.452 135.466 84.452 137.414V145.618H87.6642V136.769C87.6642 133.595 85.9485 131.66 82.9427 131.66C80.8657 131.66 79.4725 132.615 78.763 134.085H78.6985V131.944H75.4863V145.618ZM100.616 145.889C101.261 145.889 101.829 145.825 102.203 145.773V143.361C101.984 143.374 101.739 143.412 101.429 143.412C100.255 143.412 99.6616 142.987 99.6616 141.645V134.421H102.203V131.944H99.6616V128.474H96.3978V131.944H94.4627V134.421H96.3978V141.916C96.3978 144.728 97.7523 145.889 100.616 145.889ZM104.499 145.618H107.711V137.736C107.711 135.75 108.898 134.369 110.717 134.369C112.562 134.369 113.62 135.634 113.62 137.736V145.618H116.832V137.104C116.832 133.802 114.949 131.66 112.007 131.66C109.956 131.66 108.498 132.602 107.789 134.24H107.711V127.003H104.499V145.618ZM121.128 129.983C122.134 129.983 122.908 129.183 122.908 128.229C122.908 127.248 122.134 126.461 121.128 126.461C120.122 126.461 119.335 127.248 119.335 128.229C119.335 129.183 120.122 129.983 121.128 129.983ZM119.515 145.618H122.728V131.944H119.515V145.618ZM130.803 145.889C134.157 145.889 136.544 144.161 136.544 141.581V141.568C136.544 139.581 135.447 138.472 132.622 137.839L130.339 137.336C128.92 137.014 128.391 136.498 128.391 135.711V135.698C128.391 134.692 129.281 134.034 130.7 134.034C132.196 134.034 133.074 134.834 133.216 135.93L133.228 136.033H136.221L136.208 135.892C136.092 133.531 134.106 131.66 130.7 131.66C127.397 131.66 125.217 133.35 125.217 135.853V135.866C125.217 137.891 126.533 139.168 129.152 139.749L131.422 140.252C132.841 140.574 133.319 141.039 133.319 141.864V141.877C133.319 142.884 132.377 143.516 130.816 143.516C129.191 143.516 128.3 142.819 128.055 141.645L128.03 141.529H124.869L124.882 141.645C125.166 144.186 127.217 145.889 130.803 145.889ZM149.225 145.889C152.579 145.889 154.966 144.161 154.966 141.581V141.568C154.966 139.581 153.869 138.472 151.044 137.839L148.76 137.336C147.341 137.014 146.813 136.498 146.813 135.711V135.698C146.813 134.692 147.703 134.034 149.122 134.034C150.618 134.034 151.495 134.834 151.637 135.93L151.65 136.033H154.643L154.63 135.892C154.514 133.531 152.527 131.66 149.122 131.66C145.819 131.66 143.639 133.35 143.639 135.853V135.866C143.639 137.891 144.955 139.168 147.574 139.749L149.844 140.252C151.263 140.574 151.74 141.039 151.74 141.864V141.877C151.74 142.884 150.799 143.516 149.238 143.516C147.612 143.516 146.722 142.819 146.477 141.645L146.451 141.529H143.291L143.304 141.645C143.587 144.186 145.639 145.889 149.225 145.889ZM161.055 145.851C162.861 145.851 164.383 144.948 165.17 143.516H165.247V145.618H168.459V136.214C168.459 133.466 166.253 131.66 162.835 131.66C159.365 131.66 157.262 133.479 157.068 135.904L157.055 136.059H160.035L160.061 135.943C160.268 134.937 161.196 134.227 162.719 134.227C164.344 134.227 165.247 135.066 165.247 136.446V137.388L161.674 137.607C158.358 137.814 156.475 139.271 156.475 141.697V141.722C156.475 144.161 158.32 145.851 161.055 145.851ZM159.674 141.593V141.581C159.674 140.497 160.539 139.813 162.125 139.71L165.247 139.517V140.549C165.247 142.174 163.854 143.4 162.009 143.4C160.603 143.4 159.674 142.716 159.674 141.593ZM171.143 145.618H174.355V127.003H171.143V145.618ZM181.128 145.851C182.934 145.851 184.456 144.948 185.243 143.516H185.32V145.618H188.532V136.214C188.532 133.466 186.326 131.66 182.908 131.66C179.438 131.66 177.335 133.479 177.141 135.904L177.128 136.059H180.108L180.134 135.943C180.341 134.937 181.269 134.227 182.792 134.227C184.417 134.227 185.32 135.066 185.32 136.446V137.388L181.747 137.607C178.431 137.814 176.548 139.271 176.548 141.697V141.722C176.548 144.161 178.393 145.851 181.128 145.851ZM179.747 141.593V141.581C179.747 140.497 180.612 139.813 182.198 139.71L185.32 139.517V140.549C185.32 142.174 183.927 143.4 182.082 143.4C180.676 143.4 179.747 142.716 179.747 141.593ZM191.125 145.618H194.338V137.685C194.338 135.659 195.434 134.511 197.253 134.511C197.795 134.511 198.285 134.589 198.556 134.692V131.789C198.311 131.725 197.937 131.66 197.537 131.66C195.963 131.66 194.828 132.654 194.402 134.305H194.338V131.944H191.125V145.618ZM202.039 150.159C204.89 150.159 206.49 149.089 207.535 146.083L212.45 131.944H209.07L205.858 142.884H205.767L202.568 131.944H199.059L203.974 145.631L203.781 146.186C203.368 147.334 202.684 147.682 201.459 147.682C201.007 147.682 200.633 147.618 200.388 147.566V150.017C200.775 150.082 201.42 150.159 202.039 150.159Z" fill="#AAAAAA"/>
<path d="M97.4091 173.427H94.8232V191.709H97.4091V173.427ZM82.6752 181.205C82.6652 185.214 84.6998 187.72 87.5063 187.72C90.2526 187.72 92.2973 185.214 92.2973 181.205C92.2973 177.226 90.2526 174.71 87.5063 174.71C84.6998 174.71 82.6652 177.226 82.6752 181.205ZM85.1409 181.205C85.1308 178.499 86.083 177.015 87.5063 177.015C88.8895 177.015 89.8216 178.499 89.8317 181.205C89.8216 183.921 88.8895 185.405 87.5063 185.395C86.083 185.405 85.1308 183.921 85.1409 181.205ZM119.16 173.447H116.614V175.993H112.435C111.552 175.061 110.29 174.499 108.876 174.489C106.11 174.499 104.005 176.494 104.025 179.24C104.005 181.947 106.11 183.951 108.876 183.951C110.3 183.951 111.562 183.38 112.445 182.448H116.614V186.778H119.16V173.447ZM106.451 179.24C106.441 177.697 107.453 176.775 108.876 176.775C110.219 176.775 111.252 177.697 111.262 179.24C111.252 180.764 110.219 181.686 108.876 181.686C107.453 181.686 106.441 180.764 106.451 179.24ZM107.052 191.348H119.601V189.304H109.618V185.435H107.052V191.348ZM113.537 178.038H116.614V180.403H113.547C113.637 180.032 113.687 179.641 113.687 179.24C113.687 178.819 113.637 178.418 113.537 178.038ZM137.753 182.247H130.697V180.824H135.628V173.948H133.082V175.532H125.766V173.948H123.24V180.824H128.131V182.247H121.115V184.272H137.753V182.247ZM123.039 188.421C123.039 190.526 125.395 191.679 129.414 191.669C133.373 191.679 135.769 190.526 135.769 188.421C135.769 186.327 133.373 185.144 129.414 185.154C125.395 185.144 123.039 186.327 123.039 188.421ZM125.605 188.421C125.595 187.499 126.888 187.088 129.414 187.098C131.89 187.088 133.173 187.499 133.183 188.421C133.173 189.314 131.89 189.745 129.414 189.745C126.888 189.745 125.595 189.314 125.605 188.421ZM125.766 178.839V177.436H133.082V178.839H125.766ZM146.764 174.349C142.905 174.359 139.909 176.444 139.909 179.601C139.909 182.789 142.905 184.863 146.764 184.853C150.613 184.863 153.63 182.789 153.64 179.601C153.63 176.444 150.613 174.359 146.764 174.349ZM138.445 189.444H155.144V187.379H138.445V189.444ZM142.394 179.601C142.384 177.647 144.229 176.414 146.764 176.434C149.28 176.414 151.104 177.647 151.114 179.601C151.104 181.586 149.28 182.768 146.764 182.768C144.229 182.768 142.384 181.586 142.394 179.601ZM172.474 187.539H165.358V184.793H170.97V182.708H160.266V180.664H170.55V174.61H157.68V176.654H168.024V178.659H157.7V184.793H162.812V187.539H155.775V189.644H172.474V187.539ZM187.92 178.398H177.716V174.068H175.171V180.403H187.92V178.398ZM173.086 184.372H189.784V182.368H173.086V184.372ZM175.01 191.268H188.04V189.223H177.576V185.856H175.01V191.268ZM93.189 214.054H80.6601V216.078H90.6431V220.689H93.189V214.054ZM78.5753 212.23H87.2353V208.842H90.6431V213.212H93.189V202.427H90.6431V206.797H87.2353V203.73H78.5753V212.23ZM81.1212 210.205V205.795H84.7295V210.205H81.1212ZM110.179 204.011H96.8679V206.035H107.613C107.603 208.18 107.573 210.746 106.871 214.194L109.437 214.455C110.168 210.586 110.168 208.02 110.179 205.735V204.011ZM95.1439 218.444H111.782V216.359H103.643V210.085H101.098V216.359H95.1439V218.444ZM123.49 204.211V203.068H120.924V204.231C120.904 206.627 119.571 208.842 116.554 209.764L117.817 211.789C119.962 211.107 121.425 209.724 122.237 207.95C123.019 209.513 124.382 210.716 126.377 211.327L127.68 209.343C124.773 208.511 123.47 206.446 123.49 204.211ZM119.16 214.475H128.722V215.557H119.2V220.549H131.789V218.524H121.706V217.381H131.268V212.51H119.16V214.475ZM128.702 211.809H131.268V208.08H133.734V205.995H131.268V202.427H128.702V211.809ZM148.127 203.85V202.968H145.441V203.85C145.431 206.005 143.236 208.381 139.087 208.902L140.109 210.967C143.256 210.506 145.582 209.022 146.784 207.058C147.977 209.032 150.313 210.506 153.5 210.967L154.502 208.902C150.323 208.381 148.117 206.005 148.127 203.85ZM138.445 214.435H145.461V220.669H147.987V214.435H155.084V212.35H138.445V214.435ZM164.486 213.092H162.121V220.468H168.816V219.055L169.858 220.629C171.342 220.058 172.344 219.005 172.945 217.732C173.527 219.045 174.539 220.088 176.113 220.629L177.436 218.724C175.151 217.983 174.258 216.219 174.268 214.354V212.951H171.703V214.354C171.703 216.008 170.841 217.712 168.816 218.634V213.092H166.45V214.916H164.486V213.092ZM160.336 207.398C160.316 209.944 162.381 211.728 165.188 211.728C167.513 211.728 169.377 210.415 169.868 208.441H172.925V212.089H175.471V202.427H172.925V206.336H169.858C169.357 204.401 167.503 203.119 165.188 203.109C162.381 203.119 160.316 204.893 160.336 207.398ZM162.762 207.398C162.752 206.055 163.754 205.223 165.188 205.213C166.571 205.223 167.563 206.055 167.573 207.398C167.563 208.782 166.571 209.634 165.188 209.644C163.754 209.634 162.752 208.782 162.762 207.398ZM164.486 218.524V216.8H166.45V218.524H164.486ZM182.458 203.71C179.691 203.71 177.707 206.226 177.727 210.205C177.707 214.214 179.691 216.72 182.458 216.72C185.004 216.72 186.888 214.575 187.159 211.067H190.296V220.709H192.822V202.427H190.296V209.022H187.128C186.768 205.735 184.923 203.71 182.458 203.71ZM180.172 210.205C180.162 207.499 181.095 206.015 182.458 206.015C183.831 206.015 184.743 207.499 184.743 210.205C184.743 212.921 183.831 214.405 182.458 214.395C181.095 214.405 180.162 212.921 180.172 210.205Z" fill="black"/>
<path d="M87.4133 34.8452L188.194 34.8452C197.743 34.8452 205.485 42.5867 205.485 52.136C205.485 61.6853 197.743 69.4268 188.194 69.4268L87.4133 69.4267C77.864 69.4267 70.1226 61.6853 70.1226 52.136C70.1226 42.5867 77.864 34.8452 87.4133 34.8452Z" fill="#1C49FF"/>
<path d="M108.27 50.3662H93.9438V51.9638H108.27V50.3662ZM95.6977 58.7016H106.69V57.1387H97.6079V54.8291H106.569V53.2662H95.6977V58.7016ZM95.7498 49.0811H106.655V47.5182H97.66V45.226H106.482V43.6457H95.7498V49.0811ZM121.328 44.6529H110.006V46.1985H119.383C119.374 48.0826 119.374 50.3141 118.758 53.3704L120.703 53.5788C121.311 50.2967 121.311 48.1173 121.328 46.1637V44.6529ZM108.512 56.8783H122.821V55.298H115.701V49.8452H113.791V55.298H108.512V56.8783ZM132.074 53.4225V52.78H130.199V53.4225C130.19 54.9507 129.209 56.5483 127.177 57.2603L128.132 58.6669C129.582 58.146 130.581 57.1648 131.145 55.9579C131.64 57.1995 132.578 58.2588 134.071 58.8058C135.495 58.2328 136.416 57.1387 136.928 55.8971C137.475 57.1561 138.482 58.1546 140.01 58.6669L140.948 57.2603C138.89 56.6091 137.918 55.0636 137.927 53.4225V52.78H136.034V53.4225C136.025 54.6121 135.391 56.036 134.019 56.9651C132.673 56.0968 132.074 54.7336 132.074 53.4225ZM126.778 47.7961C126.778 49.9755 128.584 51.521 131.015 51.5123C133.438 51.521 135.244 49.9755 135.235 47.7961C135.244 45.5907 133.438 44.0625 131.015 44.0625C128.584 44.0625 126.778 45.5907 126.778 47.7961ZM128.671 47.7961C128.662 46.511 129.643 45.6862 131.015 45.6949C132.361 45.6862 133.342 46.511 133.342 47.7961C133.342 49.0811 132.361 49.906 131.015 49.9147C129.643 49.906 128.662 49.0811 128.671 47.7961ZM137.631 52.1201H139.576V43.2289H137.631V52.1201ZM145.358 44.3577C142.996 44.3577 141.32 46.511 141.329 49.8973C141.32 53.3096 142.996 55.4543 145.358 55.4543C147.537 55.4543 149.135 53.5875 149.343 50.5572H152.321V58.9274H154.231V43.2116H152.321V48.9943H149.326C149.048 46.129 147.476 44.3577 145.358 44.3577ZM143.187 49.8973C143.178 47.5009 144.064 46.0943 145.358 46.0943C146.66 46.0943 147.537 47.5009 147.546 49.8973C147.537 52.3111 146.66 53.7091 145.358 53.7177C144.064 53.7091 143.178 52.3111 143.187 49.8973ZM169.981 55.4196H166.681V51.4081C167.897 50.6874 168.635 49.5847 168.626 48.2129C168.635 45.7122 166.169 44.0625 162.774 44.0625C159.396 44.0625 156.948 45.7122 156.956 48.2129C156.948 49.6021 157.703 50.7309 158.953 51.4515V55.4196H155.637V56.9998H169.981V55.4196ZM158.849 48.2129C158.841 46.5805 160.43 45.582 162.774 45.5907C165.11 45.582 166.733 46.5805 166.733 48.2129C166.733 49.8192 165.11 50.8437 162.774 50.8351C160.43 50.8437 158.841 49.8192 158.849 48.2129ZM160.864 55.4196V52.1548C161.454 52.2764 162.097 52.3459 162.774 52.3459C163.469 52.3459 164.12 52.2764 164.719 52.1462V55.4196H160.864ZM172.115 57.5034C172.836 57.5034 173.452 56.8956 173.452 56.1489C173.452 55.4196 172.836 54.8204 172.115 54.8118C171.368 54.8204 170.752 55.4196 170.761 56.1489C170.752 56.8956 171.368 57.5034 172.115 57.5034ZM176.16 57.5034C176.881 57.5034 177.497 56.8956 177.497 56.1489C177.497 55.4196 176.881 54.8204 176.16 54.8118C175.413 54.8204 174.797 55.4196 174.805 56.1489C174.797 56.8956 175.413 57.5034 176.16 57.5034ZM180.205 57.5034C180.925 57.5034 181.542 56.8956 181.542 56.1489C181.542 55.4196 180.925 54.8204 180.205 54.8118C179.458 54.8204 178.842 55.4196 178.85 56.1489C178.842 56.8956 179.458 57.5034 180.205 57.5034Z" fill="white"/>
<defs>
<filter id="filter0_d_541_3668" x="0.762966" y="0.45416" width="257.24" height="302.103" filterUnits="userSpaceOnUse" color-interpolation-filters="sRGB">
<feFlood flood-opacity="0" result="BackgroundImageFix"/>
<feColorMatrix in="SourceAlpha" type="matrix" values="0 0 0 0 0 0 0 0 0 0 0 0 0 0 0 0 0 0 127 0" result="hardAlpha"/>
<feOffset dx="-8.35567" dy="7.5201"/>
<feGaussianBlur stdDeviation="8.77345"/>
<feComposite in2="hardAlpha" operator="out"/>
<feColorMatrix type="matrix" values="0 0 0 0 0 0 0 0 0 0 0 0 0 0 0 0 0 0 0.15 0"/>
<feBlend mode="normal" in2="BackgroundImageFix" result="effect1_dropShadow_541_3668"/>
<feBlend mode="normal" in="SourceGraphic" in2="effect1_dropShadow_541_3668" result="shape"/>
</filter>
</defs>
</svg>
