<svg width="138" height="42" viewBox="0 0 138 42" fill="none" xmlns="http://www.w3.org/2000/svg">
<rect width="137.351" height="41.7885" rx="7.61264" fill="black"/>
<path d="M68.8773 22.9498C66.6258 22.9498 64.7864 24.6228 64.7864 26.9311C64.7864 29.2206 66.6258 30.9112 68.8773 30.9112C71.1337 30.9112 72.9731 29.2206 72.9731 26.9311C72.9731 24.6228 71.1337 22.9498 68.8773 22.9498ZM68.8773 29.3435C67.6419 29.3435 66.579 28.3479 66.579 26.9311C66.579 25.4956 67.6419 24.5175 68.8773 24.5175C70.1128 24.5175 71.1804 25.4956 71.1804 26.9311C71.1804 28.3479 70.1128 29.3435 68.8773 29.3435ZM59.9513 22.9498C57.6949 22.9498 55.8604 24.6228 55.8604 26.9311C55.8604 29.2206 57.6949 30.9112 59.9513 30.9112C62.2065 30.9112 64.0423 29.2206 64.0423 26.9311C64.0423 24.6228 62.2065 22.9498 59.9513 22.9498ZM59.9513 29.3435C58.7147 29.3435 57.6482 28.3479 57.6482 26.9311C57.6482 25.4956 58.7147 24.5175 59.9513 24.5175C61.1867 24.5175 62.2496 25.4956 62.2496 26.9311C62.2496 28.3479 61.1867 29.3435 59.9513 29.3435ZM49.3297 24.17V25.8618H53.4674C53.3464 26.8071 53.0228 27.502 52.5267 27.9864C51.9228 28.5713 50.9822 29.2206 49.3297 29.2206C46.7834 29.2206 44.7894 27.2142 44.7894 24.7281C44.7894 22.242 46.7834 20.2355 49.3297 20.2355C50.7066 20.2355 51.7083 20.7608 52.4477 21.4417L53.6687 20.2496C52.6346 19.2856 51.259 18.545 49.3297 18.545C45.8379 18.545 42.9033 21.3189 42.9033 24.7281C42.9033 28.1373 45.8379 30.9112 49.3297 30.9112C51.217 30.9112 52.6346 30.3075 53.749 29.175C54.891 28.0601 55.2469 26.4924 55.2469 25.2265C55.2469 24.8334 55.2133 24.4719 55.1534 24.17H49.3297ZM92.7628 25.4815C92.426 24.5912 91.3871 22.9498 89.271 22.9498C87.174 22.9498 85.4281 24.5631 85.4281 26.9311C85.4281 29.161 87.156 30.9112 89.4723 30.9112C91.3452 30.9112 92.426 29.7963 92.8706 29.1469L91.4806 28.2426C91.0169 28.9048 90.3854 29.3435 89.4723 29.3435C88.5652 29.3435 87.9145 28.9375 87.4975 28.1373L92.9509 25.9343L92.7628 25.4815ZM87.2027 26.8071C87.156 25.2721 88.4238 24.4859 89.3321 24.4859C90.0439 24.4859 90.6478 24.8334 90.8491 25.3306L87.2027 26.8071ZM82.7703 30.669H84.5629V18.9697H82.7703V30.669ZM79.8345 23.8366H79.7745C79.3719 23.371 78.6038 22.9498 77.6308 22.9498C75.5889 22.9498 73.722 24.7 73.722 26.944C73.722 29.175 75.5889 30.9112 77.6308 30.9112C78.6038 30.9112 79.3719 30.4865 79.7745 30.0068H79.8345V30.5778C79.8345 32.0999 79.0016 32.9176 77.6584 32.9176C76.5631 32.9176 75.8837 32.1455 75.6033 31.4962L74.0443 32.1314C74.4937 33.1867 75.6836 34.4854 77.6584 34.4854C79.7602 34.4854 81.5336 33.278 81.5336 30.3403V23.192H79.8345V23.8366ZM77.7842 29.3435C76.5488 29.3435 75.5146 28.3338 75.5146 26.944C75.5146 25.5412 76.5488 24.5175 77.7842 24.5175C79.0017 24.5175 79.9615 25.5412 79.9615 26.944C79.9615 28.3338 79.0017 29.3435 77.7842 29.3435ZM101.156 18.9697H96.8681V30.669H98.6559V26.2361H101.156C103.141 26.2361 105.088 24.8334 105.088 22.6023C105.088 20.3724 103.136 18.9697 101.156 18.9697ZM101.202 24.6088H98.6559V20.5971H101.202C102.537 20.5971 103.299 21.6792 103.299 22.6023C103.299 23.5079 102.537 24.6088 101.202 24.6088ZM112.254 22.9276C110.962 22.9276 109.619 23.4845 109.067 24.7187L110.653 25.368C110.995 24.7187 111.623 24.5081 112.286 24.5081C113.214 24.5081 114.155 25.0522 114.169 26.0127V26.1355C113.845 25.953 113.153 25.6828 112.301 25.6828C110.592 25.6828 108.851 26.6012 108.851 28.3151C108.851 29.8828 110.251 30.8925 111.824 30.8925C113.027 30.8925 113.691 30.3625 114.108 29.7459H114.169V30.6503H115.896V26.1624C115.896 24.0881 114.309 22.9276 112.254 22.9276ZM112.038 29.3388C111.454 29.3388 110.639 29.0557 110.639 28.3479C110.639 27.4423 111.655 27.0949 112.534 27.0949C113.322 27.0949 113.691 27.2645 114.169 27.488C114.029 28.5713 113.074 29.3388 112.038 29.3388ZM122.187 23.1838L120.132 28.2554H120.07L117.946 23.1838H116.018L119.21 30.2712L117.389 34.2151H119.257L124.176 23.1838H122.187ZM106.071 30.669H107.864V18.9697H106.071V30.669Z" fill="white"/>
<path d="M13.5642 9.64758C13.2826 9.93538 13.1196 10.3835 13.1196 10.9638V31.6623C13.1196 32.2426 13.2826 32.6906 13.5642 32.9784L13.6337 33.0416L25.5135 21.4476V21.1738L13.6337 9.57972L13.5642 9.64758Z" fill="url(#paint0_linear_541_3370)"/>
<path d="M29.4677 25.3126L25.5122 21.446V21.1722L29.4725 17.3056L29.5612 17.3559L34.2513 19.9613C35.5898 20.7007 35.5898 21.9175 34.2513 22.6615L29.5612 25.2623L29.4677 25.3126Z" fill="url(#paint1_linear_541_3370)"/>
<path d="M29.5623 25.2622L25.5133 21.3089L13.564 32.9767C14.0085 33.433 14.7335 33.488 15.5579 33.0317L29.5623 25.2622Z" fill="url(#paint2_linear_541_3370)"/>
<path d="M29.5623 17.3561L15.5579 9.58657C14.7335 9.13497 14.0085 9.18996 13.564 9.64623L25.5133 21.3093L29.5623 17.3561Z" fill="url(#paint3_linear_541_3370)"/>
<path d="M49.5004 7.78025H48.5137V15.8247H49.5004V11.638H50.7359V10.8291H49.5004V7.78025ZM43.536 13.8602H44.2026C45.6515 13.8602 46.7315 13.8247 47.9804 13.6113L47.8648 12.7758C46.7626 12.9669 45.7715 13.0291 44.5226 13.0336V9.34469H47.296V8.54469H43.536V13.8602ZM58.5436 11.7536H51.2014V12.5447H54.4369V14.0202H55.4413V12.5447H58.5436V11.7536ZM51.9836 9.60246C51.9791 10.6158 53.1347 11.2425 54.8636 11.238C56.6013 11.2425 57.7436 10.6158 57.7436 9.60246C57.7436 8.59358 56.6013 7.95803 54.8636 7.95803C53.1347 7.95803 51.9791 8.59358 51.9836 9.60246ZM52.0991 15.6558H57.7347V14.8469H53.0947V13.2736H52.0991V15.6558ZM53.0502 9.60246C53.0414 9.05135 53.7614 8.74025 54.8636 8.74025C55.9747 8.74025 56.6902 9.05135 56.6858 9.60246C56.6902 10.1358 55.9747 10.4469 54.8636 10.4469C53.7614 10.4469 53.0414 10.1358 53.0502 9.60246ZM66.5556 14.0647H63.3556V12.758H65.8712V11.9491H61.0712V10.9091H65.6845V8.33136H60.0667V9.13135H64.7067V10.1269H60.0845V12.758H62.3778V14.0647H59.2134V14.8824H66.5556V14.0647ZM73.741 11.5491H69.0832V9.28246H73.6788V8.48247H68.1055V12.3402H73.741V11.5491ZM67.2166 14.7935H74.5588V13.9758H67.2166V14.7935ZM81.513 7.78025H80.5353V15.8158H81.513V11.798H82.7486V10.9802H81.513V7.78025ZM75.1753 9.80691H79.913V9.0158H78.0642V7.8958H77.0775V9.0158H75.1753V9.80691ZM75.5486 12.2247C75.5397 13.3313 76.4019 14.1091 77.5753 14.1091C78.7308 14.1091 79.5886 13.3313 79.593 12.2247C79.5886 11.1136 78.7308 10.3269 77.5753 10.3313C76.4019 10.3269 75.5397 11.1136 75.5486 12.2247ZM76.4908 12.2247C76.4864 11.5713 76.9442 11.1402 77.5753 11.1402C78.1931 11.1402 78.6419 11.5713 78.6508 12.2247C78.6419 12.878 78.1931 13.2958 77.5753 13.2913C76.9442 13.2958 76.4864 12.878 76.4908 12.2247ZM89.934 7.78025H88.9384V15.8158H89.934V7.78025ZM83.2762 13.6024L83.7918 14.3936C86.6051 13.0558 87.534 11.0247 87.534 8.63358H83.6851V9.4158H86.5295C86.3518 11.2425 85.3829 12.6024 83.2762 13.6024Z" fill="white"/>
<defs>
<linearGradient id="paint0_linear_541_3370" x1="24.4587" y1="31.8778" x2="8.75574" y2="15.7944" gradientUnits="userSpaceOnUse">
<stop stop-color="#00A0FF"/>
<stop offset="0.0066" stop-color="#00A1FF"/>
<stop offset="0.2601" stop-color="#00BEFF"/>
<stop offset="0.5122" stop-color="#00D2FF"/>
<stop offset="0.7604" stop-color="#00DFFF"/>
<stop offset="1" stop-color="#00E3FF"/>
</linearGradient>
<linearGradient id="paint1_linear_541_3370" x1="35.9942" y1="21.3078" x2="12.7984" y2="21.3078" gradientUnits="userSpaceOnUse">
<stop stop-color="#FFE000"/>
<stop offset="0.4087" stop-color="#FFBD00"/>
<stop offset="0.7754" stop-color="#FFA500"/>
<stop offset="1" stop-color="#FF9C00"/>
</linearGradient>
<linearGradient id="paint2_linear_541_3370" x1="27.3605" y1="19.1599" x2="6.06604" y2="-2.65059" gradientUnits="userSpaceOnUse">
<stop stop-color="#FF3A44"/>
<stop offset="1" stop-color="#C31162"/>
</linearGradient>
<linearGradient id="paint3_linear_541_3370" x1="10.5561" y1="39.8634" x2="20.065" y2="30.1241" gradientUnits="userSpaceOnUse">
<stop stop-color="#32A071"/>
<stop offset="0.0685" stop-color="#2DA771"/>
<stop offset="0.4762" stop-color="#15CF74"/>
<stop offset="0.8009" stop-color="#06E775"/>
<stop offset="1" stop-color="#00F076"/>
</linearGradient>
</defs>
</svg>
