<svg width="28" height="28" viewBox="0 0 28 28" fill="none" xmlns="http://www.w3.org/2000/svg">
<path d="M14.3654 27.8421C21.8083 27.8421 27.8421 21.8083 27.8421 14.3654C27.8421 6.92236 21.8083 0.888622 14.3654 0.888622C6.92236 0.888622 0.888622 6.92236 0.888622 14.3654C0.888622 21.8083 6.92236 27.8421 14.3654 27.8421Z" fill="white" stroke="#D9D9D9" stroke-width="0.222756"/>
<path d="M19.0144 14.3655C19.0144 15.5277 16.933 18.4332 14.3656 18.4332C11.7981 18.4332 9.7168 15.5277 9.7168 14.3655C9.7168 11.798 11.7981 9.71667 14.3656 9.71667C16.933 9.71667 19.0144 11.798 19.0144 14.3655Z" fill="#D80027"/>
<path d="M19.0144 14.3654C19.0144 16.9329 16.933 19.0141 14.3656 19.0141C11.7981 19.0141 9.7168 16.9329 9.7168 14.3654" fill="#0052B4"/>
<path d="M9.02351 5.73635L5.73635 9.02351L4.91455 8.20171L8.20171 4.91455L9.02351 5.73635Z" fill="black"/>
<path d="M20.9391 6.96927L19.7064 5.73659L20.5282 4.91479L21.7609 6.14747L20.9391 6.96927Z" fill="black"/>
<path d="M18.4749 6.96883L21.7621 10.256L22.5839 9.43419L19.2967 6.14703L18.4749 6.96883Z" fill="black"/>
<path d="M19.296 18.4744L20.5286 17.2417L21.3504 18.0635L20.1178 19.2962L19.296 18.4744Z" fill="black"/>
<path d="M17.2412 20.529L18.4739 19.2963L19.2957 20.1181L18.063 21.3508L17.2412 20.529Z" fill="black"/>
<path d="M22.9944 19.7066L21.7617 20.9393L22.5835 21.7611L23.8161 20.5284L22.9944 19.7066Z" fill="black"/>
<path d="M19.7069 22.9943L20.9396 21.7616L21.7614 22.5834L20.5287 23.8161L19.7069 22.9943Z" fill="black"/>
<path d="M21.7614 18.4743L20.5287 19.7069L21.3505 20.5287L22.5832 19.2961L21.7614 18.4743Z" fill="black"/>
<path d="M18.4746 21.7616L19.7072 20.5289L20.529 21.3507L19.2964 22.5834L18.4746 21.7616Z" fill="black"/>
<path d="M18.4748 9.43469L17.2421 8.20201L18.0639 7.38025L19.2966 8.61293L18.4748 9.43469Z" fill="black"/>
<path d="M19.2963 10.2563L20.529 11.489L21.3508 10.6672L20.1181 9.43456L19.2963 10.2563Z" fill="black"/>
<path d="M21.7618 7.79114L22.9944 9.02382L23.8162 8.20202L22.5836 6.96934L21.7618 7.79114Z" fill="black"/>
<path d="M5.73642 19.7072L9.02358 22.9944L8.20178 23.8162L4.91462 20.529L5.73642 19.7072Z" fill="black"/>
<path d="M10.256 21.7613L9.02335 20.5286L8.20158 21.3503L9.43427 22.583L10.256 21.7613Z" fill="black"/>
<path d="M6.96895 18.4743L8.20164 19.707L7.37984 20.5288L6.14716 19.2961L6.96895 18.4743Z" fill="black"/>
<path d="M11.4889 20.5287L8.20171 17.2416L7.37991 18.0634L10.6671 21.3505L11.4889 20.5287Z" fill="black"/>
<path d="M6.96864 10.2559L10.2558 6.96874L9.434 6.14694L6.14684 9.4341L6.96864 10.2559Z" fill="black"/>
<path d="M11.4892 8.20198L8.20208 11.4891L7.38032 10.6674L10.6675 7.38022L11.4892 8.20198Z" fill="black"/>
</svg>
