<svg width="173" height="41" viewBox="0 0 173 41" fill="none" xmlns="http://www.w3.org/2000/svg">
<path d="M0.254275 16.6134C0.47881 13.649 2.98078 11.3222 5.99597 11.2903C9.39608 11.2584 11.9943 14.159 11.8981 17.5059C11.8339 19.3228 11.8339 21.044 11.8981 22.8609C12.0584 26.3671 9.33195 29.4589 5.77145 29.4908C2.85249 29.5227 0.286351 27.4508 0.0938923 24.5821C-0.0985667 21.7134 0.0297393 19.3227 0.254275 16.6134Z" fill="#1C49FF"/>
<path d="M16.4521 5.71287C16.7729 2.71664 19.339 0.453525 22.4183 0.42165C25.9147 0.389775 28.7053 3.25851 28.577 6.66911C28.2242 16.2953 28.2562 23.8496 28.6732 33.8583C28.8015 37.2689 26.0751 40.1377 22.6429 40.1695C19.5635 40.2014 16.9332 37.9383 16.6445 34.9102C15.586 24.1365 15.3615 16.3272 16.4521 5.71287Z" fill="#1C49FF"/>
<path d="M32.7456 15.8162C33.1626 13.075 35.6004 11.0988 38.391 11.0669C42.0157 11.035 44.7101 14.2225 44.6139 17.7925C44.5497 19.4181 44.5818 20.98 44.7101 22.6056C44.9346 26.1118 42.2402 29.2037 38.6797 29.2674C35.7928 29.2993 33.2588 27.2593 32.8097 24.4224C32.3286 21.4581 32.2324 19.3862 32.7456 15.8162Z" fill="#1C49FF"/>
<path d="M48.882 18.5275C49.299 15.85 51.9292 14.0969 54.6558 14.065H55.8105C58.954 14.0331 61.3277 16.5831 61.2635 19.7068C61.1994 22.9262 58.7936 26.0499 55.5218 26.0818H54.6558C51.9613 26.1137 49.4594 24.3924 48.9462 21.7787C48.7537 20.6312 48.7216 19.675 48.882 18.5275Z" fill="#1C49FF"/>
<path d="M91.9429 35.9185C91.9429 27.8576 91.9429 19.7967 91.9429 11.7358C93.5789 11.7358 95.1467 11.7358 96.7827 11.7358C96.7827 12.3454 96.7827 12.8873 96.7827 13.497C96.9191 13.4293 96.9872 13.3615 97.0554 13.3615C99.9866 10.3133 104.758 10.9229 107.349 13.1583C109.189 14.784 110.212 16.8162 110.416 19.2548C110.689 22.2353 109.939 24.8771 107.758 27.0447C104.963 29.822 100.532 30.093 97.6007 27.8576C97.3962 27.6544 97.1236 27.4511 96.8509 27.2479C96.8509 30.2284 96.8509 33.0735 96.8509 35.9862C95.2149 35.9185 93.5789 35.9185 91.9429 35.9185ZM105.508 20.3386C105.508 17.9 103.872 16.0711 101.554 15.8678C99.1686 15.6646 97.2599 17.1549 96.8509 19.5935C96.4419 21.8966 97.8052 24.132 99.9866 24.7416C102.918 25.419 105.508 23.3868 105.508 20.3386Z" fill="black"/>
<path d="M88.7385 8.48047C87.9204 9.76751 87.0343 10.9868 86.2163 12.2738C84.9893 11.19 83.5577 10.5126 81.9899 10.3094C81.1719 10.2417 80.3539 10.3094 79.5359 10.4449C78.8542 10.5804 78.3088 11.1223 78.2407 11.8674C78.1043 12.6803 78.5134 13.2222 79.1269 13.6286C79.8086 14.035 80.5584 14.3737 81.3082 14.6447C82.467 15.1189 83.6941 15.593 84.8529 16.0672C85.1938 16.2027 85.4665 16.3382 85.8073 16.5414C90.5109 18.98 89.9655 24.6023 87.0343 27.1086C85.5346 28.3956 83.8304 29.0053 81.9217 29.2085C78.3089 29.5472 75.0368 28.7343 72.3102 26.1603C71.2195 25.1442 71.2876 25.1442 72.1056 23.9926C72.7873 23.112 73.4008 22.2992 74.1506 21.3508C74.3551 21.554 74.5597 21.7572 74.696 21.9605C76.332 23.5185 78.2407 24.4668 80.5584 24.3991C81.24 24.3991 81.9218 24.1958 82.4671 23.9249C83.7623 23.2475 83.8304 21.7572 82.6715 20.8766C82.1944 20.538 81.6491 20.267 81.1037 20.0638C79.8086 19.5219 78.5134 19.1154 77.2864 18.5735C76.6729 18.3026 76.0593 17.9639 75.4458 17.5575C71.6966 15.0511 71.833 9.76751 75.0368 7.26118C76.9455 5.70319 79.195 5.22902 81.5809 5.3645C84.1712 5.49997 86.4208 6.38058 88.3976 8.07404C88.4658 8.14178 88.6021 8.20952 88.6703 8.27726C88.6703 8.345 88.6703 8.345 88.7385 8.48047Z" fill="black"/>
<path d="M150.908 28.8705C149.34 28.8705 147.84 28.8705 146.34 28.8705C146.34 28.3286 146.34 27.7867 146.34 27.2448C146.204 27.3125 146.136 27.3803 146.068 27.3803C142.932 30.3608 137.547 29.8189 134.684 26.4319C131.412 22.5708 131.889 16.1357 135.706 13.0197C138.365 10.852 143 10.2424 146.068 13.2229C146.136 13.2906 146.204 13.2906 146.34 13.4261C146.34 12.8165 146.34 12.2746 146.34 11.6649C147.908 11.6649 149.408 11.6649 150.976 11.6649C150.908 17.4904 150.908 23.1127 150.908 28.8705ZM137.41 20.2677C137.41 22.8418 139.319 24.8739 141.841 24.8739C144.364 24.8739 146.272 22.8418 146.272 20.2677C146.272 17.6936 144.295 15.7292 141.773 15.7292C139.319 15.7292 137.41 17.6936 137.41 20.2677Z" fill="black"/>
<path d="M172.038 28.8703C171.561 28.8703 171.22 28.8703 170.811 28.8703C169.38 28.8703 167.88 28.8703 166.448 28.8703C166.244 28.8703 165.971 28.7348 165.835 28.5316C164.199 26.4317 162.563 24.3318 160.995 22.2319C160.859 22.0964 160.79 21.9609 160.654 21.8254L159.632 22.9093C159.632 22.9093 159.632 26.7704 159.632 28.3284C159.632 28.5316 159.632 28.667 159.632 28.8703C157.996 28.8703 156.36 28.8703 154.724 28.8703C154.724 20.9448 154.724 13.0194 154.724 5.09399C156.36 5.09399 157.927 5.09399 159.632 5.09399C159.632 9.09057 159.632 13.0872 159.632 17.2192C159.836 17.016 159.973 16.8805 160.109 16.745C161.745 15.1871 163.449 13.5613 165.085 12.0711C165.29 11.8679 165.562 11.7324 165.835 11.7324C167.675 11.7324 169.516 11.7324 171.356 11.8001C168.902 14.1032 166.448 16.3386 163.926 18.7095C166.653 22.0964 169.311 25.4156 172.038 28.8703Z" fill="black"/>
<path d="M117.644 21.9617C118.121 23.452 118.939 24.4003 120.302 24.8745C121.529 25.2809 122.756 25.2809 124.051 25.01C125.347 24.739 126.574 24.2649 127.733 23.5197C128.346 24.6035 128.959 25.6196 129.573 26.7034C129.641 26.7712 129.437 27.0421 129.3 27.1099C127.869 28.0582 126.301 28.6679 124.665 29.0066C122.62 29.413 120.643 29.3452 118.666 28.7356C115.258 27.6518 113.417 25.2132 112.872 21.8263C112.531 19.7941 112.804 17.7619 113.758 15.933C115.531 12.6815 118.394 11.259 121.938 11.3268C123.029 11.3268 124.188 11.53 125.21 11.8687C128.278 12.9525 129.982 15.2556 130.391 18.4393C130.527 19.4554 130.391 20.4715 130.391 21.4198C130.391 21.8263 130.255 21.9617 129.846 21.9617C126.028 21.9617 122.211 21.9617 118.325 21.9617C118.121 21.9617 117.916 21.9617 117.644 21.9617ZM125.619 18.4393C125.483 16.6781 123.711 15.2556 121.734 15.2556C119.689 15.2556 117.78 16.7459 117.644 18.4393C120.302 18.4393 122.961 18.4393 125.619 18.4393Z" fill="black"/>
</svg>
