<svg width="167" height="172" viewBox="0 0 167 172" fill="none" xmlns="http://www.w3.org/2000/svg">
<ellipse cx="83.3371" cy="86.1604" rx="82.9253" ry="85.3953" fill="#1C49FF"/>
<path fill-rule="evenodd" clip-rule="evenodd" d="M64.1655 58.5398C63.9405 59.728 63.8228 60.9542 63.8228 62.2078V86.969C63.8228 87.9435 63.8939 88.9015 64.0313 89.8379C65.0057 99.243 72.5749 106.562 81.7678 106.562H85.1642C95.0183 106.562 103.007 98.1522 103.007 87.7779V61.6301C103.007 51.9076 95.9906 43.9103 86.998 42.9437C85.836 42.7289 84.6381 42.6166 83.4139 42.6166C82.1325 42.6166 80.8798 42.7396 79.667 42.9745C71.7721 43.9494 65.453 50.3505 64.1655 58.5398Z" fill="white"/>
<path d="M80.1365 119.36C80.1365 116.174 81.7812 113.591 83.81 113.591V113.591C85.8389 113.591 87.4836 116.174 87.4836 119.36V127.997C87.4836 131.184 85.8389 133.767 83.81 133.767V133.767C81.7812 133.767 80.1365 131.184 80.1365 127.997V119.36Z" fill="white"/>
<path d="M56.4989 73.5297C56.4989 72.0655 55.331 70.8673 53.8766 70.8673C52.4222 70.8673 51.2543 72.0655 51.2543 73.5297V85.9309C51.2543 104.127 65.7496 118.89 83.6442 118.89C101.539 118.89 116.034 104.127 116.034 85.9309V73.5297C116.034 72.0655 114.866 70.8673 113.412 70.8673C111.957 70.8673 110.789 72.0655 110.789 73.5297V85.9309C110.789 101.199 98.63 113.565 83.6442 113.565C68.6584 113.565 56.4989 101.199 56.4989 85.9309V73.5297Z" fill="white" stroke="white" stroke-width="0.737997" stroke-linecap="round" stroke-linejoin="round"/>
</svg>
