<svg width="101" height="20" viewBox="0 0 101 20" fill="none" xmlns="http://www.w3.org/2000/svg">
<path d="M10.3347 1.8347C10.2631 1.61431 10.0577 1.46509 9.82601 1.46509C9.59428 1.46509 9.38889 1.61431 9.31728 1.8347L7.45581 7.56371H1.43198C1.20024 7.56371 0.994857 7.71293 0.923246 7.93333C0.851635 8.15372 0.930084 8.39516 1.11756 8.53138L5.99095 12.0721L4.12948 17.8011C4.05787 18.0215 4.13632 18.2629 4.3238 18.3992C4.51128 18.5354 4.76515 18.5354 4.95262 18.3992L9.82601 14.8584L14.6994 18.3992C14.8869 18.5354 15.1407 18.5354 15.3282 18.3992C15.5157 18.2629 15.5942 18.0215 15.5225 17.8011L13.6611 12.0721L18.5345 8.53138C18.7219 8.39516 18.8004 8.15372 18.7288 7.93333C18.6572 7.71293 18.4518 7.56371 18.2201 7.56371H12.1962L10.3347 1.8347Z" fill="#EE8834" stroke="#EE8834" stroke-width="1.06982" stroke-linejoin="round"/>
<path d="M30.6614 1.8348C30.5898 1.6144 30.3844 1.46518 30.1527 1.46518C29.9209 1.46518 29.7156 1.6144 29.6439 1.8348L27.7825 7.56381H21.7586C21.5269 7.56381 21.3215 7.71303 21.2499 7.93342C21.1783 8.15381 21.2567 8.39526 21.4442 8.53147L26.3176 12.0722L24.4561 17.8012C24.3845 18.0216 24.463 18.263 24.6505 18.3993C24.8379 18.5355 25.0918 18.5355 25.2793 18.3993L30.1527 14.8585L35.0261 18.3993C35.2135 18.5355 35.4674 18.5355 35.6549 18.3993C35.8424 18.263 35.9208 18.0216 35.8492 17.8012L33.9877 12.0722L38.8611 8.53147C39.0486 8.39526 39.1271 8.15381 39.0554 7.93342C38.9838 7.71303 38.7784 7.56381 38.5467 7.56381H32.5229L30.6614 1.8348Z" fill="#EE8834" stroke="#EE8834" stroke-width="1.06982" stroke-linejoin="round"/>
<path d="M50.9881 1.8348C50.9165 1.6144 50.7111 1.46518 50.4793 1.46518C50.2476 1.46518 50.0422 1.6144 49.9706 1.8348L48.1091 7.56381H42.0853C41.8536 7.56381 41.6482 7.71303 41.5766 7.93342C41.505 8.15381 41.5834 8.39526 41.7709 8.53147L46.6443 12.0722L44.7828 17.8012C44.7112 18.0216 44.7896 18.263 44.9771 18.3993C45.1646 18.5355 45.4185 18.5355 45.6059 18.3993L50.4793 14.8585L55.3527 18.3993C55.5402 18.5355 55.7941 18.5355 55.9815 18.3993C56.169 18.263 56.2475 18.0216 56.1759 17.8012L54.3144 12.0722L59.1878 8.53147C59.3753 8.39526 59.4537 8.15381 59.3821 7.93342C59.3105 7.71303 59.1051 7.56381 58.8734 7.56381H52.8495L50.9881 1.8348Z" fill="#EE8834" stroke="#EE8834" stroke-width="1.06982" stroke-linejoin="round"/>
<path d="M71.3147 1.8348C71.2431 1.6144 71.0377 1.46518 70.806 1.46518C70.5743 1.46518 70.3689 1.6144 70.2973 1.8348L68.4358 7.56381H62.412C62.1802 7.56381 61.9748 7.71303 61.9032 7.93342C61.8316 8.15381 61.9101 8.39526 62.0975 8.53147L66.9709 12.0722L65.1095 17.8012C65.0379 18.0216 65.1163 18.263 65.3038 18.3993C65.4913 18.5355 65.7451 18.5355 65.9326 18.3993L70.806 14.8585L75.6794 18.3993C75.8669 18.5355 76.1207 18.5355 76.3082 18.3993C76.4957 18.263 76.5741 18.0216 76.5025 17.8012L74.6411 12.0722L79.5144 8.53147C79.7019 8.39526 79.7804 8.15381 79.7088 7.93342C79.6371 7.71303 79.4318 7.56381 79.2 7.56381H73.1762L71.3147 1.8348Z" fill="#EE8834" stroke="#EE8834" stroke-width="1.06982" stroke-linejoin="round"/>
<path d="M91.6414 1.8348C91.5698 1.6144 91.3644 1.46518 91.1327 1.46518C90.9009 1.46518 90.6955 1.6144 90.6239 1.8348L88.7625 7.56381H82.7386C82.5069 7.56381 82.3015 7.71303 82.2299 7.93342C82.1583 8.15381 82.2367 8.39526 82.4242 8.53147L87.2976 12.0722L85.4361 17.8012C85.3645 18.0216 85.443 18.263 85.6304 18.3993C85.8179 18.5355 86.0718 18.5355 86.2593 18.3993L91.1327 14.8585L96.006 18.3993C96.1935 18.5355 96.4474 18.5355 96.6349 18.3993C96.8223 18.263 96.9008 18.0216 96.8292 17.8012L94.9677 12.0722L99.8411 8.53147C100.029 8.39526 100.107 8.15381 100.035 7.93342C99.9638 7.71303 99.7584 7.56381 99.5267 7.56381H93.5029L91.6414 1.8348Z" fill="#EE8834" stroke="#EE8834" stroke-width="1.06982" stroke-linejoin="round"/>
</svg>
