<svg width="976" height="622" viewBox="0 0 976 622" fill="none" xmlns="http://www.w3.org/2000/svg">
<path d="M950.005 0H25.9948C11.6383 0 0 11.6383 0 25.9948V596.005C0 610.362 11.6383 622 25.9948 622H950.005C964.362 622 976 610.362 976 596.005V25.9948C976 11.6383 964.362 0 950.005 0Z" fill="white"/>
<path d="M0 522.5H976" stroke="#E8E8E8" stroke-opacity="0.6"/>
<path d="M0 482.5H976" stroke="#E8E8E8" stroke-opacity="0.6"/>
<path d="M0 442.5H976" stroke="#E8E8E8" stroke-opacity="0.6"/>
<path d="M0 402.5H976" stroke="#E8E8E8" stroke-opacity="0.6"/>
<path d="M0 362.5H976" stroke="#E8E8E8" stroke-opacity="0.6"/>
<path d="M0 322.5H976" stroke="#E8E8E8" stroke-opacity="0.6"/>
<path d="M0 282.5H976" stroke="#E8E8E8" stroke-opacity="0.6"/>
<path d="M0 242.5H976" stroke="#E8E8E8" stroke-opacity="0.6"/>
<path d="M0 202.5H976" stroke="#E8E8E8" stroke-opacity="0.6"/>
<path d="M0 162.5H976" stroke="#E8E8E8" stroke-opacity="0.6"/>
<path d="M0 122.5H976" stroke="#E8E8E8" stroke-opacity="0.6"/>
<path d="M0 82.5H976" stroke="#E8E8E8" stroke-opacity="0.6"/>
<path d="M0 42.5H976" stroke="#E8E8E8" stroke-opacity="0.6"/>
<path d="M466.962 448H431C426.582 448 423 451.582 423 456V514.209C423 518.628 426.582 522.209 431 522.209H466.962C471.38 522.209 474.962 518.628 474.962 514.209V456C474.962 451.582 471.38 448 466.962 448Z" fill="#93B7A0"/>
<path d="M344.678 514H299.774C297.69 514 296 515.69 296 517.774C296 519.859 297.69 521.549 299.774 521.549H344.678C346.763 521.549 348.452 519.859 348.452 517.774C348.452 515.69 346.763 514 344.678 514Z" fill="#ABA27C"/>
<path d="M217.25 514H172.347C170.262 514 168.572 515.69 168.572 517.774C168.572 519.859 170.262 521.549 172.347 521.549H217.25C219.335 521.549 221.025 519.859 221.025 517.774C221.025 515.69 219.335 514 217.25 514Z" fill="#A4DBE2"/>
<path d="M593.962 434H558C553.582 434 550 437.582 550 442V515.467C550 519.886 553.582 523.467 558 523.467H593.962C598.38 523.467 601.962 519.886 601.962 515.467V442C601.962 437.582 598.38 434 593.962 434Z" fill="#DF98DE"/>
<path d="M723.476 408H685C680.582 408 677 411.582 677 416V515.128C677 519.546 680.582 523.128 685 523.128H723.476C727.895 523.128 731.476 519.546 731.476 515.128V416C731.476 411.582 727.895 408 723.476 408Z" fill="#E89696"/>
<path d="M851 144H814C809.582 144 806 147.582 806 152V516C806 520.418 809.582 524 814 524H851C855.418 524 859 520.418 859 516V152C859 147.582 855.418 144 851 144Z" fill="#1C49FF"/>
<path d="M74.5706 56.4857V53.4113H68.2355V56.4857C68.1889 62.6346 62.6689 69.2958 53.236 70.9728L55.798 75.9104C63.1347 74.4198 68.6314 70.2274 71.4263 64.8472C74.1747 70.274 79.648 74.4431 87.0546 75.9104L89.6632 70.9728C80.0673 69.3424 74.5473 62.7044 74.5706 56.4857ZM52.2578 88.0684H91.0606V83.1772H52.2578V88.0684ZM118.119 53.9237H95.0611V58.7683H98.5082V70.2973L93.9431 70.3206L94.5953 75.2117C102.002 75.1884 111.551 75.0021 120.169 73.6745L119.749 69.3424C118.096 69.5287 116.372 69.6685 114.625 69.7849V58.7683H118.119V53.9237ZM99.5796 83.2704H122.777V93.2855H128.74V78.519H99.5796V83.2704ZM104.191 70.2274V58.7683H108.896V70.0877C107.312 70.1343 105.752 70.1809 104.191 70.2274ZM122.777 76.8421H128.74V50.8959H122.777V76.8421ZM169.907 63.706H162.594L157.283 81.8729H157.004L151.694 63.706H144.427L153.277 89H161.01L169.907 63.706ZM187.463 71.2057H193.938C193.565 66.4077 189.606 63.3799 183.224 63.3799C176.703 63.3799 172.533 66.4077 172.557 71.2522C172.533 75.0021 175.002 77.4709 179.824 78.4259L184.016 79.2644C186.392 79.7535 187.463 80.5687 187.463 81.8729C187.463 83.5033 185.786 84.5048 183.271 84.5281C180.732 84.5048 179.125 83.48 178.799 81.5003H171.858C172.44 86.438 176.446 89.4891 183.271 89.5124C190.002 89.4891 194.474 86.1585 194.497 81.1742C194.474 77.5408 192.098 75.3515 187.184 74.3267L182.665 73.395C180.266 72.9059 179.381 72.0208 179.404 70.8796C179.381 69.3424 181.081 68.2943 183.317 68.271C185.623 68.2943 187.16 69.4355 187.463 71.2057ZM229.562 54.3896H209.485V83.6431H213.072C220.478 83.6431 226.255 83.4567 232.73 82.4785L232.171 77.6806C226.511 78.5656 221.55 78.8218 215.494 78.8917V70.8796H228.956V66.2214H215.494V59.2341H229.562V54.3896ZM235.292 93.2855H241.254V71.951H247.496V66.9667H241.254V50.8959H235.292V93.2855ZM264.4 60.4918V54.1566H258.437V60.4918C258.437 68.3642 255.06 76.4694 247.863 79.7768L251.543 84.5747C256.341 82.199 259.602 77.7039 261.465 72.2305C263.212 77.3312 266.286 81.5236 270.828 83.7828L274.415 79.0314C267.614 75.7474 264.376 68.0847 264.4 60.4918ZM276.278 93.2855H282.241V72.2771H288.483V67.2462H282.241V50.8959H276.278V93.2855ZM518.792 118.896H512.783V161.379H518.792V118.896ZM485.392 151.457H506.354V122.25H500.485V132.591H491.355V122.25H485.392V151.457ZM491.355 146.659V137.203H500.485V146.659H491.355ZM559.452 122.576H528.102V127.281H553.49C553.466 132.195 553.42 137.948 552.046 145.727L557.868 146.24C559.429 137.692 559.429 131.892 559.452 126.722V122.576ZM524.283 156.115H562.946V151.27H548.971V137.948H543.102V151.27H538.444V137.948H532.528V151.27H524.283V156.115Z" fill="black"/>
<path d="M53.6553 157H77.7848V151.224H63.3909V151.037L68.5149 146.053C75.4557 139.765 77.3189 136.62 77.3189 132.777C77.3189 126.931 72.521 122.809 65.3008 122.809C58.197 122.809 53.3059 127.024 53.3292 133.616H59.9904C59.9671 130.378 62.04 128.375 65.2076 128.399C68.3053 128.375 70.5646 130.239 70.5646 133.243C70.5646 135.922 68.8643 137.785 65.72 140.789L53.6087 151.923L53.6553 157ZM95.6201 157.466C104.051 157.466 109.175 151.224 109.175 140.137C109.175 129.121 104.028 122.809 95.6201 122.809C87.212 122.809 82.0647 129.121 82.0647 140.137C82.0647 151.177 87.1655 157.466 95.6201 157.466ZM89.2384 140.137C89.2384 132.428 91.7305 128.562 95.6201 128.538C99.5097 128.562 102.025 132.428 102.002 140.137C102.025 147.917 99.533 151.69 95.6201 151.69C91.7072 151.69 89.1918 147.917 89.2384 140.137ZM151.14 140.65H112.337V145.308H129.293V152.155H135.163V145.308H151.14V140.65ZM116.902 160.54H146.855V155.789H122.772V148.802H116.902V160.54ZM117.322 137.668H146.109V120.247H140.193V124.672H123.191V120.247H117.322V137.668ZM123.191 132.964V129.097H140.193V132.964H123.191ZM192.127 138.926H175.683V135.293H187.701V130.635H163.991V125.371H187.469V120.759H158.075V135.293H169.861V138.926H153.371V143.584H192.127V138.926ZM157.796 153.553C157.796 158.514 163.386 161.332 172.655 161.332C181.855 161.332 187.375 158.514 187.422 153.553C187.375 148.522 181.855 145.727 172.655 145.727C163.386 145.727 157.796 148.522 157.796 153.553ZM163.851 153.553C163.828 151.364 166.786 150.246 172.655 150.246C178.408 150.246 181.436 151.364 181.46 153.553C181.436 155.766 178.408 156.814 172.655 156.814C166.786 156.814 163.828 155.766 163.851 153.553ZM227.989 118.896H222.027V149.78H227.989V135.992H233.719V131.054H227.989V118.896ZM194.637 132.405C194.613 138.623 199.761 143.165 206.282 143.165C212.78 143.165 217.834 138.623 217.834 132.405C217.834 126.093 212.78 121.621 206.282 121.644C199.761 121.621 194.613 126.093 194.637 132.405ZM200.506 160.54H229.527V155.789H206.422V146.519H200.506V160.54ZM200.506 132.405C200.459 128.864 203.045 126.792 206.282 126.815C209.543 126.792 212.035 128.864 212.058 132.405C212.035 135.852 209.543 137.995 206.282 137.995C203.045 137.995 200.459 135.852 200.506 132.405ZM279.731 118.896H273.768V140.091H279.731V131.985H285.46V127.094H279.731V118.896ZM247.356 138.507H267.713V120.899H247.356V138.507ZM251.595 146.333H273.815V149.034H251.688V160.82H280.942V156.162H257.511V153.32H279.731V141.768H251.595V146.333ZM253.226 133.802V125.557H261.843V133.802H253.226ZM320.717 118.942H314.755V150.572H320.717V136.783H326.447V131.939H320.717V118.942ZM287.085 128.073H312.239V123.368H302.644V118.849H296.728V123.368H287.085V128.073ZM289.135 137.762C289.135 142.653 293.49 145.867 299.662 145.867C305.811 145.867 310.097 142.653 310.097 137.762C310.097 132.847 305.811 129.563 299.662 129.563C293.49 129.563 289.135 132.847 289.135 137.762ZM293.234 160.54H322.255V155.789H299.15V148.149H293.234V160.54ZM294.958 137.762C294.934 135.409 296.821 134.105 299.662 134.082C302.527 134.105 304.46 135.409 304.46 137.762C304.46 140.091 302.527 141.348 299.662 141.348C296.821 141.348 294.934 140.091 294.958 137.762ZM377.583 139.858H338.78V144.563H355.736V151.876H361.605V144.563H377.583V139.858ZM343.345 160.54H373.297V155.789H349.261V148.196H343.345V160.54ZM343.625 136.364H372.599V120.759H343.625V136.364ZM349.447 131.753V125.371H366.776V131.753H349.447ZM403.896 121.737H380.791V126.489H389.456C389.386 131.869 386.195 137.366 379.161 139.578L382.189 144.283C387.266 142.606 390.713 139.206 392.6 134.943C394.463 138.554 397.724 141.418 402.406 142.839L405.247 138.181C398.493 136.201 395.488 131.426 395.465 126.489H403.896V121.737ZM385.03 153.041C385.007 158.234 390.597 161.309 399.564 161.286C408.391 161.309 413.841 158.234 413.865 153.041C413.841 147.87 408.391 144.865 399.564 144.889C390.597 144.865 385.007 147.87 385.03 153.041ZM390.993 153.041C390.946 150.665 393.997 149.477 399.564 149.5C405.061 149.477 407.995 150.665 407.995 153.041C407.995 155.463 405.061 156.674 399.564 156.674C393.997 156.674 390.946 155.463 390.993 153.041ZM407.483 144.05H413.445V133.569H419.175V128.725H413.445V118.896H407.483V144.05ZM454.054 122.203V120.154H447.812V122.203C447.789 127.211 442.688 132.731 433.045 133.942L435.421 138.74C442.734 137.668 448.138 134.221 450.933 129.656C453.704 134.245 459.131 137.668 466.538 138.74L468.867 133.942C459.155 132.731 454.031 127.211 454.054 122.203ZM431.555 146.799H447.858V161.286H453.728V146.799H470.218V141.954H431.555V146.799Z" fill="#1C49FF"/>
<path d="M174.834 504.161C179.144 504.161 181.763 500.97 181.763 495.303C181.763 489.672 179.132 486.446 174.834 486.446C170.536 486.446 167.905 489.672 167.905 495.303C167.905 500.946 170.512 504.161 174.834 504.161ZM171.572 495.303C171.572 491.362 172.846 489.386 174.834 489.374C176.822 489.386 178.108 491.362 178.096 495.303C178.108 499.28 176.834 501.208 174.834 501.208C172.834 501.208 171.548 499.28 171.572 495.303ZM203.336 495.16H183.501V497.565H192.169V501.304H195.169V497.565H203.336V495.16ZM185.835 505.732H201.145V503.304H188.859V499.423H185.835V505.732ZM185.978 493.375H200.788V485.398H185.978V493.375ZM188.954 491.017V487.755H197.812V491.017H188.954ZM216.908 485.898H205.098V488.327H209.527C209.491 491.077 207.86 493.886 204.265 495.018L205.812 497.422C208.408 496.565 210.17 494.827 211.134 492.648C212.087 494.494 213.753 495.958 216.146 496.684L217.599 494.303C214.146 493.291 212.61 490.851 212.599 488.327H216.908V485.898ZM207.265 501.899C207.253 504.554 210.11 506.125 214.694 506.113C219.206 506.125 221.992 504.554 222.004 501.899C221.992 499.256 219.206 497.72 214.694 497.732C210.11 497.72 207.253 499.256 207.265 501.899ZM210.313 501.899C210.289 500.685 211.849 500.077 214.694 500.089C217.504 500.077 219.004 500.685 219.004 501.899C219.004 503.137 217.504 503.756 214.694 503.756C211.849 503.756 210.289 503.137 210.313 501.899ZM218.742 497.303H221.79V491.946H224.718V489.47H221.79V484.445H218.742V497.303Z" fill="#A4DBE2"/>
<path d="M183.997 565.81L185.031 562.643H189.999L191.033 565.81H194.086L189.345 552.08H185.685L180.925 565.81H183.997ZM185.751 560.424L187.468 555.171H187.563L189.279 560.424H185.751ZM201.349 554.204V551.624H198.922V554.204C198.922 557.408 197.547 560.708 194.617 562.055L196.115 564.008C198.069 563.041 199.396 561.211 200.155 558.982C200.866 561.059 202.117 562.766 203.966 563.686L205.427 561.751C202.658 560.414 201.34 557.295 201.349 554.204ZM206.185 567.554H208.613V559.001H211.154V556.953H208.613V550.297H206.185V567.554Z" fill="#A4DBE2"/>
<path d="M308.726 565.81H314.548C317.648 565.81 319.279 564.198 319.289 562.017C319.279 559.988 317.819 558.755 316.274 558.679V558.546C317.686 558.233 318.748 557.219 318.739 555.607C318.748 553.54 317.212 552.08 314.188 552.08H308.726V565.81ZM311.57 563.458V559.779H314.055C315.458 559.779 316.34 560.594 316.33 561.751C316.34 562.785 315.629 563.468 313.979 563.458H311.57ZM311.57 557.826V554.393H313.827C315.126 554.393 315.866 555.066 315.856 556.062C315.866 557.162 314.965 557.835 313.77 557.826H311.57ZM326.799 554.204V551.624H324.371V554.204C324.371 557.408 322.996 560.708 320.066 562.055L321.565 564.008C323.518 563.041 324.845 561.211 325.604 558.982C326.315 561.059 327.567 562.766 329.416 563.686L330.876 561.751C328.107 560.414 326.789 557.295 326.799 554.204ZM331.634 567.554H334.062V559.001H336.603V556.953H334.062V550.297H331.634V567.554Z" fill="#ABA27C"/>
<path d="M444.851 556.859H447.734C447.354 553.701 444.965 551.89 441.798 551.89C438.176 551.89 435.407 554.46 435.407 558.945C435.407 563.411 438.128 565.999 441.798 565.999C445.287 565.999 447.421 563.686 447.734 561.144L444.851 561.125C444.576 562.614 443.4 563.468 441.836 563.477C439.74 563.468 438.309 561.903 438.309 558.945C438.309 556.053 439.721 554.422 441.855 554.412C443.457 554.422 444.624 555.341 444.851 556.859ZM455.433 554.204V551.624H453.006V554.204C453.006 557.408 451.631 560.708 448.701 562.055L450.199 564.008C452.152 563.041 453.48 561.211 454.238 558.982C454.95 561.059 456.201 562.766 458.05 563.686L459.51 561.751C456.742 560.414 455.424 557.295 455.433 554.204ZM460.269 567.554H462.696V559.001H465.238V556.953H462.696V550.297H460.269V567.554Z" fill="#93B7A0"/>
<path d="M567.889 565.81C572.08 565.81 574.611 563.221 574.602 558.926C574.611 554.649 572.08 552.08 567.945 552.08H563.053V565.81H567.889ZM565.897 563.363V554.526H567.794C570.392 554.526 571.757 555.872 571.757 558.926C571.757 562.007 570.392 563.363 567.775 563.363H565.897ZM582.377 554.204V551.624H579.95V554.204C579.95 557.408 578.575 560.708 575.645 562.055L577.143 564.008C579.096 563.041 580.424 561.211 581.182 558.982C581.894 561.059 583.145 562.766 584.994 563.686L586.454 561.751C583.686 560.414 582.368 557.295 582.377 554.204ZM587.213 567.554H589.64V559.001H592.182V556.953H589.64V550.297H587.213V567.554Z" fill="#DF98DE"/>
<path d="M689.562 565.809H698.797V563.458H692.407V560.12H698.305V557.769H692.407V554.431H698.779V552.079H689.562V565.809ZM706.706 554.203V551.624H704.279V554.203C704.279 557.408 702.904 560.708 699.974 562.055L701.471 564.008C703.425 563.041 704.752 561.211 705.511 558.982C706.222 561.059 707.474 562.766 709.323 563.685L710.784 561.751C708.015 560.414 706.697 557.295 706.706 554.203ZM711.542 567.554H713.969V559.001H716.51V556.953H713.969V550.297H711.542V567.554Z" fill="#E89696"/>
<path d="M297.804 504.161C302.113 504.161 304.733 500.97 304.733 495.303C304.733 489.672 302.101 486.446 297.804 486.446C293.506 486.446 290.874 489.672 290.874 495.303C290.874 500.946 293.482 504.161 297.804 504.161ZM294.541 495.303C294.541 491.362 295.815 489.386 297.804 489.374C299.792 489.386 301.078 491.362 301.066 495.303C301.078 499.28 299.804 501.208 297.804 501.208C295.803 501.208 294.518 499.28 294.541 495.303ZM326.305 495.16H306.471V497.565H315.138V501.304H318.138V497.565H326.305V495.16ZM308.804 505.732H324.115V503.304H311.828V499.423H308.804V505.732ZM308.947 493.375H323.758V485.398H308.947V493.375ZM311.923 491.017V487.755H320.781V491.017H311.923ZM339.878 485.898H328.067V488.327H332.496C332.461 491.077 330.83 493.886 327.234 495.018L328.782 497.422C331.377 496.565 333.139 494.827 334.104 492.648C335.056 494.494 336.723 495.958 339.116 496.684L340.568 494.303C337.116 493.291 335.58 490.851 335.568 488.327H339.878V485.898ZM330.234 501.899C330.222 504.554 333.08 506.125 337.663 506.113C342.175 506.125 344.961 504.554 344.973 501.899C344.961 499.256 342.175 497.72 337.663 497.732C333.08 497.72 330.222 499.256 330.234 501.899ZM333.282 501.899C333.258 500.685 334.818 500.077 337.663 500.089C340.473 500.077 341.973 500.685 341.973 501.899C341.973 503.137 340.473 503.756 337.663 503.756C334.818 503.756 333.258 503.137 333.282 501.899ZM341.711 497.303H344.759V491.946H347.688V489.47H344.759V484.445H341.711V497.303Z" fill="#ABA27C"/>
<path d="M423.26 420.103H419.879L415.617 422.818V425.985L419.57 423.508H419.665V437.343H423.26V420.103ZM433.928 437.581C437.821 437.593 440.464 435.081 440.452 431.58C440.464 428.33 438.154 426.009 435.047 426.009C433.142 426.009 431.439 426.901 430.642 428.437H430.475C430.499 425.044 431.725 422.937 434.071 422.937C435.464 422.937 436.452 423.687 436.737 424.889H440.261C439.916 422.056 437.535 419.865 434.071 419.865C429.761 419.865 426.987 423.306 426.975 429.128C426.963 435.438 430.368 437.569 433.928 437.581ZM430.832 431.676C430.856 429.997 432.19 428.616 433.952 428.604C435.702 428.616 436.976 429.949 436.976 431.676C436.976 433.414 435.678 434.759 433.904 434.747C432.142 434.759 430.856 433.366 430.832 431.676ZM462.025 428.58H442.19V430.985H450.857V434.723H453.858V430.985H462.025V428.58ZM444.524 439.152H459.834V436.724H447.548V432.842H444.524V439.152ZM444.667 426.794H459.477V418.818H444.667V426.794ZM447.643 424.437V421.175H456.501V424.437H447.643ZM475.597 419.318H463.787V421.746H468.216C468.18 424.497 466.549 427.306 462.953 428.437L464.501 430.842C467.097 429.985 468.859 428.247 469.823 426.068C470.775 427.913 472.442 429.378 474.835 430.104L476.288 427.723C472.835 426.711 471.299 424.27 471.287 421.746H475.597V419.318ZM465.954 435.319C465.942 437.974 468.799 439.545 473.383 439.533C477.895 439.545 480.681 437.974 480.693 435.319C480.681 432.676 477.895 431.14 473.383 431.152C468.799 431.14 465.942 432.676 465.954 435.319ZM469.001 435.319C468.978 434.104 470.537 433.497 473.383 433.509C476.192 433.497 477.693 434.104 477.693 435.319C477.693 436.557 476.192 437.176 473.383 437.176C470.537 437.176 468.978 436.557 469.001 435.319ZM477.431 430.723H480.478V425.366H483.407V422.889H480.478V417.865H477.431V430.723Z" fill="#93B7A0"/>
<path d="M550.422 400.684H547.041L542.779 403.399V406.566L546.732 404.089H546.827V417.923H550.422V400.684ZM560.709 400.446C556.816 400.434 554.184 402.958 554.184 406.423C554.208 409.637 556.494 411.971 559.59 411.971C561.506 411.971 563.209 411.066 564.018 409.542H564.161C564.149 412.983 562.911 415.09 560.566 415.09C559.185 415.09 558.197 414.34 557.899 413.066H554.375C554.72 415.983 557.101 418.162 560.566 418.162C564.899 418.162 567.673 414.709 567.662 408.851C567.662 402.589 564.28 400.458 560.709 400.446ZM557.685 406.327C557.661 404.613 558.97 403.268 560.732 403.256C562.494 403.268 563.78 404.661 563.804 406.304C563.804 407.959 562.459 409.351 560.709 409.351C558.935 409.351 557.685 408.03 557.685 406.327ZM589.187 409.161H569.352V411.566H578.019V415.304H581.02V411.566H589.187V409.161ZM571.686 419.733H586.996V417.304H574.71V413.423H571.686V419.733ZM571.828 407.375H586.639V399.398H571.828V407.375ZM574.805 405.018V401.756H583.663V405.018H574.805ZM602.759 399.898H590.949V402.327H595.378C595.342 405.077 593.711 407.887 590.115 409.018L591.663 411.423C594.258 410.566 596.021 408.828 596.985 406.649C597.937 408.494 599.604 409.959 601.997 410.685L603.45 408.304C599.997 407.292 598.461 404.851 598.449 402.327H602.759V399.898ZM593.116 415.9C593.104 418.554 595.961 420.126 600.545 420.114C605.057 420.126 607.843 418.554 607.855 415.9C607.843 413.256 605.057 411.721 600.545 411.733C595.961 411.721 593.104 413.256 593.116 415.9ZM596.163 415.9C596.14 414.685 597.699 414.078 600.545 414.09C603.354 414.078 604.854 414.685 604.854 415.9C604.854 417.138 603.354 417.757 600.545 417.757C597.699 417.757 596.14 417.138 596.163 415.9ZM604.593 411.304H607.64V405.946H610.569V403.47H607.64V398.446H604.593V411.304Z" fill="#DF98DE"/>
<path d="M666.876 395.73H679.211V392.777H671.853V392.682L674.472 390.134C678.02 386.92 678.972 385.313 678.972 383.348C678.972 380.36 676.52 378.253 672.829 378.253C669.198 378.253 666.698 380.408 666.71 383.777H670.115C670.103 382.122 671.162 381.098 672.782 381.11C674.365 381.098 675.52 382.051 675.52 383.586C675.52 384.955 674.651 385.908 673.044 387.444L666.853 393.135L666.876 395.73ZM688.092 395.968C691.973 395.968 694.616 393.48 694.616 389.992C694.616 386.682 692.259 384.313 689.092 384.324C687.58 384.313 686.271 384.932 685.64 385.777H685.497L685.973 381.42H693.64V378.491H683.02L682.092 388.42H685.33C685.842 387.456 686.747 386.967 688.045 386.967C689.854 386.979 691.152 388.253 691.14 390.087C691.152 391.884 689.878 393.146 688.092 393.135C686.592 393.146 685.366 392.218 685.282 390.873H681.806C681.866 393.849 684.497 395.968 688.092 395.968ZM716.142 386.967H696.307V389.372H704.974V393.111H707.974V389.372H716.142V386.967ZM698.64 397.54H713.951V395.111H701.664V391.23H698.64V397.54ZM698.783 385.182H713.594V377.205H698.783V385.182ZM701.76 382.824V379.562H710.617V382.824H701.76ZM729.714 377.705H717.904V380.134H722.332C722.297 382.884 720.666 385.694 717.07 386.825L718.618 389.23C721.213 388.372 722.975 386.634 723.94 384.455C724.892 386.301 726.559 387.765 728.952 388.491L730.404 386.11C726.952 385.098 725.416 382.658 725.404 380.134H729.714V377.705ZM720.07 393.706C720.059 396.361 722.916 397.933 727.499 397.921C732.012 397.933 734.798 396.361 734.809 393.706C734.798 391.063 732.012 389.527 727.499 389.539C722.916 389.527 720.059 391.063 720.07 393.706ZM723.118 393.706C723.094 392.492 724.654 391.884 727.499 391.896C730.309 391.884 731.809 392.492 731.809 393.706C731.809 394.944 730.309 395.563 727.499 395.563C724.654 395.563 723.094 394.944 723.118 393.706ZM731.547 389.11H734.595V383.753H737.524V381.277H734.595V376.253H731.547V389.11Z" fill="#E89696"/>
<path d="M769.552 115H762.302V91.0893H762.133L755.222 95.3288V89.0543L762.811 84.3061H769.552V115ZM787.973 115.424C785.316 115.424 783.027 114.809 781.105 113.58C779.183 112.35 777.707 110.556 776.675 108.196C775.643 105.821 775.128 102.974 775.128 99.653C775.128 96.3321 775.643 93.4916 776.675 91.1317C777.707 88.7575 779.183 86.9558 781.105 85.7263C783.027 84.4968 785.316 83.8821 787.973 83.8821C790.63 83.8821 792.919 84.5039 794.841 85.7475C796.777 86.977 798.254 88.7787 799.271 91.1529C800.303 93.5128 800.819 96.3462 800.819 99.653C800.819 102.974 800.303 105.821 799.271 108.196C798.254 110.556 796.777 112.35 794.841 113.58C792.919 114.809 790.63 115.424 787.973 115.424ZM782.547 99.759C782.547 103.009 783.027 105.454 783.988 107.093C784.963 108.718 786.292 109.531 787.973 109.531C789.655 109.531 790.976 108.718 791.937 107.093C792.912 105.454 793.4 103.009 793.4 99.759C793.4 96.4664 792.919 93.9792 791.958 92.2975C790.997 90.6017 789.669 89.7468 787.973 89.7326C786.292 89.7468 784.963 90.6017 783.988 92.2975C783.027 93.9792 782.547 96.4664 782.547 99.759ZM816.697 115.424C814.04 115.424 811.751 114.809 809.829 113.58C807.907 112.35 806.43 110.556 805.398 108.196C804.367 105.821 803.851 102.974 803.851 99.653C803.851 96.3321 804.367 93.4916 805.398 91.1317C806.43 88.7575 807.907 86.9558 809.829 85.7263C811.751 84.4968 814.04 83.8821 816.697 83.8821C819.353 83.8821 821.643 84.5039 823.565 85.7475C825.501 86.977 826.977 88.7787 827.995 91.1529C829.026 93.5128 829.542 96.3462 829.542 99.653C829.542 102.974 829.026 105.821 827.995 108.196C826.977 110.556 825.501 112.35 823.565 113.58C821.643 114.809 819.353 115.424 816.697 115.424ZM811.27 99.759C811.27 103.009 811.751 105.454 812.711 107.093C813.687 108.718 815.015 109.531 816.697 109.531C818.378 109.531 819.7 108.718 820.661 107.093C821.636 105.454 822.123 103.009 822.123 99.759C822.123 96.4664 821.643 93.9792 820.682 92.2975C819.721 90.6017 818.392 89.7468 816.697 89.7326C815.015 89.7468 813.687 90.6017 812.711 92.2975C811.751 93.9792 811.27 96.4664 811.27 99.759ZM867.169 103.977H852.924V110.294H846.904V103.977H831.599V99.1443H867.169V103.977ZM835.627 107.072H841.732V113.559H863.268V118.434H835.627V107.072ZM835.966 81.8048H862.632V96.3886H835.966V81.8048ZM856.655 91.6828V86.5106H841.944V91.6828H856.655ZM890.465 87.5281H883.025C883.152 89.7891 883.93 91.81 885.357 93.5906C886.784 95.357 888.939 96.6571 891.822 97.4909L888.939 102.282C886.876 101.674 885.103 100.784 883.619 99.6106C882.149 98.4377 880.969 97.0387 880.079 95.4135C879.174 97.3637 877.938 99.0383 876.369 100.437C874.815 101.836 872.914 102.889 870.667 103.596L867.572 98.8051C869.607 98.1692 871.296 97.2719 872.638 96.1131C873.995 94.9401 875.005 93.6188 875.67 92.1491C876.334 90.6794 876.708 89.1391 876.793 87.5281H869.183V82.6951H890.465V87.5281ZM872.999 111.396C872.999 109.814 873.536 108.45 874.61 107.305C875.698 106.161 877.252 105.284 879.273 104.677C881.294 104.069 883.682 103.765 886.438 103.765C889.137 103.765 891.483 104.069 893.476 104.677C895.468 105.284 896.994 106.161 898.054 107.305C899.128 108.45 899.665 109.814 899.665 111.396C899.665 112.979 899.128 114.35 898.054 115.509C896.98 116.668 895.447 117.551 893.454 118.158C891.476 118.78 889.137 119.084 886.438 119.07C883.696 119.084 881.308 118.78 879.273 118.158C877.252 117.551 875.698 116.668 874.61 115.509C873.536 114.35 872.999 112.979 872.999 111.396ZM879.104 111.396C879.09 112.414 879.697 113.163 880.927 113.643C882.156 114.124 883.993 114.364 886.438 114.364C888.854 114.364 890.656 114.124 891.843 113.643C893.03 113.163 893.631 112.414 893.645 111.396C893.631 110.407 893.045 109.679 891.886 109.213C890.727 108.747 888.968 108.514 886.608 108.514C884.092 108.514 882.206 108.747 880.948 109.213C879.704 109.665 879.09 110.393 879.104 111.396ZM893.179 80.1514H899.284V88.9271H904.329V93.8449H899.284V103.129H893.179V80.1514Z" fill="#1C49FF"/>
<path d="M172.546 326.471V325.018H170.793V326.471C170.783 329.741 167.096 332.616 163.805 333.246L164.574 334.657C167.449 333.983 170.451 331.953 171.691 329.164C172.92 331.953 175.933 333.994 178.807 334.657L179.577 333.246C176.275 332.626 172.556 329.731 172.546 326.471ZM163.078 340.085H180.474V338.696H163.078V340.085ZM197.481 323.672H195.792V342.671H197.481V323.672ZM181.752 336.537L181.944 337.969C185.459 337.948 190.044 337.884 194.189 337.242L194.083 335.982C193.068 336.099 192.01 336.195 190.941 336.27V327.134H193.1V325.745H182.243V327.134H184.38V336.516C183.461 336.527 182.574 336.537 181.752 336.537ZM186.026 336.484V327.134H189.296V336.366C188.195 336.42 187.094 336.462 186.026 336.484ZM210.576 324.997H201.835V326.365H208.77C208.706 327.113 208.535 327.818 208.268 328.491L200.874 328.844L201.173 330.233L207.595 329.731C206.398 331.494 204.272 332.893 201.023 333.823L201.664 335.191C207.766 333.396 210.565 329.848 210.576 324.997ZM203.417 338.995C203.417 341.314 205.864 342.628 209.849 342.628C213.782 342.628 216.25 341.314 216.239 338.995C216.25 336.708 213.782 335.383 209.849 335.383C205.864 335.383 203.417 336.708 203.417 338.995ZM205.084 338.995C205.094 337.584 206.889 336.708 209.849 336.708C212.756 336.708 214.583 337.584 214.594 338.995C214.583 340.427 212.756 341.303 209.849 341.303C206.889 341.303 205.094 340.427 205.084 338.995ZM214.487 335.127H216.154V323.693H214.487V335.127ZM227.817 324.014C223.575 324.014 221.085 325.179 221.085 327.284C221.085 329.442 223.575 330.607 227.817 330.617C232.038 330.607 234.517 329.442 234.528 327.284C234.517 325.179 232.038 324.014 227.817 324.014ZM219.162 333.267H236.473V331.9H219.162V333.267ZM221.256 336.195H232.604V337.926H221.299V342.457H234.827V341.132H222.966V339.166H234.25V334.913H221.256V336.195ZM222.838 327.284C222.817 326.033 224.665 325.285 227.817 325.275C230.97 325.285 232.808 326.033 232.818 327.284C232.808 328.609 230.97 329.335 227.817 329.335C224.665 329.335 222.817 328.609 222.838 327.284ZM259.372 323.672H257.769V342.671H259.372V323.672ZM242.895 337.606L243.964 338.867C245.866 337.681 247.244 335.447 247.928 332.829C248.59 335.244 249.915 337.296 251.785 338.418L252.811 337.178C250.193 335.661 248.708 332.381 248.708 329.1V327.305H252.192V325.916H243.429V327.305H247.084V329.1C247.095 332.552 245.545 336.024 242.895 337.606ZM250.738 331.9H253.944V341.688H255.525V324.142H253.944V330.532H250.738V331.9ZM270.416 335.682C266.345 335.682 263.759 336.965 263.77 339.166C263.759 341.346 266.345 342.628 270.416 342.628C274.487 342.628 277.073 341.346 277.084 339.166C277.073 336.965 274.487 335.682 270.416 335.682ZM261.846 333.909H279.135V332.541H270.651V328.865H269.005V332.541H261.846V333.909ZM263.898 326.023H275.267V326.258C275.267 327.743 275.267 329.154 274.754 331.109L276.4 331.301C276.923 329.335 276.923 327.796 276.934 326.258V324.655H263.898V326.023ZM265.436 339.166C265.426 337.809 267.392 336.975 270.416 336.965C273.451 336.975 275.395 337.809 275.417 339.166C275.395 340.491 273.451 341.303 270.416 341.303C267.392 341.303 265.426 340.491 265.436 339.166ZM295.223 323.672H293.556V342.671H295.223V332.904H298.407V331.515H295.223V323.672ZM280.412 328.117H291.718V326.728H286.973V323.907H285.306V326.728H280.412V328.117ZM281.502 334.058C281.492 336.633 283.458 338.418 286.161 338.418C288.843 338.418 290.799 336.633 290.82 334.058C290.799 331.494 288.843 329.698 286.161 329.698C283.458 329.698 281.492 331.494 281.502 334.058ZM283.105 334.058C283.095 332.338 284.388 331.098 286.161 331.109C287.914 331.098 289.196 332.338 289.217 334.058C289.196 335.789 287.914 337.007 286.161 336.986C284.388 337.007 283.095 335.789 283.105 334.058ZM306.01 329.506V327.027H310.541V325.638H299.834V327.027H304.322V329.506C304.311 332.797 301.939 336.388 299.214 337.691L300.218 339.016C302.388 337.926 304.311 335.511 305.198 332.723C306.085 335.351 307.997 337.542 310.22 338.546L311.16 337.221C308.361 336.014 306.021 332.733 306.01 329.506ZM313.191 342.671H314.879V323.672H313.191V342.671ZM328.482 324.762C325.65 324.772 323.535 326.578 323.545 329.143C323.535 331.739 325.65 333.535 328.482 333.545C331.324 333.535 333.419 331.739 333.419 329.143C333.419 326.578 331.324 324.772 328.482 324.762ZM325.191 329.143C325.18 327.433 326.612 326.172 328.482 326.172C330.363 326.172 331.784 327.433 331.773 329.143C331.784 330.885 330.363 332.156 328.482 332.156C326.612 332.156 325.18 330.885 325.191 329.143ZM325.212 342.158H326.11C327.349 342.169 329.155 342.083 331.004 341.474L330.747 340.128C329.401 340.576 327.937 340.737 326.836 340.779V335.234H325.212V342.158ZM330.341 336.623H339.937V335.319H335.983V333.631H334.338V335.319H330.341V336.623ZM331.602 339.957C331.592 341.602 333.034 342.628 335.128 342.628C337.212 342.628 338.676 341.602 338.697 339.957C338.676 338.311 337.212 337.264 335.128 337.264C333.034 337.264 331.592 338.311 331.602 339.957ZM333.098 339.957C333.098 339.08 333.942 338.493 335.128 338.482C336.315 338.493 337.159 339.08 337.159 339.957C337.159 340.854 336.315 341.421 335.128 341.431C333.942 341.421 333.098 340.854 333.098 339.957ZM336.368 333.182H338.035V329.357H340.899V327.967H338.035V323.672H336.368V333.182ZM357.242 329.442H345.894V324.377H344.227V330.788H357.242V329.442ZM341.855 334.742H359.251V333.374H341.855V334.742ZM344.121 342.201H357.349V340.811H345.788V336.687H344.121V342.201ZM196.356 352.826C193.514 352.815 191.409 354.674 191.419 357.335C191.409 359.975 193.514 361.834 196.356 361.823C197.959 361.834 199.327 361.225 200.203 360.22H205.182V362.934H206.871V351.672H205.182V354.429H200.203C199.316 353.424 197.959 352.815 196.356 352.826ZM193.022 357.335C193.022 355.529 194.411 354.268 196.356 354.279C198.237 354.268 199.647 355.529 199.647 357.335C199.647 359.098 198.237 360.402 196.356 360.391C194.411 360.402 193.022 359.098 193.022 357.335ZM194.198 366.995C194.187 369.303 196.623 370.628 200.566 370.628C204.498 370.628 206.935 369.303 206.935 366.995C206.935 364.708 204.498 363.383 200.566 363.383C196.623 363.383 194.187 364.708 194.198 366.995ZM195.843 366.995C195.833 365.552 197.649 364.698 200.566 364.687C203.483 364.698 205.3 365.552 205.289 366.995C205.3 368.427 203.483 369.292 200.566 369.282C197.649 369.292 195.833 368.427 195.843 366.995ZM201.004 355.796H205.182V358.831H201.015C201.175 358.372 201.271 357.869 201.271 357.335C201.271 356.78 201.175 356.267 201.004 355.796ZM214.922 353.146C212.112 353.157 210.146 355.732 210.157 359.771C210.146 363.821 212.112 366.386 214.922 366.375C217.572 366.386 219.475 364.056 219.656 360.327H223.898V370.713H225.565V351.672H223.898V358.938H219.635C219.378 355.38 217.508 353.157 214.922 353.146ZM211.76 359.771C211.77 356.683 213.052 354.653 214.922 354.642C216.782 354.653 218.085 356.683 218.085 359.771C218.085 362.86 216.782 364.89 214.922 364.879C213.052 364.89 211.77 362.86 211.76 359.771ZM249.042 353.595H235.599V354.984H247.396V355.711C247.386 358.083 247.386 360.584 246.712 363.939L248.358 364.131C249.031 360.594 249.031 358.147 249.042 355.711V353.595ZM233.783 367.978H251.093V366.589H244.468V360.327H242.823V366.589H239.745V360.327H238.078V366.589H233.783V367.978ZM269.788 360.84H252.477V362.208H257.072V364.623H254.401V365.969H265.963V370.671H267.651V364.623H265.172V362.208H269.788V360.84ZM254.401 355.754C254.401 358.04 256.997 359.408 261.133 359.387C265.247 359.408 267.833 358.04 267.843 355.754C267.833 353.478 265.247 352.121 261.133 352.142C256.997 352.121 254.401 353.478 254.401 355.754ZM256.132 355.754C256.121 354.343 258.055 353.467 261.133 353.488C264.178 353.467 266.123 354.343 266.134 355.754C266.123 357.196 264.178 358.072 261.133 358.083C258.055 358.072 256.121 357.196 256.132 355.754ZM258.761 364.623V362.208H263.526V364.623H258.761ZM283.135 356.78V353.317H281.425V356.78C281.414 360.284 279.213 363.939 276.424 365.307L277.514 366.653C279.673 365.51 281.457 363.073 282.301 360.231C283.145 362.934 284.93 365.2 287.088 366.311L288.093 364.943C285.336 363.682 283.124 360.22 283.135 356.78ZM286.02 359.536H290.529V370.713H292.196V351.672H290.529V358.169H286.02V359.536ZM310.805 351.672H309.117V370.713H310.805V351.672ZM296.251 366.119H305.227V353.296H303.582V358.318H297.918V353.296H296.251V366.119ZM297.918 364.708V359.665H303.582V364.708H297.918ZM323.302 354.471V353.018H321.55V354.471C321.539 357.741 317.853 360.616 314.561 361.246L315.331 362.657C318.205 361.983 321.208 359.953 322.447 357.164C323.676 359.953 326.689 361.994 329.564 362.657L330.333 361.246C327.031 360.626 323.313 357.731 323.302 354.471ZM313.835 368.085H331.231V366.696H313.835V368.085Z" fill="black"/>
<path d="M191.5 378V473" stroke="black" stroke-dasharray="2 2"/>
<path d="M322.5 378V473" stroke="black" stroke-dasharray="2 2"/>
<path d="M809.197 556.628C809.371 554.316 811.31 552.501 813.647 552.477C816.282 552.452 818.296 554.714 818.221 557.324C818.171 558.741 818.171 560.083 818.221 561.5C818.345 564.235 816.232 566.646 813.473 566.671C811.211 566.696 809.222 565.08 809.073 562.843C808.924 560.606 809.023 558.741 809.197 556.628Z" fill="#1C49FF"/>
<path d="M821.751 548.127C822 545.79 823.988 544.025 826.375 544C829.085 543.975 831.247 546.213 831.148 548.873C830.875 556.38 830.899 562.272 831.223 570.078C831.322 572.738 829.209 574.975 826.549 575C824.163 575.025 822.124 573.26 821.9 570.898C821.08 562.496 820.906 556.405 821.751 548.127Z" fill="#1C49FF"/>
<path d="M834.377 556.006C834.701 553.868 836.59 552.327 838.753 552.302C841.562 552.277 843.65 554.763 843.575 557.548C843.526 558.815 843.55 560.034 843.65 561.301C843.824 564.036 841.736 566.447 838.976 566.497C836.739 566.522 834.775 564.931 834.427 562.718C834.054 560.406 833.98 558.791 834.377 556.006Z" fill="#1C49FF"/>
<path d="M846.883 558.121C847.206 556.032 849.245 554.665 851.358 554.64H852.253C854.689 554.615 856.529 556.604 856.479 559.04C856.429 561.551 854.565 563.987 852.029 564.012H851.358C849.27 564.037 847.331 562.695 846.933 560.656C846.784 559.761 846.759 559.016 846.883 558.121Z" fill="#1C49FF"/>
</svg>
