<svg width="24" height="25" viewBox="0 0 24 25" fill="none" xmlns="http://www.w3.org/2000/svg">
<path d="M11.9999 24.2201C18.6273 24.2201 23.9999 18.8813 23.9999 12.2956C23.9999 5.70987 18.6273 0.371094 11.9999 0.371094C5.37256 0.371094 0 5.70987 0 12.2956C0 18.8813 5.37256 24.2201 11.9999 24.2201Z" fill="white"/>
<path d="M11.4775 12.2958H23.9993C23.9993 11.2195 23.8549 10.1769 23.5859 9.18506H11.4775V12.2958Z" fill="#D80027"/>
<path d="M11.478 6.07413H22.2385C21.5039 4.88298 20.5647 3.83014 19.4696 2.96338H11.478V6.07413Z" fill="#D80027"/>
<path d="M11.9996 24.2202C14.8237 24.2202 17.4195 23.2502 19.4694 21.6279H4.52979C6.57962 23.2502 9.17541 24.2202 11.9996 24.2202Z" fill="#D80027"/>
<path d="M1.76097 18.517H22.2383C22.828 17.5608 23.2854 16.5155 23.5862 15.4062H0.413086C0.713881 16.5155 1.17124 17.5608 1.76097 18.517Z" fill="#D80027"/>
<path d="M5.55863 2.23327H6.65217L5.63498 2.96761L6.02353 4.15582L5.00639 3.42149L3.98925 4.15582L4.32487 3.12933C3.42928 3.87066 2.64431 4.73919 1.99744 5.70694H2.34783L1.70034 6.17437C1.59947 6.34159 1.50272 6.51147 1.41 6.68386L1.71919 7.62949L1.14234 7.21301C0.998953 7.5149 0.867797 7.82358 0.749906 8.1387L1.09055 9.1806H2.34783L1.33064 9.91494L1.71919 11.1032L0.702047 10.3688L0.0927656 10.8087C0.0317812 11.2959 0 11.792 0 12.2956H12C12 5.70992 12 4.93352 12 0.371094C9.62944 0.371094 7.41961 1.05442 5.55863 2.23327ZM6.02353 11.1032L5.00639 10.3688L3.98925 11.1032L4.3778 9.91494L3.36061 9.1806H4.61789L5.00639 7.99239L5.39489 9.1806H6.65217L5.63498 9.91494L6.02353 11.1032ZM5.63498 6.44127L6.02353 7.62949L5.00639 6.89515L3.98925 7.62949L4.3778 6.44127L3.36061 5.70694H4.61789L5.00639 4.51873L5.39489 5.70694H6.65217L5.63498 6.44127ZM10.3279 11.1032L9.31073 10.3688L8.29359 11.1032L8.68214 9.91494L7.66495 9.1806H8.92223L9.31073 7.99239L9.69923 9.1806H10.9565L9.93933 9.91494L10.3279 11.1032ZM9.93933 6.44127L10.3279 7.62949L9.31073 6.89515L8.29359 7.62949L8.68214 6.44127L7.66495 5.70694H8.92223L9.31073 4.51873L9.69923 5.70694H10.9565L9.93933 6.44127ZM9.93933 2.96761L10.3279 4.15582L9.31073 3.42149L8.29359 4.15582L8.68214 2.96761L7.66495 2.23327H8.92223L9.31073 1.04506L9.69923 2.23327H10.9565L9.93933 2.96761Z" fill="#0052B4"/>
</svg>
